G04 #@! TF.GenerationSoftware,KiCad,Pcbnew,(5.99.0-10720-gd84fcd89f1)*
G04 #@! TF.CreationDate,2021-06-08T11:49:25-04:00*
G04 #@! TF.ProjectId,FlySensei_Stack_RPi_ECAD,466c7953-656e-4736-9569-5f537461636b,0.1*
G04 #@! TF.SameCoordinates,Original*
G04 #@! TF.FileFunction,Legend,Top*
G04 #@! TF.FilePolarity,Positive*
%FSLAX46Y46*%
G04 Gerber Fmt 4.6, Leading zero omitted, Abs format (unit mm)*
G04 Created by KiCad (PCBNEW (5.99.0-10720-gd84fcd89f1)) date 2021-06-08 11:49:25*
%MOMM*%
%LPD*%
G01*
G04 APERTURE LIST*
G04 #@! TA.AperFunction,Profile*
%ADD10C,0.100000*%
G04 #@! TD*
%ADD11C,0.150000*%
%ADD12C,0.120000*%
G04 APERTURE END LIST*
D10*
X128750000Y-128250000D02*
X131650000Y-128250000D01*
X138900000Y-128200000D02*
X137100000Y-130000000D01*
X131650000Y-128250000D02*
X133400000Y-130000000D01*
X91700000Y-118100000D02*
X90000000Y-119800000D01*
X91700000Y-115700000D02*
X90000000Y-114000000D01*
X90000000Y-119800000D02*
X90000000Y-126000000D01*
X127000000Y-130000000D02*
X94000000Y-130000000D01*
X180000000Y-69000000D02*
X180000000Y-126000000D01*
X180000000Y-69000000D02*
G75*
G03*
X176000000Y-65000000I-4000000J0D01*
G01*
X94000000Y-65000000D02*
X176000000Y-65000000D01*
X128750000Y-128250000D02*
X127000000Y-130000000D01*
X138900000Y-128200000D02*
X141300000Y-128200000D01*
X90000000Y-126000000D02*
G75*
G03*
X94000000Y-130000000I4000000J0D01*
G01*
X94000000Y-65000000D02*
G75*
G03*
X90000000Y-69000000I0J-4000000D01*
G01*
X176000000Y-130000000D02*
G75*
G03*
X180000000Y-126000000I0J4000000D01*
G01*
X91700000Y-115700000D02*
X91700000Y-118100000D01*
X141300000Y-128200000D02*
X143100000Y-130000000D01*
X90000000Y-114000000D02*
X90000000Y-69000000D01*
X133400000Y-130000000D02*
X137100000Y-130000000D01*
X143100000Y-130000000D02*
X176000000Y-130000000D01*
D11*
X124371428Y-93742857D02*
X124638095Y-93742857D01*
X124752380Y-94161904D02*
X124371428Y-94161904D01*
X124371428Y-93361904D01*
X124752380Y-93361904D01*
X125095238Y-94161904D02*
X125095238Y-93361904D01*
X125400000Y-93361904D01*
X125476190Y-93400000D01*
X125514285Y-93438095D01*
X125552380Y-93514285D01*
X125552380Y-93628571D01*
X125514285Y-93704761D01*
X125476190Y-93742857D01*
X125400000Y-93780952D01*
X125095238Y-93780952D01*
X126352380Y-94161904D02*
X126085714Y-93780952D01*
X125895238Y-94161904D02*
X125895238Y-93361904D01*
X126200000Y-93361904D01*
X126276190Y-93400000D01*
X126314285Y-93438095D01*
X126352380Y-93514285D01*
X126352380Y-93628571D01*
X126314285Y-93704761D01*
X126276190Y-93742857D01*
X126200000Y-93780952D01*
X125895238Y-93780952D01*
X126695238Y-94161904D02*
X126695238Y-93361904D01*
X126961904Y-93933333D01*
X127228571Y-93361904D01*
X127228571Y-94161904D01*
X109334523Y-108142857D02*
X109448809Y-108180952D01*
X109486904Y-108219047D01*
X109525000Y-108295238D01*
X109525000Y-108409523D01*
X109486904Y-108485714D01*
X109448809Y-108523809D01*
X109372619Y-108561904D01*
X109067857Y-108561904D01*
X109067857Y-107761904D01*
X109334523Y-107761904D01*
X109410714Y-107800000D01*
X109448809Y-107838095D01*
X109486904Y-107914285D01*
X109486904Y-107990476D01*
X109448809Y-108066666D01*
X109410714Y-108104761D01*
X109334523Y-108142857D01*
X109067857Y-108142857D01*
X110248809Y-108561904D02*
X109867857Y-108561904D01*
X109867857Y-107761904D01*
X110401190Y-107761904D02*
X110858333Y-107761904D01*
X110629761Y-108561904D02*
X110629761Y-107761904D01*
X111125000Y-108561904D02*
X111125000Y-107761904D01*
X111125000Y-108142857D02*
X111582142Y-108142857D01*
X111582142Y-108561904D02*
X111582142Y-107761904D01*
X109064285Y-110692857D02*
X109178571Y-110730952D01*
X109216666Y-110769047D01*
X109254761Y-110845238D01*
X109254761Y-110959523D01*
X109216666Y-111035714D01*
X109178571Y-111073809D01*
X109102380Y-111111904D01*
X108797619Y-111111904D01*
X108797619Y-110311904D01*
X109064285Y-110311904D01*
X109140476Y-110350000D01*
X109178571Y-110388095D01*
X109216666Y-110464285D01*
X109216666Y-110540476D01*
X109178571Y-110616666D01*
X109140476Y-110654761D01*
X109064285Y-110692857D01*
X108797619Y-110692857D01*
X109750000Y-110311904D02*
X109902380Y-110311904D01*
X109978571Y-110350000D01*
X110054761Y-110426190D01*
X110092857Y-110578571D01*
X110092857Y-110845238D01*
X110054761Y-110997619D01*
X109978571Y-111073809D01*
X109902380Y-111111904D01*
X109750000Y-111111904D01*
X109673809Y-111073809D01*
X109597619Y-110997619D01*
X109559523Y-110845238D01*
X109559523Y-110578571D01*
X109597619Y-110426190D01*
X109673809Y-110350000D01*
X109750000Y-110311904D01*
X110588095Y-110311904D02*
X110740476Y-110311904D01*
X110816666Y-110350000D01*
X110892857Y-110426190D01*
X110930952Y-110578571D01*
X110930952Y-110845238D01*
X110892857Y-110997619D01*
X110816666Y-111073809D01*
X110740476Y-111111904D01*
X110588095Y-111111904D01*
X110511904Y-111073809D01*
X110435714Y-110997619D01*
X110397619Y-110845238D01*
X110397619Y-110578571D01*
X110435714Y-110426190D01*
X110511904Y-110350000D01*
X110588095Y-110311904D01*
X111159523Y-110311904D02*
X111616666Y-110311904D01*
X111388095Y-111111904D02*
X111388095Y-110311904D01*
X90833333Y-100580952D02*
X90833333Y-101057142D01*
X90547619Y-100485714D02*
X91547619Y-100819047D01*
X90547619Y-101152380D01*
X90642857Y-102057142D02*
X90595238Y-102009523D01*
X90547619Y-101866666D01*
X90547619Y-101771428D01*
X90595238Y-101628571D01*
X90690476Y-101533333D01*
X90785714Y-101485714D01*
X90976190Y-101438095D01*
X91119047Y-101438095D01*
X91309523Y-101485714D01*
X91404761Y-101533333D01*
X91500000Y-101628571D01*
X91547619Y-101771428D01*
X91547619Y-101866666D01*
X91500000Y-102009523D01*
X91452380Y-102057142D01*
X91547619Y-102342857D02*
X91547619Y-102914285D01*
X90547619Y-102628571D02*
X91547619Y-102628571D01*
X91547619Y-111430952D02*
X91547619Y-111621428D01*
X91500000Y-111716666D01*
X91404761Y-111811904D01*
X91214285Y-111859523D01*
X90880952Y-111859523D01*
X90690476Y-111811904D01*
X90595238Y-111716666D01*
X90547619Y-111621428D01*
X90547619Y-111430952D01*
X90595238Y-111335714D01*
X90690476Y-111240476D01*
X90880952Y-111192857D01*
X91214285Y-111192857D01*
X91404761Y-111240476D01*
X91500000Y-111335714D01*
X91547619Y-111430952D01*
X90547619Y-112288095D02*
X91547619Y-112288095D01*
X90547619Y-112859523D01*
X91547619Y-112859523D01*
X109308333Y-105211904D02*
X109498809Y-106011904D01*
X109651190Y-105440476D01*
X109803571Y-106011904D01*
X109994047Y-105211904D01*
X110298809Y-106011904D02*
X110298809Y-105211904D01*
X110946428Y-105592857D02*
X110679761Y-105592857D01*
X110679761Y-106011904D02*
X110679761Y-105211904D01*
X111060714Y-105211904D01*
X111365476Y-106011904D02*
X111365476Y-105211904D01*
X91171428Y-89471428D02*
X91171428Y-89804761D01*
X90647619Y-89947619D02*
X90647619Y-89471428D01*
X91647619Y-89471428D01*
X91647619Y-89947619D01*
X91647619Y-90233333D02*
X91647619Y-90804761D01*
X90647619Y-90519047D02*
X91647619Y-90519047D01*
X90647619Y-91138095D02*
X91647619Y-91138095D01*
X91171428Y-91138095D02*
X91171428Y-91709523D01*
X90647619Y-91709523D02*
X91647619Y-91709523D01*
X91171428Y-92185714D02*
X91171428Y-92519047D01*
X90647619Y-92661904D02*
X90647619Y-92185714D01*
X91647619Y-92185714D01*
X91647619Y-92661904D01*
X90647619Y-93661904D02*
X91123809Y-93328571D01*
X90647619Y-93090476D02*
X91647619Y-93090476D01*
X91647619Y-93471428D01*
X91600000Y-93566666D01*
X91552380Y-93614285D01*
X91457142Y-93661904D01*
X91314285Y-93661904D01*
X91219047Y-93614285D01*
X91171428Y-93566666D01*
X91123809Y-93471428D01*
X91123809Y-93090476D01*
X90647619Y-94090476D02*
X91647619Y-94090476D01*
X90647619Y-94661904D01*
X91647619Y-94661904D01*
X91171428Y-95138095D02*
X91171428Y-95471428D01*
X90647619Y-95614285D02*
X90647619Y-95138095D01*
X91647619Y-95138095D01*
X91647619Y-95614285D01*
X91647619Y-95900000D02*
X91647619Y-96471428D01*
X90647619Y-96185714D02*
X91647619Y-96185714D01*
X90547619Y-105666666D02*
X91547619Y-105666666D01*
X91547619Y-106047619D01*
X91500000Y-106142857D01*
X91452380Y-106190476D01*
X91357142Y-106238095D01*
X91214285Y-106238095D01*
X91119047Y-106190476D01*
X91071428Y-106142857D01*
X91023809Y-106047619D01*
X91023809Y-105666666D01*
X91547619Y-106571428D02*
X90547619Y-106809523D01*
X91261904Y-107000000D01*
X90547619Y-107190476D01*
X91547619Y-107428571D01*
X90547619Y-108380952D02*
X91023809Y-108047619D01*
X90547619Y-107809523D02*
X91547619Y-107809523D01*
X91547619Y-108190476D01*
X91500000Y-108285714D01*
X91452380Y-108333333D01*
X91357142Y-108380952D01*
X91214285Y-108380952D01*
X91119047Y-108333333D01*
X91071428Y-108285714D01*
X91023809Y-108190476D01*
X91023809Y-107809523D01*
G04 #@! TO.C,C12*
X113087142Y-116242857D02*
X113134761Y-116290476D01*
X113182380Y-116433333D01*
X113182380Y-116528571D01*
X113134761Y-116671428D01*
X113039523Y-116766666D01*
X112944285Y-116814285D01*
X112753809Y-116861904D01*
X112610952Y-116861904D01*
X112420476Y-116814285D01*
X112325238Y-116766666D01*
X112230000Y-116671428D01*
X112182380Y-116528571D01*
X112182380Y-116433333D01*
X112230000Y-116290476D01*
X112277619Y-116242857D01*
X113182380Y-115290476D02*
X113182380Y-115861904D01*
X113182380Y-115576190D02*
X112182380Y-115576190D01*
X112325238Y-115671428D01*
X112420476Y-115766666D01*
X112468095Y-115861904D01*
X112277619Y-114909523D02*
X112230000Y-114861904D01*
X112182380Y-114766666D01*
X112182380Y-114528571D01*
X112230000Y-114433333D01*
X112277619Y-114385714D01*
X112372857Y-114338095D01*
X112468095Y-114338095D01*
X112610952Y-114385714D01*
X113182380Y-114957142D01*
X113182380Y-114338095D01*
G04 #@! TO.C,D8*
X95611904Y-112502380D02*
X95611904Y-111502380D01*
X95850000Y-111502380D01*
X95992857Y-111550000D01*
X96088095Y-111645238D01*
X96135714Y-111740476D01*
X96183333Y-111930952D01*
X96183333Y-112073809D01*
X96135714Y-112264285D01*
X96088095Y-112359523D01*
X95992857Y-112454761D01*
X95850000Y-112502380D01*
X95611904Y-112502380D01*
X96754761Y-111930952D02*
X96659523Y-111883333D01*
X96611904Y-111835714D01*
X96564285Y-111740476D01*
X96564285Y-111692857D01*
X96611904Y-111597619D01*
X96659523Y-111550000D01*
X96754761Y-111502380D01*
X96945238Y-111502380D01*
X97040476Y-111550000D01*
X97088095Y-111597619D01*
X97135714Y-111692857D01*
X97135714Y-111740476D01*
X97088095Y-111835714D01*
X97040476Y-111883333D01*
X96945238Y-111930952D01*
X96754761Y-111930952D01*
X96659523Y-111978571D01*
X96611904Y-112026190D01*
X96564285Y-112121428D01*
X96564285Y-112311904D01*
X96611904Y-112407142D01*
X96659523Y-112454761D01*
X96754761Y-112502380D01*
X96945238Y-112502380D01*
X97040476Y-112454761D01*
X97088095Y-112407142D01*
X97135714Y-112311904D01*
X97135714Y-112121428D01*
X97088095Y-112026190D01*
X97040476Y-111978571D01*
X96945238Y-111930952D01*
G04 #@! TO.C,J8*
X170752380Y-101133333D02*
X171466666Y-101133333D01*
X171609523Y-101180952D01*
X171704761Y-101276190D01*
X171752380Y-101419047D01*
X171752380Y-101514285D01*
X171180952Y-100514285D02*
X171133333Y-100609523D01*
X171085714Y-100657142D01*
X170990476Y-100704761D01*
X170942857Y-100704761D01*
X170847619Y-100657142D01*
X170800000Y-100609523D01*
X170752380Y-100514285D01*
X170752380Y-100323809D01*
X170800000Y-100228571D01*
X170847619Y-100180952D01*
X170942857Y-100133333D01*
X170990476Y-100133333D01*
X171085714Y-100180952D01*
X171133333Y-100228571D01*
X171180952Y-100323809D01*
X171180952Y-100514285D01*
X171228571Y-100609523D01*
X171276190Y-100657142D01*
X171371428Y-100704761D01*
X171561904Y-100704761D01*
X171657142Y-100657142D01*
X171704761Y-100609523D01*
X171752380Y-100514285D01*
X171752380Y-100323809D01*
X171704761Y-100228571D01*
X171657142Y-100180952D01*
X171561904Y-100133333D01*
X171371428Y-100133333D01*
X171276190Y-100180952D01*
X171228571Y-100228571D01*
X171180952Y-100323809D01*
G04 #@! TO.C,R3*
X95466666Y-89561904D02*
X95200000Y-89180952D01*
X95009523Y-89561904D02*
X95009523Y-88761904D01*
X95314285Y-88761904D01*
X95390476Y-88800000D01*
X95428571Y-88838095D01*
X95466666Y-88914285D01*
X95466666Y-89028571D01*
X95428571Y-89104761D01*
X95390476Y-89142857D01*
X95314285Y-89180952D01*
X95009523Y-89180952D01*
X95733333Y-88761904D02*
X96228571Y-88761904D01*
X95961904Y-89066666D01*
X96076190Y-89066666D01*
X96152380Y-89104761D01*
X96190476Y-89142857D01*
X96228571Y-89219047D01*
X96228571Y-89409523D01*
X96190476Y-89485714D01*
X96152380Y-89523809D01*
X96076190Y-89561904D01*
X95847619Y-89561904D01*
X95771428Y-89523809D01*
X95733333Y-89485714D01*
G04 #@! TO.C,J9*
X94452380Y-86983333D02*
X95166666Y-86983333D01*
X95309523Y-87030952D01*
X95404761Y-87126190D01*
X95452380Y-87269047D01*
X95452380Y-87364285D01*
X95452380Y-86459523D02*
X95452380Y-86269047D01*
X95404761Y-86173809D01*
X95357142Y-86126190D01*
X95214285Y-86030952D01*
X95023809Y-85983333D01*
X94642857Y-85983333D01*
X94547619Y-86030952D01*
X94500000Y-86078571D01*
X94452380Y-86173809D01*
X94452380Y-86364285D01*
X94500000Y-86459523D01*
X94547619Y-86507142D01*
X94642857Y-86554761D01*
X94880952Y-86554761D01*
X94976190Y-86507142D01*
X95023809Y-86459523D01*
X95071428Y-86364285D01*
X95071428Y-86173809D01*
X95023809Y-86078571D01*
X94976190Y-86030952D01*
X94880952Y-85983333D01*
G04 #@! TO.C,D7*
X159361904Y-74252380D02*
X159361904Y-73252380D01*
X159600000Y-73252380D01*
X159742857Y-73300000D01*
X159838095Y-73395238D01*
X159885714Y-73490476D01*
X159933333Y-73680952D01*
X159933333Y-73823809D01*
X159885714Y-74014285D01*
X159838095Y-74109523D01*
X159742857Y-74204761D01*
X159600000Y-74252380D01*
X159361904Y-74252380D01*
X160266666Y-73252380D02*
X160933333Y-73252380D01*
X160504761Y-74252380D01*
G04 #@! TO.C,U5*
X104738095Y-117952380D02*
X104738095Y-118761904D01*
X104785714Y-118857142D01*
X104833333Y-118904761D01*
X104928571Y-118952380D01*
X105119047Y-118952380D01*
X105214285Y-118904761D01*
X105261904Y-118857142D01*
X105309523Y-118761904D01*
X105309523Y-117952380D01*
X106261904Y-117952380D02*
X105785714Y-117952380D01*
X105738095Y-118428571D01*
X105785714Y-118380952D01*
X105880952Y-118333333D01*
X106119047Y-118333333D01*
X106214285Y-118380952D01*
X106261904Y-118428571D01*
X106309523Y-118523809D01*
X106309523Y-118761904D01*
X106261904Y-118857142D01*
X106214285Y-118904761D01*
X106119047Y-118952380D01*
X105880952Y-118952380D01*
X105785714Y-118904761D01*
X105738095Y-118857142D01*
G04 #@! TO.C,U8*
X98452380Y-75661904D02*
X99261904Y-75661904D01*
X99357142Y-75614285D01*
X99404761Y-75566666D01*
X99452380Y-75471428D01*
X99452380Y-75280952D01*
X99404761Y-75185714D01*
X99357142Y-75138095D01*
X99261904Y-75090476D01*
X98452380Y-75090476D01*
X98880952Y-74471428D02*
X98833333Y-74566666D01*
X98785714Y-74614285D01*
X98690476Y-74661904D01*
X98642857Y-74661904D01*
X98547619Y-74614285D01*
X98500000Y-74566666D01*
X98452380Y-74471428D01*
X98452380Y-74280952D01*
X98500000Y-74185714D01*
X98547619Y-74138095D01*
X98642857Y-74090476D01*
X98690476Y-74090476D01*
X98785714Y-74138095D01*
X98833333Y-74185714D01*
X98880952Y-74280952D01*
X98880952Y-74471428D01*
X98928571Y-74566666D01*
X98976190Y-74614285D01*
X99071428Y-74661904D01*
X99261904Y-74661904D01*
X99357142Y-74614285D01*
X99404761Y-74566666D01*
X99452380Y-74471428D01*
X99452380Y-74280952D01*
X99404761Y-74185714D01*
X99357142Y-74138095D01*
X99261904Y-74090476D01*
X99071428Y-74090476D01*
X98976190Y-74138095D01*
X98928571Y-74185714D01*
X98880952Y-74280952D01*
G04 #@! TO.C,U10*
X106911904Y-75502380D02*
X106911904Y-76311904D01*
X106959523Y-76407142D01*
X107007142Y-76454761D01*
X107102380Y-76502380D01*
X107292857Y-76502380D01*
X107388095Y-76454761D01*
X107435714Y-76407142D01*
X107483333Y-76311904D01*
X107483333Y-75502380D01*
X108483333Y-76502380D02*
X107911904Y-76502380D01*
X108197619Y-76502380D02*
X108197619Y-75502380D01*
X108102380Y-75645238D01*
X108007142Y-75740476D01*
X107911904Y-75788095D01*
X109102380Y-75502380D02*
X109197619Y-75502380D01*
X109292857Y-75550000D01*
X109340476Y-75597619D01*
X109388095Y-75692857D01*
X109435714Y-75883333D01*
X109435714Y-76121428D01*
X109388095Y-76311904D01*
X109340476Y-76407142D01*
X109292857Y-76454761D01*
X109197619Y-76502380D01*
X109102380Y-76502380D01*
X109007142Y-76454761D01*
X108959523Y-76407142D01*
X108911904Y-76311904D01*
X108864285Y-76121428D01*
X108864285Y-75883333D01*
X108911904Y-75692857D01*
X108959523Y-75597619D01*
X109007142Y-75550000D01*
X109102380Y-75502380D01*
G04 #@! TO.C,R20*
X112631904Y-73764285D02*
X112250952Y-74030952D01*
X112631904Y-74221428D02*
X111831904Y-74221428D01*
X111831904Y-73916666D01*
X111870000Y-73840476D01*
X111908095Y-73802380D01*
X111984285Y-73764285D01*
X112098571Y-73764285D01*
X112174761Y-73802380D01*
X112212857Y-73840476D01*
X112250952Y-73916666D01*
X112250952Y-74221428D01*
X111908095Y-73459523D02*
X111870000Y-73421428D01*
X111831904Y-73345238D01*
X111831904Y-73154761D01*
X111870000Y-73078571D01*
X111908095Y-73040476D01*
X111984285Y-73002380D01*
X112060476Y-73002380D01*
X112174761Y-73040476D01*
X112631904Y-73497619D01*
X112631904Y-73002380D01*
X111831904Y-72507142D02*
X111831904Y-72430952D01*
X111870000Y-72354761D01*
X111908095Y-72316666D01*
X111984285Y-72278571D01*
X112136666Y-72240476D01*
X112327142Y-72240476D01*
X112479523Y-72278571D01*
X112555714Y-72316666D01*
X112593809Y-72354761D01*
X112631904Y-72430952D01*
X112631904Y-72507142D01*
X112593809Y-72583333D01*
X112555714Y-72621428D01*
X112479523Y-72659523D01*
X112327142Y-72697619D01*
X112136666Y-72697619D01*
X111984285Y-72659523D01*
X111908095Y-72621428D01*
X111870000Y-72583333D01*
X111831904Y-72507142D01*
G04 #@! TO.C,J1*
X123766666Y-115792380D02*
X123766666Y-116506666D01*
X123719047Y-116649523D01*
X123623809Y-116744761D01*
X123480952Y-116792380D01*
X123385714Y-116792380D01*
X124766666Y-116792380D02*
X124195238Y-116792380D01*
X124480952Y-116792380D02*
X124480952Y-115792380D01*
X124385714Y-115935238D01*
X124290476Y-116030476D01*
X124195238Y-116078095D01*
G04 #@! TO.C,D1*
X95561904Y-102052380D02*
X95561904Y-101052380D01*
X95800000Y-101052380D01*
X95942857Y-101100000D01*
X96038095Y-101195238D01*
X96085714Y-101290476D01*
X96133333Y-101480952D01*
X96133333Y-101623809D01*
X96085714Y-101814285D01*
X96038095Y-101909523D01*
X95942857Y-102004761D01*
X95800000Y-102052380D01*
X95561904Y-102052380D01*
X97085714Y-102052380D02*
X96514285Y-102052380D01*
X96800000Y-102052380D02*
X96800000Y-101052380D01*
X96704761Y-101195238D01*
X96609523Y-101290476D01*
X96514285Y-101338095D01*
G04 #@! TO.C,U1*
X117738095Y-125952380D02*
X117738095Y-126761904D01*
X117785714Y-126857142D01*
X117833333Y-126904761D01*
X117928571Y-126952380D01*
X118119047Y-126952380D01*
X118214285Y-126904761D01*
X118261904Y-126857142D01*
X118309523Y-126761904D01*
X118309523Y-125952380D01*
X119309523Y-126952380D02*
X118738095Y-126952380D01*
X119023809Y-126952380D02*
X119023809Y-125952380D01*
X118928571Y-126095238D01*
X118833333Y-126190476D01*
X118738095Y-126238095D01*
G04 #@! TO.C,U9*
X98452380Y-84461904D02*
X99261904Y-84461904D01*
X99357142Y-84414285D01*
X99404761Y-84366666D01*
X99452380Y-84271428D01*
X99452380Y-84080952D01*
X99404761Y-83985714D01*
X99357142Y-83938095D01*
X99261904Y-83890476D01*
X98452380Y-83890476D01*
X99452380Y-83366666D02*
X99452380Y-83176190D01*
X99404761Y-83080952D01*
X99357142Y-83033333D01*
X99214285Y-82938095D01*
X99023809Y-82890476D01*
X98642857Y-82890476D01*
X98547619Y-82938095D01*
X98500000Y-82985714D01*
X98452380Y-83080952D01*
X98452380Y-83271428D01*
X98500000Y-83366666D01*
X98547619Y-83414285D01*
X98642857Y-83461904D01*
X98880952Y-83461904D01*
X98976190Y-83414285D01*
X99023809Y-83366666D01*
X99071428Y-83271428D01*
X99071428Y-83080952D01*
X99023809Y-82985714D01*
X98976190Y-82938095D01*
X98880952Y-82890476D01*
G04 #@! TO.C,R1*
X95366666Y-100211904D02*
X95100000Y-99830952D01*
X94909523Y-100211904D02*
X94909523Y-99411904D01*
X95214285Y-99411904D01*
X95290476Y-99450000D01*
X95328571Y-99488095D01*
X95366666Y-99564285D01*
X95366666Y-99678571D01*
X95328571Y-99754761D01*
X95290476Y-99792857D01*
X95214285Y-99830952D01*
X94909523Y-99830952D01*
X96128571Y-100211904D02*
X95671428Y-100211904D01*
X95900000Y-100211904D02*
X95900000Y-99411904D01*
X95823809Y-99526190D01*
X95747619Y-99602380D01*
X95671428Y-99640476D01*
G04 #@! TO.C,J5*
X164666666Y-83192380D02*
X164666666Y-83906666D01*
X164619047Y-84049523D01*
X164523809Y-84144761D01*
X164380952Y-84192380D01*
X164285714Y-84192380D01*
X165619047Y-83192380D02*
X165142857Y-83192380D01*
X165095238Y-83668571D01*
X165142857Y-83620952D01*
X165238095Y-83573333D01*
X165476190Y-83573333D01*
X165571428Y-83620952D01*
X165619047Y-83668571D01*
X165666666Y-83763809D01*
X165666666Y-84001904D01*
X165619047Y-84097142D01*
X165571428Y-84144761D01*
X165476190Y-84192380D01*
X165238095Y-84192380D01*
X165142857Y-84144761D01*
X165095238Y-84097142D01*
G04 #@! TO.C,R4*
X93633333Y-104582380D02*
X93300000Y-104106190D01*
X93061904Y-104582380D02*
X93061904Y-103582380D01*
X93442857Y-103582380D01*
X93538095Y-103630000D01*
X93585714Y-103677619D01*
X93633333Y-103772857D01*
X93633333Y-103915714D01*
X93585714Y-104010952D01*
X93538095Y-104058571D01*
X93442857Y-104106190D01*
X93061904Y-104106190D01*
X94490476Y-103915714D02*
X94490476Y-104582380D01*
X94252380Y-103534761D02*
X94014285Y-104249047D01*
X94633333Y-104249047D01*
G04 #@! TO.C,C27*
X108757142Y-70087142D02*
X108709523Y-70134761D01*
X108566666Y-70182380D01*
X108471428Y-70182380D01*
X108328571Y-70134761D01*
X108233333Y-70039523D01*
X108185714Y-69944285D01*
X108138095Y-69753809D01*
X108138095Y-69610952D01*
X108185714Y-69420476D01*
X108233333Y-69325238D01*
X108328571Y-69230000D01*
X108471428Y-69182380D01*
X108566666Y-69182380D01*
X108709523Y-69230000D01*
X108757142Y-69277619D01*
X109138095Y-69277619D02*
X109185714Y-69230000D01*
X109280952Y-69182380D01*
X109519047Y-69182380D01*
X109614285Y-69230000D01*
X109661904Y-69277619D01*
X109709523Y-69372857D01*
X109709523Y-69468095D01*
X109661904Y-69610952D01*
X109090476Y-70182380D01*
X109709523Y-70182380D01*
X110042857Y-69182380D02*
X110709523Y-69182380D01*
X110280952Y-70182380D01*
G04 #@! TO.C,D5*
X99261904Y-115277380D02*
X99261904Y-114277380D01*
X99500000Y-114277380D01*
X99642857Y-114325000D01*
X99738095Y-114420238D01*
X99785714Y-114515476D01*
X99833333Y-114705952D01*
X99833333Y-114848809D01*
X99785714Y-115039285D01*
X99738095Y-115134523D01*
X99642857Y-115229761D01*
X99500000Y-115277380D01*
X99261904Y-115277380D01*
X100738095Y-114277380D02*
X100261904Y-114277380D01*
X100214285Y-114753571D01*
X100261904Y-114705952D01*
X100357142Y-114658333D01*
X100595238Y-114658333D01*
X100690476Y-114705952D01*
X100738095Y-114753571D01*
X100785714Y-114848809D01*
X100785714Y-115086904D01*
X100738095Y-115182142D01*
X100690476Y-115229761D01*
X100595238Y-115277380D01*
X100357142Y-115277380D01*
X100261904Y-115229761D01*
X100214285Y-115182142D01*
G04 #@! TO.C,D4*
X92961904Y-109002380D02*
X92961904Y-108002380D01*
X93200000Y-108002380D01*
X93342857Y-108050000D01*
X93438095Y-108145238D01*
X93485714Y-108240476D01*
X93533333Y-108430952D01*
X93533333Y-108573809D01*
X93485714Y-108764285D01*
X93438095Y-108859523D01*
X93342857Y-108954761D01*
X93200000Y-109002380D01*
X92961904Y-109002380D01*
X94390476Y-108335714D02*
X94390476Y-109002380D01*
X94152380Y-107954761D02*
X93914285Y-108669047D01*
X94533333Y-108669047D01*
G04 #@! TO.C,D3*
X95661904Y-91452380D02*
X95661904Y-90452380D01*
X95900000Y-90452380D01*
X96042857Y-90500000D01*
X96138095Y-90595238D01*
X96185714Y-90690476D01*
X96233333Y-90880952D01*
X96233333Y-91023809D01*
X96185714Y-91214285D01*
X96138095Y-91309523D01*
X96042857Y-91404761D01*
X95900000Y-91452380D01*
X95661904Y-91452380D01*
X96566666Y-90452380D02*
X97185714Y-90452380D01*
X96852380Y-90833333D01*
X96995238Y-90833333D01*
X97090476Y-90880952D01*
X97138095Y-90928571D01*
X97185714Y-91023809D01*
X97185714Y-91261904D01*
X97138095Y-91357142D01*
X97090476Y-91404761D01*
X96995238Y-91452380D01*
X96709523Y-91452380D01*
X96614285Y-91404761D01*
X96566666Y-91357142D01*
G04 #@! TO.C,R2*
X95466666Y-93761904D02*
X95200000Y-93380952D01*
X95009523Y-93761904D02*
X95009523Y-92961904D01*
X95314285Y-92961904D01*
X95390476Y-93000000D01*
X95428571Y-93038095D01*
X95466666Y-93114285D01*
X95466666Y-93228571D01*
X95428571Y-93304761D01*
X95390476Y-93342857D01*
X95314285Y-93380952D01*
X95009523Y-93380952D01*
X95771428Y-93038095D02*
X95809523Y-93000000D01*
X95885714Y-92961904D01*
X96076190Y-92961904D01*
X96152380Y-93000000D01*
X96190476Y-93038095D01*
X96228571Y-93114285D01*
X96228571Y-93190476D01*
X96190476Y-93304761D01*
X95733333Y-93761904D01*
X96228571Y-93761904D01*
G04 #@! TO.C,C26*
X160257142Y-72592857D02*
X160304761Y-72640476D01*
X160352380Y-72783333D01*
X160352380Y-72878571D01*
X160304761Y-73021428D01*
X160209523Y-73116666D01*
X160114285Y-73164285D01*
X159923809Y-73211904D01*
X159780952Y-73211904D01*
X159590476Y-73164285D01*
X159495238Y-73116666D01*
X159400000Y-73021428D01*
X159352380Y-72878571D01*
X159352380Y-72783333D01*
X159400000Y-72640476D01*
X159447619Y-72592857D01*
X159447619Y-72211904D02*
X159400000Y-72164285D01*
X159352380Y-72069047D01*
X159352380Y-71830952D01*
X159400000Y-71735714D01*
X159447619Y-71688095D01*
X159542857Y-71640476D01*
X159638095Y-71640476D01*
X159780952Y-71688095D01*
X160352380Y-72259523D01*
X160352380Y-71640476D01*
X159352380Y-70783333D02*
X159352380Y-70973809D01*
X159400000Y-71069047D01*
X159447619Y-71116666D01*
X159590476Y-71211904D01*
X159780952Y-71259523D01*
X160161904Y-71259523D01*
X160257142Y-71211904D01*
X160304761Y-71164285D01*
X160352380Y-71069047D01*
X160352380Y-70878571D01*
X160304761Y-70783333D01*
X160257142Y-70735714D01*
X160161904Y-70688095D01*
X159923809Y-70688095D01*
X159828571Y-70735714D01*
X159780952Y-70783333D01*
X159733333Y-70878571D01*
X159733333Y-71069047D01*
X159780952Y-71164285D01*
X159828571Y-71211904D01*
X159923809Y-71259523D01*
G04 #@! TO.C,J2*
X98841666Y-125452380D02*
X98841666Y-126166666D01*
X98794047Y-126309523D01*
X98698809Y-126404761D01*
X98555952Y-126452380D01*
X98460714Y-126452380D01*
X99270238Y-125547619D02*
X99317857Y-125500000D01*
X99413095Y-125452380D01*
X99651190Y-125452380D01*
X99746428Y-125500000D01*
X99794047Y-125547619D01*
X99841666Y-125642857D01*
X99841666Y-125738095D01*
X99794047Y-125880952D01*
X99222619Y-126452380D01*
X99841666Y-126452380D01*
G04 #@! TO.C,U3*
X96488095Y-107702380D02*
X96488095Y-108511904D01*
X96535714Y-108607142D01*
X96583333Y-108654761D01*
X96678571Y-108702380D01*
X96869047Y-108702380D01*
X96964285Y-108654761D01*
X97011904Y-108607142D01*
X97059523Y-108511904D01*
X97059523Y-107702380D01*
X97440476Y-107702380D02*
X98059523Y-107702380D01*
X97726190Y-108083333D01*
X97869047Y-108083333D01*
X97964285Y-108130952D01*
X98011904Y-108178571D01*
X98059523Y-108273809D01*
X98059523Y-108511904D01*
X98011904Y-108607142D01*
X97964285Y-108654761D01*
X97869047Y-108702380D01*
X97583333Y-108702380D01*
X97488095Y-108654761D01*
X97440476Y-108607142D01*
G04 #@! TO.C,J3*
X104666666Y-83192380D02*
X104666666Y-83906666D01*
X104619047Y-84049523D01*
X104523809Y-84144761D01*
X104380952Y-84192380D01*
X104285714Y-84192380D01*
X105047619Y-83192380D02*
X105666666Y-83192380D01*
X105333333Y-83573333D01*
X105476190Y-83573333D01*
X105571428Y-83620952D01*
X105619047Y-83668571D01*
X105666666Y-83763809D01*
X105666666Y-84001904D01*
X105619047Y-84097142D01*
X105571428Y-84144761D01*
X105476190Y-84192380D01*
X105190476Y-84192380D01*
X105095238Y-84144761D01*
X105047619Y-84097142D01*
G04 #@! TO.C,J7*
X170752380Y-81633333D02*
X171466666Y-81633333D01*
X171609523Y-81680952D01*
X171704761Y-81776190D01*
X171752380Y-81919047D01*
X171752380Y-82014285D01*
X170752380Y-81252380D02*
X170752380Y-80585714D01*
X171752380Y-81014285D01*
G04 #@! TO.C,R21*
X95707142Y-110802380D02*
X95373809Y-110326190D01*
X95135714Y-110802380D02*
X95135714Y-109802380D01*
X95516666Y-109802380D01*
X95611904Y-109850000D01*
X95659523Y-109897619D01*
X95707142Y-109992857D01*
X95707142Y-110135714D01*
X95659523Y-110230952D01*
X95611904Y-110278571D01*
X95516666Y-110326190D01*
X95135714Y-110326190D01*
X96088095Y-109897619D02*
X96135714Y-109850000D01*
X96230952Y-109802380D01*
X96469047Y-109802380D01*
X96564285Y-109850000D01*
X96611904Y-109897619D01*
X96659523Y-109992857D01*
X96659523Y-110088095D01*
X96611904Y-110230952D01*
X96040476Y-110802380D01*
X96659523Y-110802380D01*
X97611904Y-110802380D02*
X97040476Y-110802380D01*
X97326190Y-110802380D02*
X97326190Y-109802380D01*
X97230952Y-109945238D01*
X97135714Y-110040476D01*
X97040476Y-110088095D01*
G04 #@! TO.C,D2*
X95661904Y-95652380D02*
X95661904Y-94652380D01*
X95900000Y-94652380D01*
X96042857Y-94700000D01*
X96138095Y-94795238D01*
X96185714Y-94890476D01*
X96233333Y-95080952D01*
X96233333Y-95223809D01*
X96185714Y-95414285D01*
X96138095Y-95509523D01*
X96042857Y-95604761D01*
X95900000Y-95652380D01*
X95661904Y-95652380D01*
X96614285Y-94747619D02*
X96661904Y-94700000D01*
X96757142Y-94652380D01*
X96995238Y-94652380D01*
X97090476Y-94700000D01*
X97138095Y-94747619D01*
X97185714Y-94842857D01*
X97185714Y-94938095D01*
X97138095Y-95080952D01*
X96566666Y-95652380D01*
X97185714Y-95652380D01*
D12*
G04 #@! TO.C,C12*
X111810000Y-115459420D02*
X111810000Y-115740580D01*
X110790000Y-115459420D02*
X110790000Y-115740580D01*
G04 #@! TO.C,D8*
X94500000Y-111315000D02*
X92215000Y-111315000D01*
X92215000Y-111315000D02*
X92215000Y-112785000D01*
X92215000Y-112785000D02*
X94500000Y-112785000D01*
G04 #@! TO.C,J8*
X173700000Y-95140000D02*
X173700000Y-93650000D01*
X173700000Y-93650000D02*
X175040000Y-93650000D01*
X173700000Y-106460000D02*
X172500000Y-106460000D01*
X173700000Y-106460000D02*
X173700000Y-107950000D01*
X179500000Y-107950000D02*
X179500000Y-93650000D01*
X179500000Y-93650000D02*
X177760000Y-93650000D01*
X177760000Y-107950000D02*
X179500000Y-107950000D01*
X173700000Y-107950000D02*
X175040000Y-107950000D01*
G04 #@! TO.C,R3*
X93546359Y-89580000D02*
X93853641Y-89580000D01*
X93546359Y-88820000D02*
X93853641Y-88820000D01*
G04 #@! TO.C,J9*
X96250000Y-82810000D02*
X96250000Y-84300000D01*
X96250000Y-75490000D02*
X97450000Y-75490000D01*
X92190000Y-74000000D02*
X90450000Y-74000000D01*
X96250000Y-84300000D02*
X94910000Y-84300000D01*
X96250000Y-75490000D02*
X96250000Y-74000000D01*
X90450000Y-74000000D02*
X90450000Y-84300000D01*
X96250000Y-74000000D02*
X94910000Y-74000000D01*
X90450000Y-84300000D02*
X92190000Y-84300000D01*
G04 #@! TO.C,D7*
X156550000Y-78950000D02*
X162250000Y-78950000D01*
X156550000Y-74650000D02*
X156550000Y-78950000D01*
X156550000Y-74650000D02*
X162250000Y-74650000D01*
G04 #@! TO.C,U5*
X106150000Y-120000000D02*
X106150000Y-119450000D01*
X104850000Y-119450000D02*
X105050000Y-119450000D01*
X104850000Y-120000000D02*
X104850000Y-119450000D01*
X106150000Y-119450000D02*
X105950000Y-119450000D01*
G04 #@! TO.C,U8*
X99500000Y-76000000D02*
X98200000Y-76000000D01*
X99500000Y-78800000D02*
X98500000Y-78800000D01*
G04 #@! TO.C,U10*
X108137500Y-74810000D02*
X108937500Y-74810000D01*
X108137500Y-71690000D02*
X106337500Y-71690000D01*
X108137500Y-74810000D02*
X107337500Y-74810000D01*
X108137500Y-71690000D02*
X108937500Y-71690000D01*
G04 #@! TO.C,R20*
X111480000Y-73096359D02*
X111480000Y-73403641D01*
X110720000Y-73096359D02*
X110720000Y-73403641D01*
G04 #@! TO.C,J1*
X124494493Y-120460000D02*
X124795000Y-120460000D01*
X123405000Y-118585000D02*
X123491724Y-118585000D01*
X124795000Y-118585000D02*
X124795000Y-120460000D01*
X124708276Y-118585000D02*
X124795000Y-118585000D01*
X123405000Y-117215000D02*
X124100000Y-117215000D01*
X123405000Y-118585000D02*
X123405000Y-120460000D01*
X123405000Y-120460000D02*
X123705507Y-120460000D01*
X123405000Y-117900000D02*
X123405000Y-117215000D01*
G04 #@! TO.C,D1*
X94500000Y-100865000D02*
X92215000Y-100865000D01*
X92215000Y-102335000D02*
X94500000Y-102335000D01*
X92215000Y-100865000D02*
X92215000Y-102335000D01*
G04 #@! TO.C,U1*
X150070000Y-88600000D02*
X150070000Y-89600000D01*
X150070000Y-88600000D02*
X153850000Y-88600000D01*
X155000000Y-121500000D02*
X155000000Y-73500000D01*
X150070000Y-111400000D02*
X153850000Y-111400000D01*
X115000000Y-73500000D02*
X115000000Y-121500000D01*
X118500000Y-125000000D02*
X151500000Y-125000000D01*
X153850000Y-111400000D02*
X153850000Y-110400000D01*
X116150000Y-88600000D02*
X119930000Y-88600000D01*
X153850000Y-88600000D02*
X153850000Y-89600000D01*
X150070000Y-111400000D02*
X150070000Y-110400000D01*
X116150000Y-111400000D02*
X116150000Y-110400000D01*
X116150000Y-111400000D02*
X119930000Y-111400000D01*
X119930000Y-111400000D02*
X119930000Y-110400000D01*
X151500000Y-70000000D02*
X118500000Y-70000000D01*
X115000000Y-73500000D02*
G75*
G02*
X118500000Y-70000000I3500000J0D01*
G01*
X155000000Y-121500000D02*
G75*
G02*
X151500000Y-125000000I-3500000J0D01*
G01*
X118500000Y-125000000D02*
G75*
G02*
X115000000Y-121500000I0J3500000D01*
G01*
X151500000Y-70000000D02*
G75*
G02*
X155000000Y-73500000I0J-3500000D01*
G01*
G04 #@! TO.C,U9*
X99500000Y-79500000D02*
X98200000Y-79500000D01*
X99500000Y-82300000D02*
X98500000Y-82300000D01*
G04 #@! TO.C,R1*
X93546359Y-100230000D02*
X93853641Y-100230000D01*
X93546359Y-99470000D02*
X93853641Y-99470000D01*
G04 #@! TO.C,J5*
X163235000Y-110195000D02*
X163235000Y-110260000D01*
X166765000Y-110195000D02*
X166765000Y-110260000D01*
X163235000Y-110260000D02*
X166765000Y-110260000D01*
X161910000Y-84805000D02*
X163235000Y-84805000D01*
X163235000Y-84740000D02*
X166765000Y-84740000D01*
X163235000Y-84740000D02*
X163235000Y-84805000D01*
X166765000Y-84740000D02*
X166765000Y-84805000D01*
G04 #@! TO.C,R4*
X93646359Y-105680000D02*
X93953641Y-105680000D01*
X93646359Y-104920000D02*
X93953641Y-104920000D01*
G04 #@! TO.C,C27*
X106311252Y-70465000D02*
X105788748Y-70465000D01*
X106311252Y-68995000D02*
X105788748Y-68995000D01*
G04 #@! TO.C,D5*
X109050000Y-116975000D02*
X103350000Y-116975000D01*
X109050000Y-116975000D02*
X109050000Y-112675000D01*
X109050000Y-112675000D02*
X103350000Y-112675000D01*
G04 #@! TO.C,D4*
X94500000Y-106215000D02*
X92215000Y-106215000D01*
X92215000Y-107685000D02*
X94500000Y-107685000D01*
X92215000Y-106215000D02*
X92215000Y-107685000D01*
G04 #@! TO.C,D3*
X92215000Y-90265000D02*
X92215000Y-91735000D01*
X92215000Y-91735000D02*
X94500000Y-91735000D01*
X94500000Y-90265000D02*
X92215000Y-90265000D01*
G04 #@! TO.C,R2*
X93546359Y-93780000D02*
X93853641Y-93780000D01*
X93546359Y-93020000D02*
X93853641Y-93020000D01*
G04 #@! TO.C,C26*
X157165000Y-72211252D02*
X157165000Y-71688748D01*
X158635000Y-72211252D02*
X158635000Y-71688748D01*
G04 #@! TO.C,JP2*
X124100000Y-93500000D02*
X124100000Y-94100000D01*
X121300000Y-94100000D02*
X121300000Y-93500000D01*
X122000000Y-92800000D02*
X123400000Y-92800000D01*
X123400000Y-94800000D02*
X122000000Y-94800000D01*
X123400000Y-92800000D02*
G75*
G02*
X124100000Y-93500000I0J-700000D01*
G01*
X124100000Y-94100000D02*
G75*
G02*
X123400000Y-94800000I-700000J0D01*
G01*
X121300000Y-93500000D02*
G75*
G02*
X122000000Y-92800000I700000J0D01*
G01*
X122000000Y-94800000D02*
G75*
G02*
X121300000Y-94100000I0J700000D01*
G01*
G04 #@! TO.C,JP4*
X114650000Y-107900000D02*
X114650000Y-108500000D01*
X113950000Y-109200000D02*
X112550000Y-109200000D01*
X111850000Y-108500000D02*
X111850000Y-107900000D01*
X112550000Y-107200000D02*
X113950000Y-107200000D01*
X113950000Y-107200000D02*
G75*
G02*
X114650000Y-107900000I0J-700000D01*
G01*
X112550000Y-109200000D02*
G75*
G02*
X111850000Y-108500000I0J700000D01*
G01*
X111850000Y-107900000D02*
G75*
G02*
X112550000Y-107200000I700000J0D01*
G01*
X114650000Y-108500000D02*
G75*
G02*
X113950000Y-109200000I-700000J0D01*
G01*
G04 #@! TO.C,J2*
X100920000Y-124150000D02*
X100920000Y-126070000D01*
X110080000Y-129785000D02*
X100920000Y-129785000D01*
X110080000Y-126070000D02*
X110080000Y-124150000D01*
X110080000Y-128080000D02*
X110080000Y-129785000D01*
X100920000Y-129785000D02*
X100920000Y-128080000D01*
G04 #@! TO.C,U3*
X97950000Y-105090000D02*
X96550000Y-105090000D01*
X96550000Y-107410000D02*
X98450000Y-107410000D01*
G04 #@! TO.C,J3*
X103235000Y-110260000D02*
X106765000Y-110260000D01*
X101910000Y-84805000D02*
X103235000Y-84805000D01*
X103235000Y-110195000D02*
X103235000Y-110260000D01*
X103235000Y-84740000D02*
X103235000Y-84805000D01*
X103235000Y-84740000D02*
X106765000Y-84740000D01*
X106765000Y-110195000D02*
X106765000Y-110260000D01*
X106765000Y-84740000D02*
X106765000Y-84805000D01*
G04 #@! TO.C,J7*
X177760000Y-88450000D02*
X179500000Y-88450000D01*
X173700000Y-86960000D02*
X173700000Y-88450000D01*
X173700000Y-86960000D02*
X172500000Y-86960000D01*
X179500000Y-88450000D02*
X179500000Y-74150000D01*
X173700000Y-88450000D02*
X175040000Y-88450000D01*
X173700000Y-75640000D02*
X173700000Y-74150000D01*
X173700000Y-74150000D02*
X175040000Y-74150000D01*
X179500000Y-74150000D02*
X177760000Y-74150000D01*
G04 #@! TO.C,JP3*
X113950000Y-106650000D02*
X112550000Y-106650000D01*
X114650000Y-105350000D02*
X114650000Y-105950000D01*
X112550000Y-104650000D02*
X113950000Y-104650000D01*
X111850000Y-105950000D02*
X111850000Y-105350000D01*
X112550000Y-106650000D02*
G75*
G02*
X111850000Y-105950000I0J700000D01*
G01*
X114650000Y-105950000D02*
G75*
G02*
X113950000Y-106650000I-700000J0D01*
G01*
X111850000Y-105350000D02*
G75*
G02*
X112550000Y-104650000I700000J0D01*
G01*
X113950000Y-104650000D02*
G75*
G02*
X114650000Y-105350000I0J-700000D01*
G01*
G04 #@! TO.C,R21*
X93546359Y-109970000D02*
X93853641Y-109970000D01*
X93546359Y-110730000D02*
X93853641Y-110730000D01*
G04 #@! TO.C,JP1*
X113950000Y-111750000D02*
X112550000Y-111750000D01*
X111850000Y-111050000D02*
X111850000Y-110450000D01*
X114650000Y-110450000D02*
X114650000Y-111050000D01*
X112550000Y-109750000D02*
X113950000Y-109750000D01*
X113950000Y-109750000D02*
G75*
G02*
X114650000Y-110450000I0J-700000D01*
G01*
X111850000Y-110450000D02*
G75*
G02*
X112550000Y-109750000I700000J0D01*
G01*
X112550000Y-111750000D02*
G75*
G02*
X111850000Y-111050000I0J700000D01*
G01*
X114650000Y-111050000D02*
G75*
G02*
X113950000Y-111750000I-700000J0D01*
G01*
G04 #@! TO.C,D2*
X92215000Y-95935000D02*
X94500000Y-95935000D01*
X92215000Y-94465000D02*
X92215000Y-95935000D01*
X94500000Y-94465000D02*
X92215000Y-94465000D01*
G04 #@! TD*
M02*
