G04 #@! TF.GenerationSoftware,KiCad,Pcbnew,(5.99.0-10720-gd84fcd89f1)*
G04 #@! TF.CreationDate,2021-06-08T11:49:26-04:00*
G04 #@! TF.ProjectId,FlySensei_Stack_RPi_ECAD,466c7953-656e-4736-9569-5f537461636b,0.1*
G04 #@! TF.SameCoordinates,Original*
G04 #@! TF.FileFunction,Soldermask,Top*
G04 #@! TF.FilePolarity,Negative*
%FSLAX46Y46*%
G04 Gerber Fmt 4.6, Leading zero omitted, Abs format (unit mm)*
G04 Created by KiCad (PCBNEW (5.99.0-10720-gd84fcd89f1)) date 2021-06-08 11:49:26*
%MOMM*%
%LPD*%
G01*
G04 APERTURE LIST*
G04 Aperture macros list*
%AMRoundRect*
0 Rectangle with rounded corners*
0 $1 Rounding radius*
0 $2 $3 $4 $5 $6 $7 $8 $9 X,Y pos of 4 corners*
0 Add a 4 corners polygon primitive as box body*
4,1,4,$2,$3,$4,$5,$6,$7,$8,$9,$2,$3,0*
0 Add four circle primitives for the rounded corners*
1,1,$1+$1,$2,$3*
1,1,$1+$1,$4,$5*
1,1,$1+$1,$6,$7*
1,1,$1+$1,$8,$9*
0 Add four rect primitives between the rounded corners*
20,1,$1+$1,$2,$3,$4,$5,0*
20,1,$1+$1,$4,$5,$6,$7,0*
20,1,$1+$1,$6,$7,$8,$9,0*
20,1,$1+$1,$8,$9,$2,$3,0*%
%AMFreePoly0*
4,1,22,0.500000,-0.750000,0.000000,-0.750000,0.000000,-0.745033,-0.079941,-0.743568,-0.215256,-0.701293,-0.333266,-0.622738,-0.424486,-0.514219,-0.481581,-0.384460,-0.499164,-0.250000,-0.500000,-0.250000,-0.500000,0.250000,-0.499164,0.250000,-0.499963,0.256109,-0.478152,0.396186,-0.417904,0.524511,-0.324060,0.630769,-0.204165,0.706417,-0.067858,0.745374,0.000000,0.744959,0.000000,0.750000,
0.500000,0.750000,0.500000,-0.750000,0.500000,-0.750000,$1*%
%AMFreePoly1*
4,1,20,0.000000,0.744959,0.073905,0.744508,0.209726,0.703889,0.328688,0.626782,0.421226,0.519385,0.479903,0.390333,0.500000,0.250000,0.500000,-0.250000,0.499851,-0.262216,0.476331,-0.402017,0.414519,-0.529596,0.319384,-0.634700,0.198574,-0.708877,0.061801,-0.746166,0.000000,-0.745033,0.000000,-0.750000,-0.500000,-0.750000,-0.500000,0.750000,0.000000,0.750000,0.000000,0.744959,
0.000000,0.744959,$1*%
G04 Aperture macros list end*
G04 #@! TA.AperFunction,Profile*
%ADD10C,0.100000*%
G04 #@! TD*
%ADD11RoundRect,0.225000X-0.250000X0.225000X-0.250000X-0.225000X0.250000X-0.225000X0.250000X0.225000X0*%
%ADD12RoundRect,0.218750X-0.218750X-0.256250X0.218750X-0.256250X0.218750X0.256250X-0.218750X0.256250X0*%
%ADD13R,1.300000X0.300000*%
%ADD14R,2.200000X1.800000*%
%ADD15RoundRect,0.135000X-0.135000X-0.185000X0.135000X-0.185000X0.135000X0.185000X-0.135000X0.185000X0*%
%ADD16R,2.500000X2.300000*%
%ADD17R,0.300000X0.300000*%
%ADD18R,0.550000X0.300000*%
%ADD19R,0.550000X0.400000*%
%ADD20RoundRect,0.150000X-0.512500X-0.150000X0.512500X-0.150000X0.512500X0.150000X-0.512500X0.150000X0*%
%ADD21RoundRect,0.135000X-0.185000X0.135000X-0.185000X-0.135000X0.185000X-0.135000X0.185000X0.135000X0*%
%ADD22C,0.800000*%
%ADD23C,5.400000*%
%ADD24R,0.850000X0.850000*%
%ADD25O,0.850000X0.850000*%
%ADD26C,6.100000*%
%ADD27R,0.700000X0.200000*%
%ADD28R,2.400000X0.740000*%
%ADD29RoundRect,0.250000X0.250000X0.475000X-0.250000X0.475000X-0.250000X-0.475000X0.250000X-0.475000X0*%
%ADD30RoundRect,0.250000X0.475000X-0.250000X0.475000X0.250000X-0.475000X0.250000X-0.475000X-0.250000X0*%
%ADD31FreePoly0,180.000000*%
%ADD32FreePoly1,180.000000*%
%ADD33FreePoly0,0.000000*%
%ADD34FreePoly1,0.000000*%
%ADD35C,0.650000*%
%ADD36R,0.300000X1.150000*%
%ADD37O,1.000000X1.600000*%
%ADD38O,1.000000X2.100000*%
%ADD39R,0.650000X0.400000*%
%ADD40C,0.900000*%
%ADD41C,0.750000*%
G04 APERTURE END LIST*
D10*
X128750000Y-128250000D02*
X131650000Y-128250000D01*
X138900000Y-128200000D02*
X137100000Y-130000000D01*
X131650000Y-128250000D02*
X133400000Y-130000000D01*
X91700000Y-118100000D02*
X90000000Y-119800000D01*
X91700000Y-115700000D02*
X90000000Y-114000000D01*
X90000000Y-119800000D02*
X90000000Y-126000000D01*
X127000000Y-130000000D02*
X94000000Y-130000000D01*
X180000000Y-69000000D02*
X180000000Y-126000000D01*
X180000000Y-69000000D02*
G75*
G03*
X176000000Y-65000000I-4000000J0D01*
G01*
X94000000Y-65000000D02*
X176000000Y-65000000D01*
X128750000Y-128250000D02*
X127000000Y-130000000D01*
X138900000Y-128200000D02*
X141300000Y-128200000D01*
X90000000Y-126000000D02*
G75*
G03*
X94000000Y-130000000I4000000J0D01*
G01*
X94000000Y-65000000D02*
G75*
G03*
X90000000Y-69000000I0J-4000000D01*
G01*
X176000000Y-130000000D02*
G75*
G03*
X180000000Y-126000000I0J4000000D01*
G01*
X91700000Y-115700000D02*
X91700000Y-118100000D01*
X141300000Y-128200000D02*
X143100000Y-130000000D01*
X90000000Y-114000000D02*
X90000000Y-69000000D01*
X133400000Y-130000000D02*
X137100000Y-130000000D01*
X143100000Y-130000000D02*
X176000000Y-130000000D01*
D11*
G04 #@! TO.C,C12*
X111300000Y-114825000D03*
X111300000Y-116375000D03*
G04 #@! TD*
D12*
G04 #@! TO.C,D8*
X92912500Y-112050000D03*
X94487500Y-112050000D03*
G04 #@! TD*
D13*
G04 #@! TO.C,J8*
X173150000Y-106050000D03*
X173150000Y-105550000D03*
X173150000Y-105050000D03*
X173150000Y-104550000D03*
X173150000Y-104050000D03*
X173150000Y-103550000D03*
X173150000Y-103050000D03*
X173150000Y-102550000D03*
X173150000Y-102050000D03*
X173150000Y-101550000D03*
X173150000Y-101050000D03*
X173150000Y-100550000D03*
X173150000Y-100050000D03*
X173150000Y-99550000D03*
X173150000Y-99050000D03*
X173150000Y-98550000D03*
X173150000Y-98050000D03*
X173150000Y-97550000D03*
X173150000Y-97050000D03*
X173150000Y-96550000D03*
X173150000Y-96050000D03*
X173150000Y-95550000D03*
D14*
X176400000Y-93650000D03*
X176400000Y-107950000D03*
G04 #@! TD*
D15*
G04 #@! TO.C,R3*
X93190000Y-89200000D03*
X94210000Y-89200000D03*
G04 #@! TD*
D13*
G04 #@! TO.C,J9*
X96800000Y-75900000D03*
X96800000Y-76400000D03*
X96800000Y-76900000D03*
X96800000Y-77400000D03*
X96800000Y-77900000D03*
X96800000Y-78400000D03*
X96800000Y-78900000D03*
X96800000Y-79400000D03*
X96800000Y-79900000D03*
X96800000Y-80400000D03*
X96800000Y-80900000D03*
X96800000Y-81400000D03*
X96800000Y-81900000D03*
X96800000Y-82400000D03*
D14*
X93550000Y-84300000D03*
X93550000Y-74000000D03*
G04 #@! TD*
D16*
G04 #@! TO.C,D7*
X157950000Y-76800000D03*
X162250000Y-76800000D03*
G04 #@! TD*
D17*
G04 #@! TO.C,U5*
X105150000Y-120425000D03*
X105850000Y-120425000D03*
X105500000Y-119575000D03*
G04 #@! TD*
D18*
G04 #@! TO.C,U8*
X98615000Y-76400000D03*
X98615000Y-76900000D03*
D19*
X98615000Y-77400000D03*
D18*
X98615000Y-77900000D03*
X98615000Y-78400000D03*
X99385000Y-78400000D03*
X99385000Y-77900000D03*
D19*
X99385000Y-77400000D03*
D18*
X99385000Y-76900000D03*
X99385000Y-76400000D03*
G04 #@! TD*
D20*
G04 #@! TO.C,U10*
X107000000Y-72300000D03*
X107000000Y-73250000D03*
X107000000Y-74200000D03*
X109275000Y-74200000D03*
X109275000Y-72300000D03*
G04 #@! TD*
D21*
G04 #@! TO.C,R20*
X111100000Y-72740000D03*
X111100000Y-73760000D03*
G04 #@! TD*
D22*
G04 #@! TO.C,H1*
X95431891Y-127431891D03*
X94000000Y-128025000D03*
D23*
X94000000Y-126000000D03*
D22*
X95431891Y-124568109D03*
X92568109Y-127431891D03*
X92568109Y-124568109D03*
X96025000Y-126000000D03*
X94000000Y-123975000D03*
X91975000Y-126000000D03*
G04 #@! TD*
G04 #@! TO.C,H3*
X178025000Y-69000000D03*
X177431891Y-70431891D03*
X174568109Y-70431891D03*
X176000000Y-71025000D03*
X176000000Y-66975000D03*
D23*
X176000000Y-69000000D03*
D22*
X174568109Y-67568109D03*
X173975000Y-69000000D03*
X177431891Y-67568109D03*
G04 #@! TD*
D24*
G04 #@! TO.C,J1*
X124100000Y-117900000D03*
D25*
X124100000Y-118900000D03*
X124100000Y-119900000D03*
G04 #@! TD*
D12*
G04 #@! TO.C,D1*
X92912500Y-101600000D03*
X94487500Y-101600000D03*
G04 #@! TD*
D26*
G04 #@! TO.C,U1*
X151500000Y-121500000D03*
X151500000Y-73500000D03*
X118500000Y-73500000D03*
X118500000Y-121500000D03*
D27*
X116500000Y-90200000D03*
X119580000Y-90200000D03*
X116500000Y-90600000D03*
X119580000Y-90600000D03*
X116500000Y-91000000D03*
X119580000Y-91000000D03*
X116500000Y-91400000D03*
X119580000Y-91400000D03*
X116500000Y-91800000D03*
X119580000Y-91800000D03*
X116500000Y-92200000D03*
X119580000Y-92200000D03*
X116500000Y-92600000D03*
X119580000Y-92600000D03*
X116500000Y-93000000D03*
X119580000Y-93000000D03*
X116500000Y-93400000D03*
X119580000Y-93400000D03*
X116500000Y-93800000D03*
X119580000Y-93800000D03*
X116500000Y-94200000D03*
X119580000Y-94200000D03*
X116500000Y-94600000D03*
X119580000Y-94600000D03*
X116500000Y-95000000D03*
X119580000Y-95000000D03*
X116500000Y-95400000D03*
X119580000Y-95400000D03*
X116500000Y-95800000D03*
X119580000Y-95800000D03*
X116500000Y-96200000D03*
X119580000Y-96200000D03*
X116500000Y-96600000D03*
X119580000Y-96600000D03*
X116500000Y-97000000D03*
X119580000Y-97000000D03*
X116500000Y-97400000D03*
X119580000Y-97400000D03*
X116500000Y-97800000D03*
X119580000Y-97800000D03*
X116500000Y-98200000D03*
X119580000Y-98200000D03*
X116500000Y-98600000D03*
X119580000Y-98600000D03*
X116500000Y-99000000D03*
X119580000Y-99000000D03*
X116500000Y-99400000D03*
X119580000Y-99400000D03*
X116500000Y-99800000D03*
X119580000Y-99800000D03*
X116500000Y-100200000D03*
X119580000Y-100200000D03*
X116500000Y-100600000D03*
X119580000Y-100600000D03*
X116500000Y-101000000D03*
X119580000Y-101000000D03*
X116500000Y-101400000D03*
X119580000Y-101400000D03*
X116500000Y-101800000D03*
X119580000Y-101800000D03*
X116500000Y-102200000D03*
X119580000Y-102200000D03*
X116500000Y-102600000D03*
X119580000Y-102600000D03*
X116500000Y-103000000D03*
X119580000Y-103000000D03*
X116500000Y-103400000D03*
X119580000Y-103400000D03*
X116500000Y-103800000D03*
X119580000Y-103800000D03*
X116500000Y-104200000D03*
X119580000Y-104200000D03*
X116500000Y-104600000D03*
X119580000Y-104600000D03*
X116500000Y-105000000D03*
X119580000Y-105000000D03*
X116500000Y-105400000D03*
X119580000Y-105400000D03*
X116500000Y-105800000D03*
X119580000Y-105800000D03*
X116500000Y-106200000D03*
X119580000Y-106200000D03*
X116500000Y-106600000D03*
X119580000Y-106600000D03*
X116500000Y-107000000D03*
X119580000Y-107000000D03*
X116500000Y-107400000D03*
X119580000Y-107400000D03*
X116500000Y-107800000D03*
X119580000Y-107800000D03*
X116500000Y-108200000D03*
X119580000Y-108200000D03*
X116500000Y-108600000D03*
X119580000Y-108600000D03*
X116500000Y-109000000D03*
X119580000Y-109000000D03*
X116500000Y-109400000D03*
X119580000Y-109400000D03*
X116500000Y-109800000D03*
X119580000Y-109800000D03*
X150420000Y-90200000D03*
X153500000Y-90200000D03*
X150420000Y-90600000D03*
X153500000Y-90600000D03*
X150420000Y-91000000D03*
X153500000Y-91000000D03*
X150420000Y-91400000D03*
X153500000Y-91400000D03*
X150420000Y-91800000D03*
X153500000Y-91800000D03*
X150420000Y-92200000D03*
X153500000Y-92200000D03*
X150420000Y-92600000D03*
X153500000Y-92600000D03*
X150420000Y-93000000D03*
X153500000Y-93000000D03*
X150420000Y-93400000D03*
X153500000Y-93400000D03*
X150420000Y-93800000D03*
X153500000Y-93800000D03*
X150420000Y-94200000D03*
X153500000Y-94200000D03*
X150420000Y-94600000D03*
X153500000Y-94600000D03*
X150420000Y-95000000D03*
X153500000Y-95000000D03*
X150420000Y-95400000D03*
X153500000Y-95400000D03*
X150420000Y-95800000D03*
X153500000Y-95800000D03*
X150420000Y-96200000D03*
X153500000Y-96200000D03*
X150420000Y-96600000D03*
X153500000Y-96600000D03*
X150420000Y-97000000D03*
X153500000Y-97000000D03*
X150420000Y-97400000D03*
X153500000Y-97400000D03*
X150420000Y-97800000D03*
X153500000Y-97800000D03*
X150420000Y-98200000D03*
X153500000Y-98200000D03*
X150420000Y-98600000D03*
X153500000Y-98600000D03*
X150420000Y-99000000D03*
X153500000Y-99000000D03*
X150420000Y-99400000D03*
X153500000Y-99400000D03*
X150420000Y-99800000D03*
X153500000Y-99800000D03*
X150420000Y-100200000D03*
X153500000Y-100200000D03*
X150420000Y-100600000D03*
X153500000Y-100600000D03*
X150420000Y-101000000D03*
X153500000Y-101000000D03*
X150420000Y-101400000D03*
X153500000Y-101400000D03*
X150420000Y-101800000D03*
X153500000Y-101800000D03*
X150420000Y-102200000D03*
X153500000Y-102200000D03*
X150420000Y-102600000D03*
X153500000Y-102600000D03*
X150420000Y-103000000D03*
X153500000Y-103000000D03*
X150420000Y-103400000D03*
X153500000Y-103400000D03*
X150420000Y-103800000D03*
X153500000Y-103800000D03*
X150420000Y-104200000D03*
X153500000Y-104200000D03*
X150420000Y-104600000D03*
X153500000Y-104600000D03*
X150420000Y-105000000D03*
X153500000Y-105000000D03*
X150420000Y-105400000D03*
X153500000Y-105400000D03*
X150420000Y-105800000D03*
X153500000Y-105800000D03*
X150420000Y-106200000D03*
X153500000Y-106200000D03*
X150420000Y-106600000D03*
X153500000Y-106600000D03*
X150420000Y-107000000D03*
X153500000Y-107000000D03*
X150420000Y-107400000D03*
X153500000Y-107400000D03*
X150420000Y-107800000D03*
X153500000Y-107800000D03*
X150420000Y-108200000D03*
X153500000Y-108200000D03*
X150420000Y-108600000D03*
X153500000Y-108600000D03*
X150420000Y-109000000D03*
X153500000Y-109000000D03*
X150420000Y-109400000D03*
X153500000Y-109400000D03*
X150420000Y-109800000D03*
X153500000Y-109800000D03*
G04 #@! TD*
D18*
G04 #@! TO.C,U9*
X98615000Y-79900000D03*
X98615000Y-80400000D03*
D19*
X98615000Y-80900000D03*
D18*
X98615000Y-81400000D03*
X98615000Y-81900000D03*
X99385000Y-81900000D03*
X99385000Y-81400000D03*
D19*
X99385000Y-80900000D03*
D18*
X99385000Y-80400000D03*
X99385000Y-79900000D03*
G04 #@! TD*
D15*
G04 #@! TO.C,R1*
X93190000Y-99850000D03*
X94210000Y-99850000D03*
G04 #@! TD*
D22*
G04 #@! TO.C,H2*
X94000000Y-71025000D03*
X94000000Y-66975000D03*
X92568109Y-70431891D03*
X95431891Y-67568109D03*
X96025000Y-69000000D03*
D23*
X94000000Y-69000000D03*
D22*
X92568109Y-67568109D03*
X91975000Y-69000000D03*
X95431891Y-70431891D03*
G04 #@! TD*
G04 #@! TO.C,H4*
X176000000Y-128025000D03*
X174568109Y-127431891D03*
X178025000Y-126000000D03*
X177431891Y-127431891D03*
X177431891Y-124568109D03*
D23*
X176000000Y-126000000D03*
D22*
X173975000Y-126000000D03*
X176000000Y-123975000D03*
X174568109Y-124568109D03*
G04 #@! TD*
D28*
G04 #@! TO.C,J5*
X163050000Y-85435000D03*
X166950000Y-85435000D03*
X163050000Y-86705000D03*
X166950000Y-86705000D03*
X163050000Y-87975000D03*
X166950000Y-87975000D03*
X163050000Y-89245000D03*
X166950000Y-89245000D03*
X163050000Y-90515000D03*
X166950000Y-90515000D03*
X163050000Y-91785000D03*
X166950000Y-91785000D03*
X163050000Y-93055000D03*
X166950000Y-93055000D03*
X163050000Y-94325000D03*
X166950000Y-94325000D03*
X163050000Y-95595000D03*
X166950000Y-95595000D03*
X163050000Y-96865000D03*
X166950000Y-96865000D03*
X163050000Y-98135000D03*
X166950000Y-98135000D03*
X163050000Y-99405000D03*
X166950000Y-99405000D03*
X163050000Y-100675000D03*
X166950000Y-100675000D03*
X163050000Y-101945000D03*
X166950000Y-101945000D03*
X163050000Y-103215000D03*
X166950000Y-103215000D03*
X163050000Y-104485000D03*
X166950000Y-104485000D03*
X163050000Y-105755000D03*
X166950000Y-105755000D03*
X163050000Y-107025000D03*
X166950000Y-107025000D03*
X163050000Y-108295000D03*
X166950000Y-108295000D03*
X163050000Y-109565000D03*
X166950000Y-109565000D03*
G04 #@! TD*
D15*
G04 #@! TO.C,R4*
X93290000Y-105300000D03*
X94310000Y-105300000D03*
G04 #@! TD*
D29*
G04 #@! TO.C,C27*
X107000000Y-69730000D03*
X105100000Y-69730000D03*
G04 #@! TD*
D16*
G04 #@! TO.C,D5*
X107650000Y-114825000D03*
X103350000Y-114825000D03*
G04 #@! TD*
D12*
G04 #@! TO.C,D4*
X92912500Y-106950000D03*
X94487500Y-106950000D03*
G04 #@! TD*
G04 #@! TO.C,D3*
X92912500Y-91000000D03*
X94487500Y-91000000D03*
G04 #@! TD*
D15*
G04 #@! TO.C,R2*
X93190000Y-93400000D03*
X94210000Y-93400000D03*
G04 #@! TD*
D30*
G04 #@! TO.C,C26*
X157900000Y-72900000D03*
X157900000Y-71000000D03*
G04 #@! TD*
D31*
G04 #@! TO.C,JP2*
X123350000Y-93800000D03*
D32*
X122050000Y-93800000D03*
G04 #@! TD*
D33*
G04 #@! TO.C,JP4*
X112600000Y-108200000D03*
D34*
X113900000Y-108200000D03*
G04 #@! TD*
D35*
G04 #@! TO.C,J2*
X108390000Y-123395000D03*
X102610000Y-123395000D03*
D36*
X102150000Y-122330000D03*
X102950000Y-122330000D03*
X104250000Y-122330000D03*
X105250000Y-122330000D03*
X105750000Y-122330000D03*
X106750000Y-122330000D03*
X108050000Y-122330000D03*
X108850000Y-122330000D03*
X108550000Y-122330000D03*
X107750000Y-122330000D03*
X107250000Y-122330000D03*
X106250000Y-122330000D03*
X104750000Y-122330000D03*
X103750000Y-122330000D03*
X103250000Y-122330000D03*
X102450000Y-122330000D03*
D37*
X109820000Y-127075000D03*
D38*
X101180000Y-122895000D03*
D37*
X101180000Y-127075000D03*
D38*
X109820000Y-122895000D03*
G04 #@! TD*
D39*
G04 #@! TO.C,U3*
X98200000Y-106900000D03*
X98200000Y-106250000D03*
X98200000Y-105600000D03*
X96300000Y-105600000D03*
X96300000Y-106900000D03*
G04 #@! TD*
D28*
G04 #@! TO.C,J3*
X103050000Y-85435000D03*
X106950000Y-85435000D03*
X103050000Y-86705000D03*
X106950000Y-86705000D03*
X103050000Y-87975000D03*
X106950000Y-87975000D03*
X103050000Y-89245000D03*
X106950000Y-89245000D03*
X103050000Y-90515000D03*
X106950000Y-90515000D03*
X103050000Y-91785000D03*
X106950000Y-91785000D03*
X103050000Y-93055000D03*
X106950000Y-93055000D03*
X103050000Y-94325000D03*
X106950000Y-94325000D03*
X103050000Y-95595000D03*
X106950000Y-95595000D03*
X103050000Y-96865000D03*
X106950000Y-96865000D03*
X103050000Y-98135000D03*
X106950000Y-98135000D03*
X103050000Y-99405000D03*
X106950000Y-99405000D03*
X103050000Y-100675000D03*
X106950000Y-100675000D03*
X103050000Y-101945000D03*
X106950000Y-101945000D03*
X103050000Y-103215000D03*
X106950000Y-103215000D03*
X103050000Y-104485000D03*
X106950000Y-104485000D03*
X103050000Y-105755000D03*
X106950000Y-105755000D03*
X103050000Y-107025000D03*
X106950000Y-107025000D03*
X103050000Y-108295000D03*
X106950000Y-108295000D03*
X103050000Y-109565000D03*
X106950000Y-109565000D03*
G04 #@! TD*
D13*
G04 #@! TO.C,J7*
X173150000Y-86550000D03*
X173150000Y-86050000D03*
X173150000Y-85550000D03*
X173150000Y-85050000D03*
X173150000Y-84550000D03*
X173150000Y-84050000D03*
X173150000Y-83550000D03*
X173150000Y-83050000D03*
X173150000Y-82550000D03*
X173150000Y-82050000D03*
X173150000Y-81550000D03*
X173150000Y-81050000D03*
X173150000Y-80550000D03*
X173150000Y-80050000D03*
X173150000Y-79550000D03*
X173150000Y-79050000D03*
X173150000Y-78550000D03*
X173150000Y-78050000D03*
X173150000Y-77550000D03*
X173150000Y-77050000D03*
X173150000Y-76550000D03*
X173150000Y-76050000D03*
D14*
X176400000Y-88450000D03*
X176400000Y-74150000D03*
G04 #@! TD*
D33*
G04 #@! TO.C,JP3*
X112600000Y-105650000D03*
D34*
X113900000Y-105650000D03*
G04 #@! TD*
D15*
G04 #@! TO.C,R21*
X93190000Y-110350000D03*
X94210000Y-110350000D03*
G04 #@! TD*
D33*
G04 #@! TO.C,JP1*
X112600000Y-110750000D03*
D34*
X113900000Y-110750000D03*
G04 #@! TD*
D12*
G04 #@! TO.C,D2*
X92912500Y-95200000D03*
X94487500Y-95200000D03*
G04 #@! TD*
D40*
G04 #@! TO.C,SW3*
X138600000Y-126855000D03*
X141600000Y-126855000D03*
G04 #@! TD*
D41*
G04 #@! TO.C,SW1*
X130200000Y-127775000D03*
X130200000Y-125025000D03*
G04 #@! TD*
D40*
G04 #@! TO.C,SW2*
X93045000Y-115400000D03*
X93045000Y-118400000D03*
G04 #@! TD*
M02*
