M48
; DRILL file {KiCad (5.99.0-10720-gd84fcd89f1)} date Monday, June 07, 2021 at 03:37:40 PM
; FORMAT={-:-/ absolute / inch / decimal}
; #@! TF.CreationDate,2021-06-07T15:37:40-04:00
; #@! TF.GenerationSoftware,Kicad,Pcbnew,(5.99.0-10720-gd84fcd89f1)
; #@! TF.FileFunction,Plated,1,4,PTH
FMAT,2
INCH
; #@! TA.AperFunction,Plated,PTH,ViaDrill
T1C0.0079
; #@! TA.AperFunction,Plated,PTH,ComponentDrill
T2C0.0079
; #@! TA.AperFunction,Plated,PTH,ViaDrill
T3C0.0098
; #@! TA.AperFunction,Plated,PTH,ViaDrill
T4C0.0118
; #@! TA.AperFunction,Plated,PTH,ViaDrill
T5C0.0157
; #@! TA.AperFunction,Plated,PTH,ViaDrill
T6C0.0197
; #@! TA.AperFunction,Plated,PTH,ComponentDrill
T7C0.0197
; #@! TA.AperFunction,Plated,PTH,ComponentDrill
T8C0.0236
; #@! TA.AperFunction,Plated,PTH,ComponentDrill
T9C0.1063
%
G90
G05
T1
X3.7333Y-3.0057
X3.7333Y-3.0057
X3.7333Y-3.0297
X3.7333Y-3.0297
X3.7333Y-3.0648
X3.7333Y-3.0648
X3.7333Y-3.0888
X3.7333Y-3.0888
X3.7333Y-3.1435
X3.7333Y-3.1435
X3.7333Y-3.1675
X3.7333Y-3.1675
X3.7333Y-3.2026
X3.7333Y-3.2026
X3.7333Y-3.2266
X3.7333Y-3.2266
X3.9557Y-3.1435
X3.9557Y-3.1675
X3.9557Y-3.2026
X3.9557Y-3.2266
X3.9559Y-3.0648
X3.9559Y-3.0888
X3.9567Y-3.0057
X3.9567Y-3.0297
X3.9645Y-3.7636
X3.9645Y-3.8135
X3.9645Y-4.2635
X3.9646Y-3.564
X3.9646Y-3.9636
X3.9646Y-4.2136
X3.9646Y-3.6137
X3.9646Y-3.6636
X3.9646Y-3.7136
X3.9646Y-3.8636
X3.9646Y-3.9136
X3.9646Y-4.1136
X3.9646Y-4.1636
X3.9647Y-4.0635
X3.9862Y-3.5636
X3.9862Y-3.6136
X3.9862Y-3.6636
X3.9862Y-3.7136
X3.9862Y-3.813
X3.9862Y-3.8636
X3.9862Y-3.9136
X3.9862Y-3.9626
X3.9862Y-4.0636
X3.9862Y-4.1132
X3.9862Y-4.1636
X3.9862Y-4.2136
X3.9862Y-4.2638
X3.9864Y-3.7636
X4.1219Y-4.8711
X4.1219Y-4.9478
X4.1219Y-4.9478
X4.124Y-4.0138
X4.124Y-4.063
X4.1437Y-4.0635
X4.1437Y-4.0136
X4.1459Y-4.8711
X4.1459Y-4.9478
X4.1459Y-4.9478
X4.1516Y-4.6211
X4.1535Y-4.689
X4.2047Y-4.6752
X4.2795Y-4.3136
X4.2815Y-3.9136
X4.2815Y-3.9636
X4.2815Y-4.1634
X4.2815Y-4.2136
X4.2815Y-4.2628
X4.2869Y-3.9975
X4.2875Y-4.0231
X4.3026Y-3.5636
X4.3028Y-3.6136
X4.303Y-3.6636
X4.303Y-3.7636
X4.303Y-3.9136
X4.3031Y-4.1636
X4.3031Y-4.2136
X4.3031Y-4.2638
X4.3031Y-4.3136
X4.3189Y-4.0787
X4.3228Y-3.7136
X4.3228Y-3.7411
X4.3317Y-3.6634
X4.3317Y-3.7785
X4.3349Y-4.002
X4.3397Y-3.8105
X4.3504Y-3.7559
X4.3602Y-3.9983
X4.3619Y-3.8278
X4.3967Y-3.8268
X4.416Y-4.0095
X4.4694Y-3.874
X4.4813Y-3.8514
X4.4843Y-4.6673
X4.4852Y-3.5725
X4.4919Y-3.6131
X4.503Y-3.8307
X4.5141Y-3.6306
X4.5285Y-3.9242
X4.5512Y-3.6093
X4.5551Y-3.8701
X4.5551Y-3.9252
X4.6142Y-3.9291
X4.6171Y-3.7726
X4.624Y-3.749
X4.6329Y-3.8041
X4.6368Y-4.3307
X4.6407Y-4.2963
X4.6427Y-3.8514
X4.6476Y-3.7608
X4.6673Y-3.8297
X4.6683Y-3.9921
X4.6701Y-3.9647
X4.6703Y-3.8692
X4.6713Y-3.7598
X4.6732Y-4.4144
X4.6752Y-3.9291
X4.7402Y-3.9606
X4.7451Y-3.7559
X4.7608Y-3.5925
X4.7894Y-4.2963
X4.7922Y-3.8753
X4.7977Y-3.8258
X4.7977Y-3.8514
X4.8156Y-3.7831
X4.8334Y-3.7992
X4.9744Y-3.0276
X5.002Y-3.0906
X5.002Y-3.189
X5.0984Y-3.1673
X5.1575Y-3.1673
X5.1969Y-2.815
X5.2559Y-2.815
X5.2559Y-3.1673
X5.315Y-2.8996
X5.315Y-3.1673
X5.3543Y-2.8818
X5.374Y-3.1673
X5.3937Y-2.815
X5.4331Y-3.1673
X5.4921Y-3.1673
X5.5315Y-2.815
X5.5413Y-3.1673
X5.628Y-3.0807
X5.628Y-3.1398
X5.628Y-3.189
X5.6319Y-2.8642
X5.6319Y-2.9528
X5.6319Y-3.0118
X5.6554Y-4.1866
X5.6781Y-4.18
X5.6811Y-4.1565
X5.9488Y-3.1762
X5.9488Y-3.1762
X5.9488Y-3.2002
X5.9488Y-3.2002
X5.9488Y-3.2596
X5.9488Y-3.2596
X5.9488Y-3.2837
X5.9488Y-3.2837
X5.9608Y-3.799
X5.9608Y-3.799
X5.9608Y-3.823
X5.9608Y-3.823
X5.9626Y-3.7045
X5.9626Y-3.7285
X5.9791Y-3.6573
X5.9791Y-3.6813
X5.9858Y-3.7518
X5.9858Y-3.7518
X5.9858Y-3.7758
X5.9858Y-3.7758
X5.9858Y-3.8463
X5.9858Y-3.8463
X5.9858Y-3.8703
X5.9858Y-3.8703
X6.013Y-3.1767
X6.013Y-3.1767
X6.037Y-3.1767
X6.037Y-3.1767
X6.1191Y-4.2057
X6.1388Y-4.1654
X6.1579Y-4.1794
X6.177Y-3.6126
X6.177Y-3.6126
X6.201Y-3.6126
X6.201Y-3.6126
X6.2317Y-3.6126
X6.2317Y-3.6126
X6.2557Y-3.6126
X6.2557Y-3.6126
X6.286Y-3.6126
X6.286Y-3.6126
X6.31Y-3.6126
X6.31Y-3.6126
X6.7057Y-3.0513
X6.7372Y-3.0335
X6.8652Y-3.0039
X6.8661Y-3.0433
X6.8671Y-3.7717
X6.8671Y-3.811
X6.8701Y-3.8974
X6.8701Y-3.8974
X6.8701Y-3.9215
X6.8701Y-3.9215
X6.8701Y-3.9565
X6.8701Y-3.9565
X6.8701Y-3.9805
X6.8701Y-3.9805
X6.8701Y-4.0156
X6.8701Y-4.0156
X6.8701Y-4.0396
X6.8701Y-4.0396
X6.8701Y-4.0746
X6.8701Y-4.0746
X6.8701Y-4.0986
X6.8701Y-4.0986
X6.8837Y-4.1732
X6.8837Y-4.1732
X6.9077Y-4.1732
X6.9077Y-4.1732
X6.9189Y-3.2454
X6.9189Y-3.2454
X6.9429Y-3.2454
X6.9429Y-3.2454
X6.9754Y-3.2768
X6.9754Y-3.2768
X6.9785Y-3.3596
X6.9785Y-3.3596
X6.9955Y-3.3766
X6.9955Y-3.3766
X6.9994Y-3.2768
X6.9994Y-3.2768
T2
X5.6398Y-4.3091
X5.6398Y-4.3602
X5.6398Y-4.4114
X5.6398Y-4.4626
X5.6909Y-4.3091
X5.6909Y-4.3602
X5.6909Y-4.4114
X5.6909Y-4.4626
T3
X3.7638Y-3.0472
X3.7638Y-3.1161
X3.7638Y-3.185
X3.811Y-2.9409
X3.811Y-3.2874
X3.8543Y-3.0472
X3.8543Y-3.1161
X3.8543Y-3.185
X3.935Y-3.0472
X3.935Y-3.185
X3.9646Y-3.3642
X3.9646Y-3.4134
X3.9646Y-3.4636
X3.9646Y-3.5128
X3.9882Y-3.3642
X3.9882Y-3.4134
X3.9882Y-3.4636
X3.9882Y-3.5128
X4.1339Y-3.3642
X4.1339Y-3.4134
X4.1339Y-3.4636
X4.1339Y-3.5128
X4.1772Y-4.5945
X4.2717Y-4.5906
X4.2795Y-3.3642
X4.2795Y-3.4134
X4.2795Y-3.4636
X4.2795Y-3.5128
X4.3031Y-3.3642
X4.3031Y-3.4134
X4.3031Y-3.4636
X4.3031Y-3.5128
X4.5453Y-3.5413
X4.7382Y-3.5256
X4.7421Y-3.9331
X4.748Y-3.8661
X4.7677Y-3.7874
X4.998Y-2.813
X4.998Y-2.8386
X4.998Y-2.8642
X4.998Y-2.8898
X4.998Y-2.9154
X4.998Y-2.9409
X4.998Y-2.9665
X4.998Y-2.9921
X5.0236Y-2.813
X5.0492Y-2.813
X5.0748Y-2.813
X5.1004Y-2.813
X5.126Y-2.813
X5.1516Y-2.813
X5.3307Y-3.3031
X5.3307Y-3.3268
X5.3307Y-3.3504
X5.3307Y-3.374
X5.3307Y-3.3976
X5.3307Y-3.4213
X5.3543Y-3.3031
X5.3543Y-3.3976
X5.3543Y-3.4213
X5.3661Y-4.2638
X5.378Y-3.3031
X5.378Y-3.3976
X5.378Y-3.4213
X5.5689Y-3.6496
X5.7402Y-4.2638
X5.8878Y-3.5984
X5.8878Y-3.6457
X5.8878Y-3.6929
X5.8878Y-3.7402
X5.8878Y-3.7874
X5.8878Y-3.8346
X5.8878Y-3.9764
X5.8878Y-4.0236
X5.8878Y-4.0709
X5.8878Y-4.1181
X5.8878Y-4.1496
X5.8878Y-4.2244
X5.8878Y-4.2598
X5.8878Y-4.3071
X6.0Y-3.9134
X6.0039Y-3.622
X6.0827Y-3.8917
X6.0827Y-3.9291
X6.3268Y-3.3632
X6.3268Y-3.4134
X6.3268Y-3.4626
X6.3268Y-3.5128
X6.3524Y-3.3632
X6.3524Y-3.4134
X6.3524Y-3.4626
X6.3524Y-3.5128
X6.4961Y-3.3632
X6.4961Y-3.4134
X6.4961Y-3.4626
X6.4961Y-3.5128
X6.6398Y-3.3632
X6.6398Y-3.4134
X6.6398Y-3.4626
X6.6398Y-3.5128
X6.6654Y-3.3632
X6.6654Y-3.4134
X6.6654Y-3.4626
X6.6654Y-3.5128
T4
X3.7205Y-3.8071
X3.7205Y-4.0512
X3.7559Y-4.2598
X3.8465Y-3.5827
X3.9646Y-4.0138
X3.9646Y-4.314
X3.9902Y-4.0138
X3.9902Y-4.314
X3.9902Y-4.6417
X4.1339Y-3.878
X4.1339Y-3.9026
X4.1339Y-3.9272
X4.1339Y-4.2126
X4.1339Y-4.2372
X4.1339Y-4.2618
X4.1388Y-4.4557
X4.2126Y-2.6929
X4.3169Y-4.4862
X4.3169Y-4.5118
X4.3169Y-4.5374
X4.374Y-2.7894
X4.377Y-3.6644
X4.3799Y-2.7126
X4.4016Y-3.6919
X4.4409Y-4.4862
X4.4409Y-4.5118
X4.4409Y-4.5374
X4.4685Y-4.4862
X4.4685Y-4.5118
X4.4685Y-4.5374
X4.4961Y-4.4862
X4.4961Y-4.5118
X4.4961Y-4.5374
X4.5039Y-4.0551
X4.5039Y-4.0984
X4.5472Y-4.126
X4.5472Y-4.1516
X4.5472Y-4.1811
X4.5472Y-4.2106
X4.5492Y-4.0769
X4.6644Y-4.0906
X4.6644Y-4.1437
X4.6644Y-4.1949
X4.7549Y-4.3297
X4.7756Y-3.1811
X4.7756Y-3.9429
X4.7756Y-3.9685
X4.7756Y-3.9941
X4.7756Y-4.0236
X4.7756Y-4.0531
X4.7972Y-4.44
X4.8051Y-3.9429
X4.8051Y-3.9685
X4.8051Y-3.9941
X4.8051Y-4.0236
X4.8051Y-4.0531
X4.8593Y-4.1831
X4.8947Y-4.1831
X4.9567Y-4.248
X4.9902Y-4.1299
X4.9902Y-4.2047
X5.0138Y-4.1299
X5.0138Y-4.2047
X5.126Y-2.9685
X5.126Y-3.0315
X5.126Y-3.0945
X5.189Y-2.9685
X5.189Y-3.0315
X5.189Y-3.0945
X5.252Y-2.9685
X5.252Y-3.0315
X5.252Y-3.0945
X5.315Y-2.9685
X5.315Y-3.0315
X5.315Y-3.0945
X5.378Y-2.9685
X5.378Y-3.0315
X5.378Y-3.0945
X5.4409Y-2.9685
X5.4409Y-3.0315
X5.4409Y-3.0945
X5.5039Y-2.9685
X5.5039Y-3.0315
X5.5039Y-3.0945
X5.5866Y-4.7421
X5.6594Y-3.4803
X5.6594Y-3.5157
X5.6614Y-3.563
X5.6949Y-3.4803
X5.6949Y-3.5157
X5.7303Y-3.4803
X5.7303Y-3.5157
X6.4961Y-3.563
X6.4961Y-3.6132
X6.4961Y-3.6634
X6.4961Y-3.7136
X6.4961Y-3.7638
X6.4961Y-3.814
X6.497Y-3.8642
X6.497Y-3.9134
X6.497Y-3.9636
X6.497Y-4.0138
X6.497Y-4.063
X6.497Y-4.1132
X6.497Y-4.1634
X6.497Y-4.2136
X6.497Y-4.2638
X6.497Y-4.313
X6.6654Y-3.563
X6.6654Y-3.6132
X6.6654Y-3.6644
X6.6654Y-3.7136
X6.6654Y-3.7638
X6.6654Y-3.814
X6.6654Y-3.8632
X6.6654Y-3.9134
X6.6654Y-3.9636
X6.6654Y-4.0138
X6.6654Y-4.064
X6.6654Y-4.1132
X6.6654Y-4.1634
X6.6654Y-4.2136
X6.6654Y-4.2638
X6.6654Y-4.314
X6.7549Y-3.2598
X6.7549Y-3.3189
X6.7549Y-3.378
X6.7638Y-3.9094
X6.7638Y-3.9685
X6.7638Y-4.0276
X6.7638Y-4.0866
X6.7648Y-4.1457
X6.8898Y-2.9685
T5
X3.6004Y-4.3425
X3.7992Y-4.4587
X3.8228Y-4.0945
X3.8661Y-4.0945
X3.872Y-2.6673
X3.872Y-2.7106
X3.9154Y-2.6673
X3.9154Y-2.7106
X3.9715Y-4.753
X4.0148Y-4.753
X4.0591Y-4.7037
X4.064Y-4.9459
X4.065Y-4.8976
X4.0659Y-4.998
X4.1102Y-5.0039
X4.1299Y-2.6929
X4.1378Y-2.9469
X4.1545Y-5.0039
X4.1978Y-5.0039
X4.2421Y-4.8976
X4.2421Y-4.9459
X4.2423Y-4.9982
X4.2579Y-4.749
X4.3012Y-4.749
X4.4587Y-3.814
X4.4705Y-2.7323
X4.4705Y-2.7756
X4.5Y-3.3465
X4.5768Y-4.5571
X4.6201Y-4.5571
X4.6486Y-3.6565
X4.813Y-2.8386
X4.813Y-2.8898
X4.813Y-2.9409
X4.813Y-2.9921
X4.9724Y-4.3307
X5.0177Y-2.7539
X5.0197Y-4.4882
X5.0197Y-4.5315
X5.0197Y-4.5748
X5.1299Y-3.9409
X5.1299Y-3.9843
X5.1299Y-4.0276
X5.1791Y-2.7539
X5.2185Y-3.813
X5.2185Y-3.8563
X5.2323Y-4.311
X5.2421Y-4.563
X5.2539Y-4.3957
X5.2618Y-3.813
X5.2618Y-3.8563
X5.2756Y-4.311
X5.2854Y-4.563
X5.3287Y-4.563
X5.3465Y-3.9409
X5.3465Y-3.9843
X5.3465Y-4.0276
X5.3917Y-3.7835
X5.3917Y-3.8268
X5.435Y-3.7835
X5.435Y-3.8268
X5.4626Y-3.4173
X5.502Y-3.3386
X5.502Y-3.378
X5.502Y-3.4173
X5.5413Y-3.3386
X5.5413Y-3.378
X5.5413Y-3.4173
X5.5846Y-3.3386
X5.5846Y-3.378
X5.6063Y-4.7992
X5.6181Y-3.9409
X5.6181Y-3.9843
X5.6181Y-4.0276
X5.6791Y-4.685
X5.7008Y-4.1043
X5.7028Y-3.7717
X5.7224Y-4.685
X5.7441Y-4.1043
X5.7461Y-3.7717
X5.7657Y-4.685
X5.7756Y-3.8819
X5.7756Y-3.9823
X5.8425Y-4.3031
X5.8425Y-4.3465
X5.939Y-4.4843
X5.939Y-4.5276
X5.939Y-4.5709
X6.0295Y-4.4843
X6.0295Y-4.5276
X6.0295Y-4.5709
X6.1024Y-4.2992
X6.1024Y-4.3425
X6.1083Y-2.75
X6.1083Y-2.7933
X6.1299Y-2.9803
X6.1299Y-3.0197
X6.1299Y-3.0591
X6.1299Y-3.0984
X6.1417Y-4.2992
X6.1417Y-4.3425
X6.1496Y-2.75
X6.1516Y-2.7933
X6.3415Y-2.7165
X6.3415Y-2.7598
X6.3415Y-2.8031
X6.3415Y-2.8465
X6.3848Y-2.7165
X6.3848Y-2.7598
X6.3848Y-2.8031
X6.3848Y-2.8465
X6.4281Y-2.7165
X6.4281Y-2.7598
X6.4281Y-2.8031
X6.4281Y-2.8465
X6.4715Y-2.7165
X6.4715Y-2.7598
X6.4715Y-2.8031
X6.4715Y-2.8465
X6.5148Y-2.7165
X6.5148Y-2.7598
X6.5148Y-2.8031
X6.5148Y-2.8465
X6.5581Y-2.7165
X6.5581Y-2.7598
X6.5581Y-2.8031
X6.5581Y-2.8465
X6.6014Y-2.7165
X6.6014Y-2.7598
X6.6014Y-2.8031
X6.6014Y-2.8465
X6.6447Y-2.7165
X6.6447Y-2.7598
X6.6447Y-2.8031
X6.6447Y-2.8465
X6.7589Y-3.0689
X6.7589Y-3.8346
T6
X4.9016Y-3.2224
X4.9567Y-3.8602
X5.315Y-4.8504
X5.3661Y-4.8504
X6.7323Y-3.5394
X7.0276Y-3.8622
X7.0276Y-3.9134
T7
X3.6211Y-2.7165
X3.6211Y-4.9606
X3.6444Y-2.6602
X3.6444Y-2.7729
X3.6444Y-4.9043
X3.6444Y-5.017
X3.7008Y-2.6368
X3.7008Y-2.7963
X3.7008Y-4.8809
X3.7008Y-5.0404
X3.7572Y-2.6602
X3.7572Y-2.7729
X3.7572Y-4.9043
X3.7572Y-5.017
X3.7805Y-2.7165
X3.7805Y-4.9606
X4.8858Y-4.6417
X4.8858Y-4.6811
X4.8858Y-4.7205
X6.8494Y-2.7165
X6.8494Y-4.9606
X6.8728Y-2.6602
X6.8728Y-2.7729
X6.8728Y-4.9043
X6.8728Y-5.017
X6.9291Y-2.6368
X6.9291Y-2.7963
X6.9291Y-4.8809
X6.9291Y-5.0404
X6.9855Y-2.6602
X6.9855Y-2.7729
X6.9855Y-4.9043
X6.9855Y-5.017
X7.0089Y-2.7165
X7.0089Y-4.9606
T9
X3.7008Y-2.7165
X3.7008Y-4.9606
X6.9291Y-2.7165
X6.9291Y-4.9606
T8
G00X3.9835Y-4.8167
M15
G01X3.9835Y-4.86
M16
G05
G00X3.9835Y-4.9911
M15
G01X3.9835Y-5.0148
M16
G05
G00X4.3236Y-4.8167
M15
G01X4.3236Y-4.86
M16
G05
G00X4.3236Y-4.9911
M15
G01X4.3236Y-5.0148
M16
G05
T0
M30
