M48
; DRILL file {KiCad (5.99.0-10928-g75ce97e260)} date Wednesday, June 09, 2021 at 11:06:08 AM
; FORMAT={-:-/ absolute / inch / decimal}
; #@! TF.CreationDate,2021-06-09T11:06:08-04:00
; #@! TF.GenerationSoftware,Kicad,Pcbnew,(5.99.0-10928-g75ce97e260)
; #@! TF.FileFunction,Plated,1,4,PTH
FMAT,2
INCH
; #@! TA.AperFunction,Plated,PTH,ViaDrill
T1C0.0079
; #@! TA.AperFunction,Plated,PTH,ViaDrill
T2C0.0098
; #@! TA.AperFunction,Plated,PTH,ViaDrill
T3C0.0118
; #@! TA.AperFunction,Plated,PTH,ComponentDrill
T4C0.0118
; #@! TA.AperFunction,Plated,PTH,ViaDrill
T5C0.0138
; #@! TA.AperFunction,Plated,PTH,ViaDrill
T6C0.0157
%
G90
G05
T1
X3.8583Y-3.7028
X3.8583Y-4.0531
X3.8781Y-3.3506
X3.9429Y-3.0512
X4.2097Y-3.2028
X4.2303Y-3.1772
X4.251Y-3.2028
X4.2716Y-3.1772
X4.3031Y-4.0138
X4.3031Y-4.063
X4.3691Y-4.2943
X4.5276Y-3.9075
X4.5276Y-4.0669
X4.5276Y-4.2106
X4.5571Y-4.0256
X4.6476Y-4.1339
X4.6752Y-4.1132
X4.8031Y-4.3445
X4.9016Y-4.3445
X4.9183Y-3.1978
X4.939Y-3.1772
X4.9596Y-3.1978
X4.9803Y-3.1772
X5.0669Y-3.878
X5.1063Y-3.503
X5.3268Y-3.7707
X5.3443Y-3.7893
X5.3898Y-3.437
X5.4882Y-3.437
X5.627Y-3.2028
X5.6476Y-3.1772
X5.6683Y-3.2028
X5.6693Y-3.5778
X5.689Y-3.1772
X5.7677Y-3.5787
X5.8661Y-3.5787
X5.9646Y-3.5787
X6.063Y-3.5787
X6.0904Y-3.9352
X6.0906Y-3.8839
X6.0906Y-3.9094
X6.0906Y-3.9607
X6.1614Y-3.5787
X6.3373Y-3.1978
X6.3583Y-3.1772
X6.3789Y-3.1978
X6.3996Y-3.1772
T2
X3.9646Y-3.564
X3.9646Y-3.6132
X3.9646Y-3.6634
X3.9646Y-3.7136
X3.9646Y-3.8632
X3.9646Y-3.9134
X3.9646Y-3.9636
X3.9646Y-4.063
X3.9646Y-4.1132
X3.9646Y-4.1634
X3.9646Y-4.2136
X3.9646Y-4.2638
X3.9648Y-3.7636
X3.9652Y-3.8136
X4.25Y-3.0167
X4.2844Y-2.9636
X4.3031Y-3.563
X4.3031Y-3.6132
X4.3031Y-3.6634
X4.3031Y-3.7136
X4.3031Y-3.7638
X4.3031Y-3.813
X4.3031Y-3.9636
X4.3031Y-4.1634
X4.3031Y-4.2136
X4.3031Y-4.2638
X4.3031Y-4.314
X4.3033Y-3.9136
X4.9429Y-4.8602
X4.9587Y-3.0157
X4.9705Y-4.8602
X4.9931Y-2.9646
X4.998Y-4.8602
X5.6673Y-3.0157
X5.7018Y-2.9656
X6.3268Y-3.563
X6.3268Y-3.6132
X6.3268Y-3.6634
X6.3268Y-3.7136
X6.3268Y-3.7638
X6.3268Y-3.813
X6.3268Y-3.8632
X6.3268Y-3.9134
X6.3268Y-3.9636
X6.3268Y-4.0138
X6.3268Y-4.064
X6.3268Y-4.1132
X6.3268Y-4.1634
X6.3268Y-4.2136
X6.3268Y-4.2638
X6.3553Y-4.313
X6.378Y-3.0177
X6.4124Y-2.9656
X6.6654Y-3.563
X6.6654Y-3.6132
X6.6654Y-3.6634
X6.6654Y-3.7136
X6.6654Y-3.7638
X6.6654Y-3.814
X6.6654Y-3.8632
X6.6654Y-3.9144
X6.6654Y-3.9636
X6.6654Y-4.0138
X6.6654Y-4.063
X6.6654Y-4.1132
X6.6654Y-4.1634
X6.6654Y-4.2136
X6.6654Y-4.2638
X6.6654Y-4.313
T3
X3.9646Y-3.3632
X3.9646Y-3.4134
X3.9646Y-3.4626
X3.9646Y-3.5128
X3.9646Y-4.0128
X3.9646Y-4.313
X3.9902Y-3.3632
X3.9902Y-3.4134
X3.9902Y-3.4626
X3.9902Y-3.5128
X3.9902Y-4.0128
X3.9902Y-4.313
X4.1339Y-3.3632
X4.1339Y-3.4134
X4.1339Y-3.4626
X4.1339Y-3.5128
X4.1339Y-4.6791
X4.1339Y-4.7106
X4.1339Y-4.7421
X4.1575Y-4.6791
X4.1575Y-4.7106
X4.1575Y-4.7421
X4.1811Y-4.6791
X4.1811Y-4.7106
X4.1811Y-4.7421
X4.2047Y-4.6791
X4.2047Y-4.7106
X4.2047Y-4.7421
X4.2559Y-4.8425
X4.2776Y-3.3632
X4.2776Y-3.4134
X4.2776Y-3.4626
X4.2776Y-3.5128
X4.2776Y-3.8632
X4.2776Y-4.1132
X4.3031Y-3.3632
X4.3031Y-3.4134
X4.3031Y-3.4626
X4.3031Y-3.5128
X4.3031Y-3.8632
X4.3031Y-4.1132
X4.436Y-3.9862
X4.4596Y-4.2126
X4.5039Y-4.4252
X4.5039Y-4.5827
X4.5433Y-4.4252
X4.5433Y-4.4646
X4.5433Y-4.5039
X4.5433Y-4.5433
X4.5433Y-4.5827
X4.5827Y-4.4252
X4.5827Y-4.4646
X4.5827Y-4.5039
X4.5827Y-4.5433
X4.5827Y-4.5827
X4.8031Y-4.5118
X4.9016Y-4.4882
X5.0Y-4.5
X5.1772Y-4.3691
X5.1772Y-4.3927
X5.2087Y-4.3691
X5.2087Y-4.3927
X5.2402Y-4.3691
X5.2402Y-4.3927
X5.311Y-4.5433
X5.4114Y-4.8533
X5.5512Y-4.1181
X5.5512Y-4.2756
X5.5906Y-4.1181
X5.5906Y-4.1575
X5.5906Y-4.1969
X5.5906Y-4.2362
X5.5906Y-4.2756
X5.6299Y-4.1181
X5.6299Y-4.1575
X5.6299Y-4.1969
X5.6299Y-4.2362
X5.6299Y-4.2756
X6.3268Y-3.3632
X6.3268Y-3.4134
X6.3268Y-3.4626
X6.3268Y-3.5128
X6.3524Y-3.3632
X6.3524Y-3.4134
X6.3524Y-3.4626
X6.3524Y-3.5128
X6.4961Y-3.3632
X6.4961Y-3.4134
X6.4961Y-3.4626
X6.4961Y-3.5128
X6.5394Y-4.4094
X6.5394Y-4.4488
X6.5394Y-4.4882
X6.5394Y-4.5276
X6.5394Y-4.5669
X6.5394Y-4.6063
X6.5394Y-4.6457
X6.5787Y-4.4094
X6.5787Y-4.4488
X6.5787Y-4.4882
X6.5787Y-4.5276
X6.5787Y-4.5669
X6.5787Y-4.6063
X6.5787Y-4.6457
X6.6181Y-4.4094
X6.6181Y-4.4488
X6.6181Y-4.4882
X6.6181Y-4.5276
X6.6181Y-4.5669
X6.6181Y-4.6063
X6.6181Y-4.6457
X6.6398Y-3.3632
X6.6398Y-3.4134
X6.6398Y-3.4626
X6.6398Y-3.5128
X6.6575Y-4.4094
X6.6575Y-4.4488
X6.6575Y-4.4882
X6.6575Y-4.5276
X6.6575Y-4.5669
X6.6575Y-4.6063
X6.6575Y-4.6457
X6.6654Y-3.3632
X6.6654Y-3.4134
X6.6654Y-3.4626
X6.6654Y-3.5128
X6.6969Y-4.4094
X6.6969Y-4.4488
X6.6969Y-4.4882
X6.6969Y-4.5276
X6.6969Y-4.5669
X6.6969Y-4.6063
X6.6969Y-4.6457
T4
X4.2205Y-3.0906
X4.2598Y-3.0906
X4.2992Y-3.0906
X4.9291Y-3.0906
X4.9685Y-3.0906
X5.0079Y-3.0906
X5.6378Y-3.0906
X5.6772Y-3.0906
X5.7165Y-3.0906
X5.9547Y-4.6102
X5.9547Y-4.6496
X5.9547Y-4.689
X5.9941Y-4.6102
X5.9941Y-4.6496
X5.9941Y-4.689
X6.0335Y-4.6102
X6.0335Y-4.6496
X6.0335Y-4.689
X6.1122Y-4.6102
X6.1122Y-4.6496
X6.1122Y-4.689
X6.1516Y-4.6102
X6.1516Y-4.6496
X6.1516Y-4.689
X6.1909Y-4.6102
X6.1909Y-4.6496
X6.1909Y-4.689
X6.3484Y-3.0906
X6.3878Y-3.0906
X6.4272Y-3.0906
T5
X4.7874Y-3.6969
X5.0709Y-3.9587
X5.1358Y-3.8248
T6
X3.6614Y-3.0
X3.6614Y-3.3543
X3.6614Y-3.7087
X3.6614Y-4.063
X3.713Y-2.8984
X3.713Y-3.2537
X3.713Y-3.6081
X3.713Y-3.9614
X3.76Y-2.8984
X3.76Y-3.2537
X3.76Y-3.6081
X3.76Y-3.9614
X3.8435Y-4.3465
X3.8907Y-4.3465
X4.0846Y-2.6417
X4.0846Y-2.689
X4.1339Y-3.0
X4.186Y-2.7904
X4.186Y-2.8376
X4.1909Y-4.5187
X4.2141Y-4.5501
X4.2382Y-4.5187
X4.2618Y-4.5502
X4.2859Y-4.5188
X4.3081Y-3.1644
X4.3091Y-4.5502
X4.3331Y-4.5188
X4.3563Y-4.5502
X4.3701Y-3.0315
X4.3804Y-4.5188
X4.4173Y-3.0315
X4.4173Y-3.1476
X4.4272Y-4.0591
X4.437Y-2.6417
X4.437Y-2.689
X4.4508Y-4.7982
X4.4646Y-3.1476
X4.4783Y-3.8593
X4.5177Y-2.935
X4.5177Y-2.9823
X4.5187Y-2.8888
X4.5384Y-2.7904
X4.5384Y-2.8376
X4.7913Y-2.6417
X4.7913Y-2.689
X4.8425Y-3.0
X4.8612Y-3.9862
X4.8927Y-2.7904
X4.8927Y-2.8376
X5.0177Y-3.1644
X5.0581Y-4.8652
X5.0689Y-4.5315
X5.0787Y-3.0315
X5.1053Y-4.8652
X5.1142Y-3.1476
X5.1161Y-4.5315
X5.126Y-3.0315
X5.1457Y-2.6417
X5.1457Y-2.689
X5.1614Y-3.1476
X5.2028Y-3.7146
X5.2106Y-3.6535
X5.2343Y-2.935
X5.2343Y-2.9823
X5.2352Y-2.8888
X5.247Y-2.7904
X5.247Y-2.8376
X5.312Y-4.1624
X5.312Y-4.2096
X5.312Y-4.2569
X5.3169Y-3.6516
X5.3593Y-4.1624
X5.3593Y-4.2096
X5.3593Y-4.2569
X5.4065Y-4.1624
X5.4065Y-4.2096
X5.4065Y-4.2569
X5.5Y-2.6417
X5.5Y-2.689
X5.5079Y-4.4961
X5.5295Y-4.8642
X5.5512Y-3.0
X5.5925Y-3.4705
X5.6014Y-2.7904
X5.6014Y-2.8376
X5.6693Y-3.4035
X5.7264Y-3.1644
X5.7874Y-3.0315
X5.815Y-4.7579
X5.815Y-4.8051
X5.815Y-4.8524
X5.815Y-4.8996
X5.815Y-4.9469
X5.815Y-4.9941
X5.815Y-5.0413
X5.8346Y-3.0315
X5.8406Y-3.1476
X5.8543Y-2.6417
X5.8543Y-2.689
X5.8622Y-4.7579
X5.8622Y-4.8051
X5.8622Y-4.8524
X5.8622Y-4.8996
X5.8622Y-4.9469
X5.8622Y-4.9941
X5.8622Y-5.0413
X5.8661Y-3.4035
X5.8878Y-3.1476
X5.936Y-2.935
X5.936Y-2.9823
X5.937Y-2.8888
X5.9557Y-2.7904
X5.9557Y-2.8376
X6.0335Y-4.9203
X6.0335Y-4.9675
X6.0335Y-5.0148
X6.0335Y-5.062
X6.063Y-3.4035
X6.0807Y-4.9203
X6.0807Y-4.9675
X6.0807Y-5.0148
X6.0807Y-5.062
X6.2087Y-2.6417
X6.2087Y-2.689
X6.252Y-3.0
X6.3061Y-2.7904
X6.3061Y-2.8376
X6.3091Y-4.7598
X6.3091Y-4.8071
X6.3091Y-4.8543
X6.3091Y-4.9016
X6.3091Y-4.9488
X6.3091Y-4.9941
X6.3091Y-5.0413
X6.3563Y-4.7598
X6.3563Y-4.8071
X6.3563Y-4.8543
X6.3563Y-4.9016
X6.3563Y-4.9488
X6.3563Y-4.9941
X6.3563Y-5.0413
X6.4035Y-4.7598
X6.4035Y-4.8071
X6.4035Y-4.8543
X6.4035Y-4.9016
X6.4035Y-4.9488
X6.4035Y-4.9941
X6.4035Y-5.0413
X6.437Y-3.1644
X6.4508Y-4.7598
X6.4508Y-4.8071
X6.4508Y-4.8543
X6.4508Y-4.9016
X6.4508Y-4.9488
X6.4508Y-4.9941
X6.4508Y-5.0413
X6.5Y-3.0315
X6.5472Y-3.0315
X6.5551Y-3.1476
X6.565Y-2.6417
X6.565Y-2.689
X6.6024Y-3.1476
X6.6467Y-2.935
X6.6467Y-2.9823
X6.6476Y-2.8888
X6.6654Y-2.7904
X6.6654Y-2.8376
X6.8642Y-3.1102
X6.8642Y-3.4626
X6.8642Y-3.8169
X6.8642Y-4.1713
X6.9114Y-3.1102
X6.9114Y-3.4626
X6.9114Y-3.8169
X6.9114Y-4.1713
X6.9744Y-4.063
X6.9764Y-3.002
X6.9764Y-3.3543
X6.9764Y-3.7087
T0
M30
