G04 #@! TF.GenerationSoftware,KiCad,Pcbnew,(5.99.0-10928-g75ce97e260)*
G04 #@! TF.CreationDate,2021-06-09T11:05:26-04:00*
G04 #@! TF.ProjectId,FlySensei_Stack_Actuation_ECAD,466c7953-656e-4736-9569-5f537461636b,0.1*
G04 #@! TF.SameCoordinates,Original*
G04 #@! TF.FileFunction,Paste,Bot*
G04 #@! TF.FilePolarity,Positive*
%FSLAX46Y46*%
G04 Gerber Fmt 4.6, Leading zero omitted, Abs format (unit mm)*
G04 Created by KiCad (PCBNEW (5.99.0-10928-g75ce97e260)) date 2021-06-09 11:05:26*
%MOMM*%
%LPD*%
G01*
G04 APERTURE LIST*
G04 Aperture macros list*
%AMRoundRect*
0 Rectangle with rounded corners*
0 $1 Rounding radius*
0 $2 $3 $4 $5 $6 $7 $8 $9 X,Y pos of 4 corners*
0 Add a 4 corners polygon primitive as box body*
4,1,4,$2,$3,$4,$5,$6,$7,$8,$9,$2,$3,0*
0 Add four circle primitives for the rounded corners*
1,1,$1+$1,$2,$3*
1,1,$1+$1,$4,$5*
1,1,$1+$1,$6,$7*
1,1,$1+$1,$8,$9*
0 Add four rect primitives between the rounded corners*
20,1,$1+$1,$2,$3,$4,$5,0*
20,1,$1+$1,$4,$5,$6,$7,0*
20,1,$1+$1,$6,$7,$8,$9,0*
20,1,$1+$1,$8,$9,$2,$3,0*%
G04 Aperture macros list end*
G04 #@! TA.AperFunction,Profile*
%ADD10C,0.100000*%
G04 #@! TD*
%ADD11RoundRect,0.150000X-0.150000X-0.700000X0.150000X-0.700000X0.150000X0.700000X-0.150000X0.700000X0*%
%ADD12RoundRect,0.250000X-0.250000X-1.100000X0.250000X-1.100000X0.250000X1.100000X-0.250000X1.100000X0*%
%ADD13RoundRect,0.150000X-0.700000X0.150000X-0.700000X-0.150000X0.700000X-0.150000X0.700000X0.150000X0*%
%ADD14RoundRect,0.250000X-1.100000X0.250000X-1.100000X-0.250000X1.100000X-0.250000X1.100000X0.250000X0*%
%ADD15R,2.400000X0.740000*%
%ADD16RoundRect,0.150000X0.700000X-0.150000X0.700000X0.150000X-0.700000X0.150000X-0.700000X-0.150000X0*%
%ADD17RoundRect,0.250000X1.100000X-0.250000X1.100000X0.250000X-1.100000X0.250000X-1.100000X-0.250000X0*%
%ADD18RoundRect,0.250000X0.250000X1.500000X-0.250000X1.500000X-0.250000X-1.500000X0.250000X-1.500000X0*%
%ADD19RoundRect,0.250001X0.499999X1.449999X-0.499999X1.449999X-0.499999X-1.449999X0.499999X-1.449999X0*%
%ADD20R,0.800000X1.000000*%
%ADD21R,1.500000X0.700000*%
%ADD22R,1.000000X0.800000*%
%ADD23R,0.700000X1.500000*%
G04 APERTURE END LIST*
D10*
X136550000Y-128350000D02*
X134900000Y-130000000D01*
X136550000Y-128350000D02*
X139850000Y-128350000D01*
X139850000Y-128350000D02*
X141500000Y-130000000D01*
X91650000Y-114350000D02*
X91650000Y-117650000D01*
X180000000Y-69000000D02*
X180000000Y-126000000D01*
X180000000Y-69000000D02*
G75*
G03*
X176000000Y-65000000I-4000000J0D01*
G01*
X91650000Y-114350000D02*
X90000000Y-112700000D01*
X141500000Y-130000000D02*
X176000000Y-130000000D01*
X94000000Y-65000000D02*
X176000000Y-65000000D01*
X91650000Y-117650000D02*
X90000000Y-119300000D01*
X90000000Y-126000000D02*
G75*
G03*
X94000000Y-130000000I4000000J0D01*
G01*
X134900000Y-130000000D02*
X94000000Y-130000000D01*
X94000000Y-65000000D02*
G75*
G03*
X90000000Y-69000000I0J-4000000D01*
G01*
X176000000Y-130000000D02*
G75*
G03*
X180000000Y-126000000I0J4000000D01*
G01*
X90000000Y-119300000D02*
X90000000Y-126000000D01*
X90000000Y-112700000D02*
X90000000Y-69000000D01*
D11*
G04 #@! TO.C,BL2*
X147450000Y-70080000D03*
X148700000Y-70080000D03*
X149950000Y-70080000D03*
D12*
X151800000Y-66880000D03*
X145600000Y-66880000D03*
G04 #@! TD*
D13*
G04 #@! TO.C,S7*
X174950000Y-75000000D03*
X174950000Y-76250000D03*
X174950000Y-77500000D03*
D14*
X178150000Y-79350000D03*
X178150000Y-73150000D03*
G04 #@! TD*
D15*
G04 #@! TO.C,J2*
X106950000Y-85435000D03*
X103050000Y-85435000D03*
X106950000Y-86705000D03*
X103050000Y-86705000D03*
X106950000Y-87975000D03*
X103050000Y-87975000D03*
X106950000Y-89245000D03*
X103050000Y-89245000D03*
X106950000Y-90515000D03*
X103050000Y-90515000D03*
X106950000Y-91785000D03*
X103050000Y-91785000D03*
X106950000Y-93055000D03*
X103050000Y-93055000D03*
X106950000Y-94325000D03*
X103050000Y-94325000D03*
X106950000Y-95595000D03*
X103050000Y-95595000D03*
X106950000Y-96865000D03*
X103050000Y-96865000D03*
X106950000Y-98135000D03*
X103050000Y-98135000D03*
X106950000Y-99405000D03*
X103050000Y-99405000D03*
X106950000Y-100675000D03*
X103050000Y-100675000D03*
X106950000Y-101945000D03*
X103050000Y-101945000D03*
X106950000Y-103215000D03*
X103050000Y-103215000D03*
X106950000Y-104485000D03*
X103050000Y-104485000D03*
X106950000Y-105755000D03*
X103050000Y-105755000D03*
X106950000Y-107025000D03*
X103050000Y-107025000D03*
X106950000Y-108295000D03*
X103050000Y-108295000D03*
X106950000Y-109565000D03*
X103050000Y-109565000D03*
G04 #@! TD*
D11*
G04 #@! TO.C,BL4*
X129450000Y-70075000D03*
X130700000Y-70075000D03*
X131950000Y-70075000D03*
D12*
X133800000Y-66875000D03*
X127600000Y-66875000D03*
G04 #@! TD*
D15*
G04 #@! TO.C,J4*
X166950000Y-85435000D03*
X163050000Y-85435000D03*
X166950000Y-86705000D03*
X163050000Y-86705000D03*
X166950000Y-87975000D03*
X163050000Y-87975000D03*
X166950000Y-89245000D03*
X163050000Y-89245000D03*
X166950000Y-90515000D03*
X163050000Y-90515000D03*
X166950000Y-91785000D03*
X163050000Y-91785000D03*
X166950000Y-93055000D03*
X163050000Y-93055000D03*
X166950000Y-94325000D03*
X163050000Y-94325000D03*
X166950000Y-95595000D03*
X163050000Y-95595000D03*
X166950000Y-96865000D03*
X163050000Y-96865000D03*
X166950000Y-98135000D03*
X163050000Y-98135000D03*
X166950000Y-99405000D03*
X163050000Y-99405000D03*
X166950000Y-100675000D03*
X163050000Y-100675000D03*
X166950000Y-101945000D03*
X163050000Y-101945000D03*
X166950000Y-103215000D03*
X163050000Y-103215000D03*
X166950000Y-104485000D03*
X163050000Y-104485000D03*
X166950000Y-105755000D03*
X163050000Y-105755000D03*
X166950000Y-107025000D03*
X163050000Y-107025000D03*
X166950000Y-108295000D03*
X163050000Y-108295000D03*
X166950000Y-109565000D03*
X163050000Y-109565000D03*
G04 #@! TD*
D11*
G04 #@! TO.C,BL0*
X165500000Y-70100000D03*
X166750000Y-70100000D03*
X168000000Y-70100000D03*
D12*
X163650000Y-66900000D03*
X169850000Y-66900000D03*
G04 #@! TD*
D16*
G04 #@! TO.C,S3*
X95050000Y-104450000D03*
X95050000Y-103200000D03*
X95050000Y-101950000D03*
D17*
X91850000Y-100100000D03*
X91850000Y-106300000D03*
G04 #@! TD*
D16*
G04 #@! TO.C,S2*
X95050000Y-95450000D03*
X95050000Y-94200000D03*
X95050000Y-92950000D03*
D17*
X91850000Y-97300000D03*
X91850000Y-91100000D03*
G04 #@! TD*
D18*
G04 #@! TO.C,J5*
X155250000Y-122050000D03*
X153250000Y-122050000D03*
D19*
X150900000Y-127800000D03*
X157600000Y-127800000D03*
G04 #@! TD*
D13*
G04 #@! TO.C,S4*
X174950000Y-101950000D03*
X174950000Y-103200000D03*
X174950000Y-104450000D03*
D14*
X178150000Y-106300000D03*
X178150000Y-100100000D03*
G04 #@! TD*
D20*
G04 #@! TO.C,SW2*
X94155000Y-112350000D03*
X94155000Y-119650000D03*
X91945000Y-119650000D03*
X91945000Y-112350000D03*
D21*
X94805000Y-118250000D03*
X94805000Y-115250000D03*
X94805000Y-113750000D03*
G04 #@! TD*
D22*
G04 #@! TO.C,SW1*
X134550000Y-125845000D03*
X141850000Y-128055000D03*
X134550000Y-128055000D03*
X141850000Y-125845000D03*
D23*
X140450000Y-125195000D03*
X137450000Y-125195000D03*
X135950000Y-125195000D03*
G04 #@! TD*
D16*
G04 #@! TO.C,S1*
X95050000Y-86450000D03*
X95050000Y-85200000D03*
X95050000Y-83950000D03*
D17*
X91850000Y-88300000D03*
X91850000Y-82100000D03*
G04 #@! TD*
D11*
G04 #@! TO.C,BL6*
X111450000Y-70125000D03*
X112700000Y-70125000D03*
X113950000Y-70125000D03*
D12*
X109600000Y-66925000D03*
X115800000Y-66925000D03*
G04 #@! TD*
D16*
G04 #@! TO.C,S0*
X95050000Y-77450000D03*
X95050000Y-76200000D03*
X95050000Y-74950000D03*
D17*
X91850000Y-79300000D03*
X91850000Y-73100000D03*
G04 #@! TD*
D11*
G04 #@! TO.C,BL1*
X156450000Y-70100000D03*
X157700000Y-70100000D03*
X158950000Y-70100000D03*
D12*
X154600000Y-66900000D03*
X160800000Y-66900000D03*
G04 #@! TD*
D11*
G04 #@! TO.C,BL3*
X138450000Y-70080000D03*
X139700000Y-70080000D03*
X140950000Y-70080000D03*
D12*
X136600000Y-66880000D03*
X142800000Y-66880000D03*
G04 #@! TD*
D13*
G04 #@! TO.C,S5*
X174950000Y-92950000D03*
X174950000Y-94200000D03*
X174950000Y-95450000D03*
D14*
X178150000Y-97300000D03*
X178150000Y-91100000D03*
G04 #@! TD*
D11*
G04 #@! TO.C,BL5*
X120450000Y-70125000D03*
X121700000Y-70125000D03*
X122950000Y-70125000D03*
D12*
X124800000Y-66925000D03*
X118600000Y-66925000D03*
G04 #@! TD*
D13*
G04 #@! TO.C,S6*
X174950000Y-83950000D03*
X174950000Y-85200000D03*
X174950000Y-86450000D03*
D14*
X178150000Y-82100000D03*
X178150000Y-88300000D03*
G04 #@! TD*
D11*
G04 #@! TO.C,BL7*
X102500000Y-70130000D03*
X103750000Y-70130000D03*
X105000000Y-70130000D03*
D12*
X100650000Y-66930000D03*
X106850000Y-66930000D03*
G04 #@! TD*
M02*
