G04 #@! TF.GenerationSoftware,KiCad,Pcbnew,(5.99.0-10928-g75ce97e260)*
G04 #@! TF.CreationDate,2021-06-09T11:05:27-04:00*
G04 #@! TF.ProjectId,FlySensei_Stack_Actuation_ECAD,466c7953-656e-4736-9569-5f537461636b,0.1*
G04 #@! TF.SameCoordinates,Original*
G04 #@! TF.FileFunction,Legend,Top*
G04 #@! TF.FilePolarity,Positive*
%FSLAX46Y46*%
G04 Gerber Fmt 4.6, Leading zero omitted, Abs format (unit mm)*
G04 Created by KiCad (PCBNEW (5.99.0-10928-g75ce97e260)) date 2021-06-09 11:05:27*
%MOMM*%
%LPD*%
G01*
G04 APERTURE LIST*
G04 #@! TA.AperFunction,Profile*
%ADD10C,0.100000*%
G04 #@! TD*
%ADD11C,0.150000*%
%ADD12C,0.050000*%
%ADD13C,0.120000*%
%ADD14C,0.152400*%
%ADD15C,0.200000*%
%ADD16C,0.210000*%
G04 APERTURE END LIST*
D10*
X136550000Y-128350000D02*
X134900000Y-130000000D01*
X136550000Y-128350000D02*
X139850000Y-128350000D01*
X139850000Y-128350000D02*
X141500000Y-130000000D01*
X91650000Y-114350000D02*
X91650000Y-117650000D01*
X180000000Y-69000000D02*
X180000000Y-126000000D01*
X180000000Y-69000000D02*
G75*
G03*
X176000000Y-65000000I-4000000J0D01*
G01*
X91650000Y-114350000D02*
X90000000Y-112700000D01*
X141500000Y-130000000D02*
X176000000Y-130000000D01*
X94000000Y-65000000D02*
X176000000Y-65000000D01*
X91650000Y-117650000D02*
X90000000Y-119300000D01*
X90000000Y-126000000D02*
G75*
G03*
X94000000Y-130000000I4000000J0D01*
G01*
X134900000Y-130000000D02*
X94000000Y-130000000D01*
X94000000Y-65000000D02*
G75*
G03*
X90000000Y-69000000I0J-4000000D01*
G01*
X176000000Y-130000000D02*
G75*
G03*
X180000000Y-126000000I0J4000000D01*
G01*
X90000000Y-119300000D02*
X90000000Y-126000000D01*
X90000000Y-112700000D02*
X90000000Y-69000000D01*
D11*
G04 #@! TO.C,U3*
X146319380Y-79896904D02*
X147128904Y-79896904D01*
X147224142Y-79849285D01*
X147271761Y-79801666D01*
X147319380Y-79706428D01*
X147319380Y-79515952D01*
X147271761Y-79420714D01*
X147224142Y-79373095D01*
X147128904Y-79325476D01*
X146319380Y-79325476D01*
X146319380Y-78944523D02*
X146319380Y-78325476D01*
X146700333Y-78658809D01*
X146700333Y-78515952D01*
X146747952Y-78420714D01*
X146795571Y-78373095D01*
X146890809Y-78325476D01*
X147128904Y-78325476D01*
X147224142Y-78373095D01*
X147271761Y-78420714D01*
X147319380Y-78515952D01*
X147319380Y-78801666D01*
X147271761Y-78896904D01*
X147224142Y-78944523D01*
G04 #@! TO.C,C25*
X176545714Y-77389285D02*
X176583809Y-77427380D01*
X176621904Y-77541666D01*
X176621904Y-77617857D01*
X176583809Y-77732142D01*
X176507619Y-77808333D01*
X176431428Y-77846428D01*
X176279047Y-77884523D01*
X176164761Y-77884523D01*
X176012380Y-77846428D01*
X175936190Y-77808333D01*
X175860000Y-77732142D01*
X175821904Y-77617857D01*
X175821904Y-77541666D01*
X175860000Y-77427380D01*
X175898095Y-77389285D01*
X175898095Y-77084523D02*
X175860000Y-77046428D01*
X175821904Y-76970238D01*
X175821904Y-76779761D01*
X175860000Y-76703571D01*
X175898095Y-76665476D01*
X175974285Y-76627380D01*
X176050476Y-76627380D01*
X176164761Y-76665476D01*
X176621904Y-77122619D01*
X176621904Y-76627380D01*
X175821904Y-75903571D02*
X175821904Y-76284523D01*
X176202857Y-76322619D01*
X176164761Y-76284523D01*
X176126666Y-76208333D01*
X176126666Y-76017857D01*
X176164761Y-75941666D01*
X176202857Y-75903571D01*
X176279047Y-75865476D01*
X176469523Y-75865476D01*
X176545714Y-75903571D01*
X176583809Y-75941666D01*
X176621904Y-76017857D01*
X176621904Y-76208333D01*
X176583809Y-76284523D01*
X176545714Y-76322619D01*
G04 #@! TO.C,R6*
X156952380Y-91166666D02*
X156476190Y-91500000D01*
X156952380Y-91738095D02*
X155952380Y-91738095D01*
X155952380Y-91357142D01*
X156000000Y-91261904D01*
X156047619Y-91214285D01*
X156142857Y-91166666D01*
X156285714Y-91166666D01*
X156380952Y-91214285D01*
X156428571Y-91261904D01*
X156476190Y-91357142D01*
X156476190Y-91738095D01*
X155952380Y-90309523D02*
X155952380Y-90500000D01*
X156000000Y-90595238D01*
X156047619Y-90642857D01*
X156190476Y-90738095D01*
X156380952Y-90785714D01*
X156761904Y-90785714D01*
X156857142Y-90738095D01*
X156904761Y-90690476D01*
X156952380Y-90595238D01*
X156952380Y-90404761D01*
X156904761Y-90309523D01*
X156857142Y-90261904D01*
X156761904Y-90214285D01*
X156523809Y-90214285D01*
X156428571Y-90261904D01*
X156380952Y-90309523D01*
X156333333Y-90404761D01*
X156333333Y-90595238D01*
X156380952Y-90690476D01*
X156428571Y-90738095D01*
X156523809Y-90785714D01*
G04 #@! TO.C,R15*
X109310714Y-124421763D02*
X109044047Y-124040811D01*
X108853571Y-124421763D02*
X108853571Y-123621763D01*
X109158333Y-123621763D01*
X109234523Y-123659859D01*
X109272619Y-123697954D01*
X109310714Y-123774144D01*
X109310714Y-123888430D01*
X109272619Y-123964620D01*
X109234523Y-124002716D01*
X109158333Y-124040811D01*
X108853571Y-124040811D01*
X110072619Y-124421763D02*
X109615476Y-124421763D01*
X109844047Y-124421763D02*
X109844047Y-123621763D01*
X109767857Y-123736049D01*
X109691666Y-123812239D01*
X109615476Y-123850335D01*
X110796428Y-123621763D02*
X110415476Y-123621763D01*
X110377380Y-124002716D01*
X110415476Y-123964620D01*
X110491666Y-123926525D01*
X110682142Y-123926525D01*
X110758333Y-123964620D01*
X110796428Y-124002716D01*
X110834523Y-124078906D01*
X110834523Y-124269382D01*
X110796428Y-124345573D01*
X110758333Y-124383668D01*
X110682142Y-124421763D01*
X110491666Y-124421763D01*
X110415476Y-124383668D01*
X110377380Y-124345573D01*
G04 #@! TO.C,C32*
X139502142Y-106482142D02*
X139454523Y-106529761D01*
X139311666Y-106577380D01*
X139216428Y-106577380D01*
X139073571Y-106529761D01*
X138978333Y-106434523D01*
X138930714Y-106339285D01*
X138883095Y-106148809D01*
X138883095Y-106005952D01*
X138930714Y-105815476D01*
X138978333Y-105720238D01*
X139073571Y-105625000D01*
X139216428Y-105577380D01*
X139311666Y-105577380D01*
X139454523Y-105625000D01*
X139502142Y-105672619D01*
X139835476Y-105577380D02*
X140454523Y-105577380D01*
X140121190Y-105958333D01*
X140264047Y-105958333D01*
X140359285Y-106005952D01*
X140406904Y-106053571D01*
X140454523Y-106148809D01*
X140454523Y-106386904D01*
X140406904Y-106482142D01*
X140359285Y-106529761D01*
X140264047Y-106577380D01*
X139978333Y-106577380D01*
X139883095Y-106529761D01*
X139835476Y-106482142D01*
X140835476Y-105672619D02*
X140883095Y-105625000D01*
X140978333Y-105577380D01*
X141216428Y-105577380D01*
X141311666Y-105625000D01*
X141359285Y-105672619D01*
X141406904Y-105767857D01*
X141406904Y-105863095D01*
X141359285Y-106005952D01*
X140787857Y-106577380D01*
X141406904Y-106577380D01*
G04 #@! TO.C,C14*
X94025714Y-76114285D02*
X94063809Y-76152380D01*
X94101904Y-76266666D01*
X94101904Y-76342857D01*
X94063809Y-76457142D01*
X93987619Y-76533333D01*
X93911428Y-76571428D01*
X93759047Y-76609523D01*
X93644761Y-76609523D01*
X93492380Y-76571428D01*
X93416190Y-76533333D01*
X93340000Y-76457142D01*
X93301904Y-76342857D01*
X93301904Y-76266666D01*
X93340000Y-76152380D01*
X93378095Y-76114285D01*
X94101904Y-75352380D02*
X94101904Y-75809523D01*
X94101904Y-75580952D02*
X93301904Y-75580952D01*
X93416190Y-75657142D01*
X93492380Y-75733333D01*
X93530476Y-75809523D01*
X93568571Y-74666666D02*
X94101904Y-74666666D01*
X93263809Y-74857142D02*
X93835238Y-75047619D01*
X93835238Y-74552380D01*
G04 #@! TO.C,U8*
X123577380Y-116993954D02*
X124386904Y-116993954D01*
X124482142Y-116946335D01*
X124529761Y-116898716D01*
X124577380Y-116803478D01*
X124577380Y-116613002D01*
X124529761Y-116517764D01*
X124482142Y-116470145D01*
X124386904Y-116422526D01*
X123577380Y-116422526D01*
X124005952Y-115803478D02*
X123958333Y-115898716D01*
X123910714Y-115946335D01*
X123815476Y-115993954D01*
X123767857Y-115993954D01*
X123672619Y-115946335D01*
X123625000Y-115898716D01*
X123577380Y-115803478D01*
X123577380Y-115613002D01*
X123625000Y-115517764D01*
X123672619Y-115470145D01*
X123767857Y-115422526D01*
X123815476Y-115422526D01*
X123910714Y-115470145D01*
X123958333Y-115517764D01*
X124005952Y-115613002D01*
X124005952Y-115803478D01*
X124053571Y-115898716D01*
X124101190Y-115946335D01*
X124196428Y-115993954D01*
X124386904Y-115993954D01*
X124482142Y-115946335D01*
X124529761Y-115898716D01*
X124577380Y-115803478D01*
X124577380Y-115613002D01*
X124529761Y-115517764D01*
X124482142Y-115470145D01*
X124386904Y-115422526D01*
X124196428Y-115422526D01*
X124101190Y-115470145D01*
X124053571Y-115517764D01*
X124005952Y-115613002D01*
D12*
X127940476Y-117446335D02*
X127740476Y-117446335D01*
X127883333Y-117379669D01*
X127740476Y-117313002D01*
X127940476Y-117313002D01*
X127883333Y-117227288D02*
X127883333Y-117132050D01*
X127940476Y-117246335D02*
X127740476Y-117179669D01*
X127940476Y-117113002D01*
X127740476Y-117065383D02*
X127940476Y-116932050D01*
X127740476Y-116932050D02*
X127940476Y-117065383D01*
X127940476Y-116751097D02*
X127940476Y-116865383D01*
X127940476Y-116808240D02*
X127740476Y-116808240D01*
X127769047Y-116827288D01*
X127788095Y-116846335D01*
X127797619Y-116865383D01*
X127740476Y-116684430D02*
X127740476Y-116551097D01*
X127940476Y-116636811D01*
X127740476Y-116436811D02*
X127740476Y-116417764D01*
X127750000Y-116398716D01*
X127759523Y-116389192D01*
X127778571Y-116379669D01*
X127816666Y-116370145D01*
X127864285Y-116370145D01*
X127902380Y-116379669D01*
X127921428Y-116389192D01*
X127930952Y-116398716D01*
X127940476Y-116417764D01*
X127940476Y-116436811D01*
X127930952Y-116455859D01*
X127921428Y-116465383D01*
X127902380Y-116474907D01*
X127864285Y-116484430D01*
X127816666Y-116484430D01*
X127778571Y-116474907D01*
X127759523Y-116465383D01*
X127750000Y-116455859D01*
X127740476Y-116436811D01*
X127807142Y-116198716D02*
X127940476Y-116198716D01*
X127730952Y-116246335D02*
X127873809Y-116293954D01*
X127873809Y-116170145D01*
X127826190Y-116065383D02*
X127816666Y-116084430D01*
X127807142Y-116093954D01*
X127788095Y-116103478D01*
X127778571Y-116103478D01*
X127759523Y-116093954D01*
X127750000Y-116084430D01*
X127740476Y-116065383D01*
X127740476Y-116027288D01*
X127750000Y-116008240D01*
X127759523Y-115998716D01*
X127778571Y-115989192D01*
X127788095Y-115989192D01*
X127807142Y-115998716D01*
X127816666Y-116008240D01*
X127826190Y-116027288D01*
X127826190Y-116065383D01*
X127835714Y-116084430D01*
X127845238Y-116093954D01*
X127864285Y-116103478D01*
X127902380Y-116103478D01*
X127921428Y-116093954D01*
X127930952Y-116084430D01*
X127940476Y-116065383D01*
X127940476Y-116027288D01*
X127930952Y-116008240D01*
X127921428Y-115998716D01*
X127902380Y-115989192D01*
X127864285Y-115989192D01*
X127845238Y-115998716D01*
X127835714Y-116008240D01*
X127826190Y-116027288D01*
X127750000Y-115798716D02*
X127740476Y-115817764D01*
X127740476Y-115846335D01*
X127750000Y-115874907D01*
X127769047Y-115893954D01*
X127788095Y-115903478D01*
X127826190Y-115913002D01*
X127854761Y-115913002D01*
X127892857Y-115903478D01*
X127911904Y-115893954D01*
X127930952Y-115874907D01*
X127940476Y-115846335D01*
X127940476Y-115827288D01*
X127930952Y-115798716D01*
X127921428Y-115789192D01*
X127854761Y-115789192D01*
X127854761Y-115827288D01*
X127864285Y-115703478D02*
X127864285Y-115551097D01*
X127940476Y-115627288D02*
X127788095Y-115627288D01*
X127740476Y-115484430D02*
X127740476Y-115370145D01*
X127940476Y-115427288D02*
X127740476Y-115427288D01*
X127940476Y-115198716D02*
X127940476Y-115313002D01*
X127940476Y-115255859D02*
X127740476Y-115255859D01*
X127769047Y-115274907D01*
X127788095Y-115293954D01*
X127797619Y-115313002D01*
X127740476Y-115074907D02*
X127740476Y-115055859D01*
X127750000Y-115036811D01*
X127759523Y-115027288D01*
X127778571Y-115017764D01*
X127816666Y-115008240D01*
X127864285Y-115008240D01*
X127902380Y-115017764D01*
X127921428Y-115027288D01*
X127930952Y-115036811D01*
X127940476Y-115055859D01*
X127940476Y-115074907D01*
X127930952Y-115093954D01*
X127921428Y-115103478D01*
X127902380Y-115113002D01*
X127864285Y-115122526D01*
X127816666Y-115122526D01*
X127778571Y-115113002D01*
X127759523Y-115103478D01*
X127750000Y-115093954D01*
X127740476Y-115074907D01*
D11*
G04 #@! TO.C,U5*
X110319380Y-79896904D02*
X111128904Y-79896904D01*
X111224142Y-79849285D01*
X111271761Y-79801666D01*
X111319380Y-79706428D01*
X111319380Y-79515952D01*
X111271761Y-79420714D01*
X111224142Y-79373095D01*
X111128904Y-79325476D01*
X110319380Y-79325476D01*
X110319380Y-78373095D02*
X110319380Y-78849285D01*
X110795571Y-78896904D01*
X110747952Y-78849285D01*
X110700333Y-78754047D01*
X110700333Y-78515952D01*
X110747952Y-78420714D01*
X110795571Y-78373095D01*
X110890809Y-78325476D01*
X111128904Y-78325476D01*
X111224142Y-78373095D01*
X111271761Y-78420714D01*
X111319380Y-78515952D01*
X111319380Y-78754047D01*
X111271761Y-78849285D01*
X111224142Y-78896904D01*
G04 #@! TO.C,C21*
X139785714Y-71275714D02*
X139747619Y-71313809D01*
X139633333Y-71351904D01*
X139557142Y-71351904D01*
X139442857Y-71313809D01*
X139366666Y-71237619D01*
X139328571Y-71161428D01*
X139290476Y-71009047D01*
X139290476Y-70894761D01*
X139328571Y-70742380D01*
X139366666Y-70666190D01*
X139442857Y-70590000D01*
X139557142Y-70551904D01*
X139633333Y-70551904D01*
X139747619Y-70590000D01*
X139785714Y-70628095D01*
X140090476Y-70628095D02*
X140128571Y-70590000D01*
X140204761Y-70551904D01*
X140395238Y-70551904D01*
X140471428Y-70590000D01*
X140509523Y-70628095D01*
X140547619Y-70704285D01*
X140547619Y-70780476D01*
X140509523Y-70894761D01*
X140052380Y-71351904D01*
X140547619Y-71351904D01*
X141309523Y-71351904D02*
X140852380Y-71351904D01*
X141080952Y-71351904D02*
X141080952Y-70551904D01*
X141004761Y-70666190D01*
X140928571Y-70742380D01*
X140852380Y-70780476D01*
G04 #@! TO.C,C19*
X157785714Y-71275714D02*
X157747619Y-71313809D01*
X157633333Y-71351904D01*
X157557142Y-71351904D01*
X157442857Y-71313809D01*
X157366666Y-71237619D01*
X157328571Y-71161428D01*
X157290476Y-71009047D01*
X157290476Y-70894761D01*
X157328571Y-70742380D01*
X157366666Y-70666190D01*
X157442857Y-70590000D01*
X157557142Y-70551904D01*
X157633333Y-70551904D01*
X157747619Y-70590000D01*
X157785714Y-70628095D01*
X158547619Y-71351904D02*
X158090476Y-71351904D01*
X158319047Y-71351904D02*
X158319047Y-70551904D01*
X158242857Y-70666190D01*
X158166666Y-70742380D01*
X158090476Y-70780476D01*
X158928571Y-71351904D02*
X159080952Y-71351904D01*
X159157142Y-71313809D01*
X159195238Y-71275714D01*
X159271428Y-71161428D01*
X159309523Y-71009047D01*
X159309523Y-70704285D01*
X159271428Y-70628095D01*
X159233333Y-70590000D01*
X159157142Y-70551904D01*
X159004761Y-70551904D01*
X158928571Y-70590000D01*
X158890476Y-70628095D01*
X158852380Y-70704285D01*
X158852380Y-70894761D01*
X158890476Y-70970952D01*
X158928571Y-71009047D01*
X159004761Y-71047142D01*
X159157142Y-71047142D01*
X159233333Y-71009047D01*
X159271428Y-70970952D01*
X159309523Y-70894761D01*
G04 #@! TO.C,C8*
X131133333Y-74407142D02*
X131085714Y-74454761D01*
X130942857Y-74502380D01*
X130847619Y-74502380D01*
X130704761Y-74454761D01*
X130609523Y-74359523D01*
X130561904Y-74264285D01*
X130514285Y-74073809D01*
X130514285Y-73930952D01*
X130561904Y-73740476D01*
X130609523Y-73645238D01*
X130704761Y-73550000D01*
X130847619Y-73502380D01*
X130942857Y-73502380D01*
X131085714Y-73550000D01*
X131133333Y-73597619D01*
X131704761Y-73930952D02*
X131609523Y-73883333D01*
X131561904Y-73835714D01*
X131514285Y-73740476D01*
X131514285Y-73692857D01*
X131561904Y-73597619D01*
X131609523Y-73550000D01*
X131704761Y-73502380D01*
X131895238Y-73502380D01*
X131990476Y-73550000D01*
X132038095Y-73597619D01*
X132085714Y-73692857D01*
X132085714Y-73740476D01*
X132038095Y-73835714D01*
X131990476Y-73883333D01*
X131895238Y-73930952D01*
X131704761Y-73930952D01*
X131609523Y-73978571D01*
X131561904Y-74026190D01*
X131514285Y-74121428D01*
X131514285Y-74311904D01*
X131561904Y-74407142D01*
X131609523Y-74454761D01*
X131704761Y-74502380D01*
X131895238Y-74502380D01*
X131990476Y-74454761D01*
X132038095Y-74407142D01*
X132085714Y-74311904D01*
X132085714Y-74121428D01*
X132038095Y-74026190D01*
X131990476Y-73978571D01*
X131895238Y-73930952D01*
G04 #@! TO.C,U2*
X164369380Y-79896904D02*
X165178904Y-79896904D01*
X165274142Y-79849285D01*
X165321761Y-79801666D01*
X165369380Y-79706428D01*
X165369380Y-79515952D01*
X165321761Y-79420714D01*
X165274142Y-79373095D01*
X165178904Y-79325476D01*
X164369380Y-79325476D01*
X164464619Y-78896904D02*
X164417000Y-78849285D01*
X164369380Y-78754047D01*
X164369380Y-78515952D01*
X164417000Y-78420714D01*
X164464619Y-78373095D01*
X164559857Y-78325476D01*
X164655095Y-78325476D01*
X164797952Y-78373095D01*
X165369380Y-78944523D01*
X165369380Y-78325476D01*
G04 #@! TO.C,R8*
X145313333Y-125772380D02*
X144980000Y-125296190D01*
X144741904Y-125772380D02*
X144741904Y-124772380D01*
X145122857Y-124772380D01*
X145218095Y-124820000D01*
X145265714Y-124867619D01*
X145313333Y-124962857D01*
X145313333Y-125105714D01*
X145265714Y-125200952D01*
X145218095Y-125248571D01*
X145122857Y-125296190D01*
X144741904Y-125296190D01*
X145884761Y-125200952D02*
X145789523Y-125153333D01*
X145741904Y-125105714D01*
X145694285Y-125010476D01*
X145694285Y-124962857D01*
X145741904Y-124867619D01*
X145789523Y-124820000D01*
X145884761Y-124772380D01*
X146075238Y-124772380D01*
X146170476Y-124820000D01*
X146218095Y-124867619D01*
X146265714Y-124962857D01*
X146265714Y-125010476D01*
X146218095Y-125105714D01*
X146170476Y-125153333D01*
X146075238Y-125200952D01*
X145884761Y-125200952D01*
X145789523Y-125248571D01*
X145741904Y-125296190D01*
X145694285Y-125391428D01*
X145694285Y-125581904D01*
X145741904Y-125677142D01*
X145789523Y-125724761D01*
X145884761Y-125772380D01*
X146075238Y-125772380D01*
X146170476Y-125724761D01*
X146218095Y-125677142D01*
X146265714Y-125581904D01*
X146265714Y-125391428D01*
X146218095Y-125296190D01*
X146170476Y-125248571D01*
X146075238Y-125200952D01*
G04 #@! TO.C,R16*
X112010714Y-124421763D02*
X111744047Y-124040811D01*
X111553571Y-124421763D02*
X111553571Y-123621763D01*
X111858333Y-123621763D01*
X111934523Y-123659859D01*
X111972619Y-123697954D01*
X112010714Y-123774144D01*
X112010714Y-123888430D01*
X111972619Y-123964620D01*
X111934523Y-124002716D01*
X111858333Y-124040811D01*
X111553571Y-124040811D01*
X112772619Y-124421763D02*
X112315476Y-124421763D01*
X112544047Y-124421763D02*
X112544047Y-123621763D01*
X112467857Y-123736049D01*
X112391666Y-123812239D01*
X112315476Y-123850335D01*
X113458333Y-123621763D02*
X113305952Y-123621763D01*
X113229761Y-123659859D01*
X113191666Y-123697954D01*
X113115476Y-123812239D01*
X113077380Y-123964620D01*
X113077380Y-124269382D01*
X113115476Y-124345573D01*
X113153571Y-124383668D01*
X113229761Y-124421763D01*
X113382142Y-124421763D01*
X113458333Y-124383668D01*
X113496428Y-124345573D01*
X113534523Y-124269382D01*
X113534523Y-124078906D01*
X113496428Y-124002716D01*
X113458333Y-123964620D01*
X113382142Y-123926525D01*
X113229761Y-123926525D01*
X113153571Y-123964620D01*
X113115476Y-124002716D01*
X113077380Y-124078906D01*
G04 #@! TO.C,C29*
X103885714Y-71275714D02*
X103847619Y-71313809D01*
X103733333Y-71351904D01*
X103657142Y-71351904D01*
X103542857Y-71313809D01*
X103466666Y-71237619D01*
X103428571Y-71161428D01*
X103390476Y-71009047D01*
X103390476Y-70894761D01*
X103428571Y-70742380D01*
X103466666Y-70666190D01*
X103542857Y-70590000D01*
X103657142Y-70551904D01*
X103733333Y-70551904D01*
X103847619Y-70590000D01*
X103885714Y-70628095D01*
X104190476Y-70628095D02*
X104228571Y-70590000D01*
X104304761Y-70551904D01*
X104495238Y-70551904D01*
X104571428Y-70590000D01*
X104609523Y-70628095D01*
X104647619Y-70704285D01*
X104647619Y-70780476D01*
X104609523Y-70894761D01*
X104152380Y-71351904D01*
X104647619Y-71351904D01*
X105028571Y-71351904D02*
X105180952Y-71351904D01*
X105257142Y-71313809D01*
X105295238Y-71275714D01*
X105371428Y-71161428D01*
X105409523Y-71009047D01*
X105409523Y-70704285D01*
X105371428Y-70628095D01*
X105333333Y-70590000D01*
X105257142Y-70551904D01*
X105104761Y-70551904D01*
X105028571Y-70590000D01*
X104990476Y-70628095D01*
X104952380Y-70704285D01*
X104952380Y-70894761D01*
X104990476Y-70970952D01*
X105028571Y-71009047D01*
X105104761Y-71047142D01*
X105257142Y-71047142D01*
X105333333Y-71009047D01*
X105371428Y-70970952D01*
X105409523Y-70894761D01*
G04 #@! TO.C,R3*
X149452380Y-91166666D02*
X148976190Y-91500000D01*
X149452380Y-91738095D02*
X148452380Y-91738095D01*
X148452380Y-91357142D01*
X148500000Y-91261904D01*
X148547619Y-91214285D01*
X148642857Y-91166666D01*
X148785714Y-91166666D01*
X148880952Y-91214285D01*
X148928571Y-91261904D01*
X148976190Y-91357142D01*
X148976190Y-91738095D01*
X148452380Y-90833333D02*
X148452380Y-90214285D01*
X148833333Y-90547619D01*
X148833333Y-90404761D01*
X148880952Y-90309523D01*
X148928571Y-90261904D01*
X149023809Y-90214285D01*
X149261904Y-90214285D01*
X149357142Y-90261904D01*
X149404761Y-90309523D01*
X149452380Y-90404761D01*
X149452380Y-90690476D01*
X149404761Y-90785714D01*
X149357142Y-90833333D01*
G04 #@! TO.C,C3*
X149133333Y-74407142D02*
X149085714Y-74454761D01*
X148942857Y-74502380D01*
X148847619Y-74502380D01*
X148704761Y-74454761D01*
X148609523Y-74359523D01*
X148561904Y-74264285D01*
X148514285Y-74073809D01*
X148514285Y-73930952D01*
X148561904Y-73740476D01*
X148609523Y-73645238D01*
X148704761Y-73550000D01*
X148847619Y-73502380D01*
X148942857Y-73502380D01*
X149085714Y-73550000D01*
X149133333Y-73597619D01*
X149466666Y-73502380D02*
X150085714Y-73502380D01*
X149752380Y-73883333D01*
X149895238Y-73883333D01*
X149990476Y-73930952D01*
X150038095Y-73978571D01*
X150085714Y-74073809D01*
X150085714Y-74311904D01*
X150038095Y-74407142D01*
X149990476Y-74454761D01*
X149895238Y-74502380D01*
X149609523Y-74502380D01*
X149514285Y-74454761D01*
X149466666Y-74407142D01*
G04 #@! TO.C,M3*
X107390476Y-72652380D02*
X107390476Y-71652380D01*
X107723809Y-72366666D01*
X108057142Y-71652380D01*
X108057142Y-72652380D01*
X108438095Y-71652380D02*
X109057142Y-71652380D01*
X108723809Y-72033333D01*
X108866666Y-72033333D01*
X108961904Y-72080952D01*
X109009523Y-72128571D01*
X109057142Y-72223809D01*
X109057142Y-72461904D01*
X109009523Y-72557142D01*
X108961904Y-72604761D01*
X108866666Y-72652380D01*
X108580952Y-72652380D01*
X108485714Y-72604761D01*
X108438095Y-72557142D01*
G04 #@! TO.C,C24*
X176545714Y-86339284D02*
X176583809Y-86377379D01*
X176621904Y-86491665D01*
X176621904Y-86567856D01*
X176583809Y-86682141D01*
X176507619Y-86758332D01*
X176431428Y-86796427D01*
X176279047Y-86834522D01*
X176164761Y-86834522D01*
X176012380Y-86796427D01*
X175936190Y-86758332D01*
X175860000Y-86682141D01*
X175821904Y-86567856D01*
X175821904Y-86491665D01*
X175860000Y-86377379D01*
X175898095Y-86339284D01*
X175898095Y-86034522D02*
X175860000Y-85996427D01*
X175821904Y-85920237D01*
X175821904Y-85729760D01*
X175860000Y-85653570D01*
X175898095Y-85615475D01*
X175974285Y-85577379D01*
X176050476Y-85577379D01*
X176164761Y-85615475D01*
X176621904Y-86072618D01*
X176621904Y-85577379D01*
X176088571Y-84891665D02*
X176621904Y-84891665D01*
X175783809Y-85082141D02*
X176355238Y-85272618D01*
X176355238Y-84777379D01*
G04 #@! TO.C,M2*
X125390476Y-72652380D02*
X125390476Y-71652380D01*
X125723809Y-72366666D01*
X126057142Y-71652380D01*
X126057142Y-72652380D01*
X126485714Y-71747619D02*
X126533333Y-71700000D01*
X126628571Y-71652380D01*
X126866666Y-71652380D01*
X126961904Y-71700000D01*
X127009523Y-71747619D01*
X127057142Y-71842857D01*
X127057142Y-71938095D01*
X127009523Y-72080952D01*
X126438095Y-72652380D01*
X127057142Y-72652380D01*
G04 #@! TO.C,R4*
X151952380Y-91166666D02*
X151476190Y-91500000D01*
X151952380Y-91738095D02*
X150952380Y-91738095D01*
X150952380Y-91357142D01*
X151000000Y-91261904D01*
X151047619Y-91214285D01*
X151142857Y-91166666D01*
X151285714Y-91166666D01*
X151380952Y-91214285D01*
X151428571Y-91261904D01*
X151476190Y-91357142D01*
X151476190Y-91738095D01*
X151285714Y-90309523D02*
X151952380Y-90309523D01*
X150904761Y-90547619D02*
X151619047Y-90785714D01*
X151619047Y-90166666D01*
G04 #@! TO.C,C6*
X165466666Y-81585714D02*
X165428571Y-81623809D01*
X165314285Y-81661904D01*
X165238095Y-81661904D01*
X165123809Y-81623809D01*
X165047619Y-81547619D01*
X165009523Y-81471428D01*
X164971428Y-81319047D01*
X164971428Y-81204761D01*
X165009523Y-81052380D01*
X165047619Y-80976190D01*
X165123809Y-80900000D01*
X165238095Y-80861904D01*
X165314285Y-80861904D01*
X165428571Y-80900000D01*
X165466666Y-80938095D01*
X166152380Y-80861904D02*
X166000000Y-80861904D01*
X165923809Y-80900000D01*
X165885714Y-80938095D01*
X165809523Y-81052380D01*
X165771428Y-81204761D01*
X165771428Y-81509523D01*
X165809523Y-81585714D01*
X165847619Y-81623809D01*
X165923809Y-81661904D01*
X166076190Y-81661904D01*
X166152380Y-81623809D01*
X166190476Y-81585714D01*
X166228571Y-81509523D01*
X166228571Y-81319047D01*
X166190476Y-81242857D01*
X166152380Y-81204761D01*
X166076190Y-81166666D01*
X165923809Y-81166666D01*
X165847619Y-81204761D01*
X165809523Y-81242857D01*
X165771428Y-81319047D01*
G04 #@! TO.C,C10*
X130485714Y-76035714D02*
X130447619Y-76073809D01*
X130333333Y-76111904D01*
X130257142Y-76111904D01*
X130142857Y-76073809D01*
X130066666Y-75997619D01*
X130028571Y-75921428D01*
X129990476Y-75769047D01*
X129990476Y-75654761D01*
X130028571Y-75502380D01*
X130066666Y-75426190D01*
X130142857Y-75350000D01*
X130257142Y-75311904D01*
X130333333Y-75311904D01*
X130447619Y-75350000D01*
X130485714Y-75388095D01*
X131247619Y-76111904D02*
X130790476Y-76111904D01*
X131019047Y-76111904D02*
X131019047Y-75311904D01*
X130942857Y-75426190D01*
X130866666Y-75502380D01*
X130790476Y-75540476D01*
X131742857Y-75311904D02*
X131819047Y-75311904D01*
X131895238Y-75350000D01*
X131933333Y-75388095D01*
X131971428Y-75464285D01*
X132009523Y-75616666D01*
X132009523Y-75807142D01*
X131971428Y-75959523D01*
X131933333Y-76035714D01*
X131895238Y-76073809D01*
X131819047Y-76111904D01*
X131742857Y-76111904D01*
X131666666Y-76073809D01*
X131628571Y-76035714D01*
X131590476Y-75959523D01*
X131552380Y-75807142D01*
X131552380Y-75616666D01*
X131590476Y-75464285D01*
X131628571Y-75388095D01*
X131666666Y-75350000D01*
X131742857Y-75311904D01*
G04 #@! TO.C,C2*
X167158333Y-74407142D02*
X167110714Y-74454761D01*
X166967857Y-74502380D01*
X166872619Y-74502380D01*
X166729761Y-74454761D01*
X166634523Y-74359523D01*
X166586904Y-74264285D01*
X166539285Y-74073809D01*
X166539285Y-73930952D01*
X166586904Y-73740476D01*
X166634523Y-73645238D01*
X166729761Y-73550000D01*
X166872619Y-73502380D01*
X166967857Y-73502380D01*
X167110714Y-73550000D01*
X167158333Y-73597619D01*
X167539285Y-73597619D02*
X167586904Y-73550000D01*
X167682142Y-73502380D01*
X167920238Y-73502380D01*
X168015476Y-73550000D01*
X168063095Y-73597619D01*
X168110714Y-73692857D01*
X168110714Y-73788095D01*
X168063095Y-73930952D01*
X167491666Y-74502380D01*
X168110714Y-74502380D01*
G04 #@! TO.C,C33*
X107752142Y-118942857D02*
X107799761Y-118990476D01*
X107847380Y-119133333D01*
X107847380Y-119228571D01*
X107799761Y-119371428D01*
X107704523Y-119466666D01*
X107609285Y-119514285D01*
X107418809Y-119561904D01*
X107275952Y-119561904D01*
X107085476Y-119514285D01*
X106990238Y-119466666D01*
X106895000Y-119371428D01*
X106847380Y-119228571D01*
X106847380Y-119133333D01*
X106895000Y-118990476D01*
X106942619Y-118942857D01*
X106847380Y-118609523D02*
X106847380Y-117990476D01*
X107228333Y-118323809D01*
X107228333Y-118180952D01*
X107275952Y-118085714D01*
X107323571Y-118038095D01*
X107418809Y-117990476D01*
X107656904Y-117990476D01*
X107752142Y-118038095D01*
X107799761Y-118085714D01*
X107847380Y-118180952D01*
X107847380Y-118466666D01*
X107799761Y-118561904D01*
X107752142Y-118609523D01*
X106847380Y-117657142D02*
X106847380Y-117038095D01*
X107228333Y-117371428D01*
X107228333Y-117228571D01*
X107275952Y-117133333D01*
X107323571Y-117085714D01*
X107418809Y-117038095D01*
X107656904Y-117038095D01*
X107752142Y-117085714D01*
X107799761Y-117133333D01*
X107847380Y-117228571D01*
X107847380Y-117514285D01*
X107799761Y-117609523D01*
X107752142Y-117657142D01*
G04 #@! TO.C,C17*
X94025714Y-103089285D02*
X94063809Y-103127380D01*
X94101904Y-103241666D01*
X94101904Y-103317857D01*
X94063809Y-103432142D01*
X93987619Y-103508333D01*
X93911428Y-103546428D01*
X93759047Y-103584523D01*
X93644761Y-103584523D01*
X93492380Y-103546428D01*
X93416190Y-103508333D01*
X93340000Y-103432142D01*
X93301904Y-103317857D01*
X93301904Y-103241666D01*
X93340000Y-103127380D01*
X93378095Y-103089285D01*
X94101904Y-102327380D02*
X94101904Y-102784523D01*
X94101904Y-102555952D02*
X93301904Y-102555952D01*
X93416190Y-102632142D01*
X93492380Y-102708333D01*
X93530476Y-102784523D01*
X93301904Y-102060714D02*
X93301904Y-101527380D01*
X94101904Y-101870238D01*
G04 #@! TO.C,R1*
X144452380Y-91166666D02*
X143976190Y-91500000D01*
X144452380Y-91738095D02*
X143452380Y-91738095D01*
X143452380Y-91357142D01*
X143500000Y-91261904D01*
X143547619Y-91214285D01*
X143642857Y-91166666D01*
X143785714Y-91166666D01*
X143880952Y-91214285D01*
X143928571Y-91261904D01*
X143976190Y-91357142D01*
X143976190Y-91738095D01*
X144452380Y-90214285D02*
X144452380Y-90785714D01*
X144452380Y-90500000D02*
X143452380Y-90500000D01*
X143595238Y-90595238D01*
X143690476Y-90690476D01*
X143738095Y-90785714D01*
G04 #@! TO.C,U1*
X130077380Y-95086903D02*
X130886904Y-95086903D01*
X130982142Y-95039284D01*
X131029761Y-94991665D01*
X131077380Y-94896427D01*
X131077380Y-94705951D01*
X131029761Y-94610713D01*
X130982142Y-94563094D01*
X130886904Y-94515475D01*
X130077380Y-94515475D01*
X131077380Y-93515475D02*
X131077380Y-94086903D01*
X131077380Y-93801189D02*
X130077380Y-93801189D01*
X130220238Y-93896427D01*
X130315476Y-93991665D01*
X130363095Y-94086903D01*
G04 #@! TO.C,C27*
X121835714Y-71275714D02*
X121797619Y-71313809D01*
X121683333Y-71351904D01*
X121607142Y-71351904D01*
X121492857Y-71313809D01*
X121416666Y-71237619D01*
X121378571Y-71161428D01*
X121340476Y-71009047D01*
X121340476Y-70894761D01*
X121378571Y-70742380D01*
X121416666Y-70666190D01*
X121492857Y-70590000D01*
X121607142Y-70551904D01*
X121683333Y-70551904D01*
X121797619Y-70590000D01*
X121835714Y-70628095D01*
X122140476Y-70628095D02*
X122178571Y-70590000D01*
X122254761Y-70551904D01*
X122445238Y-70551904D01*
X122521428Y-70590000D01*
X122559523Y-70628095D01*
X122597619Y-70704285D01*
X122597619Y-70780476D01*
X122559523Y-70894761D01*
X122102380Y-71351904D01*
X122597619Y-71351904D01*
X122864285Y-70551904D02*
X123397619Y-70551904D01*
X123054761Y-71351904D01*
G04 #@! TO.C,C35*
X123357142Y-120107142D02*
X123309523Y-120154761D01*
X123166666Y-120202380D01*
X123071428Y-120202380D01*
X122928571Y-120154761D01*
X122833333Y-120059523D01*
X122785714Y-119964285D01*
X122738095Y-119773809D01*
X122738095Y-119630952D01*
X122785714Y-119440476D01*
X122833333Y-119345238D01*
X122928571Y-119250000D01*
X123071428Y-119202380D01*
X123166666Y-119202380D01*
X123309523Y-119250000D01*
X123357142Y-119297619D01*
X123690476Y-119202380D02*
X124309523Y-119202380D01*
X123976190Y-119583333D01*
X124119047Y-119583333D01*
X124214285Y-119630952D01*
X124261904Y-119678571D01*
X124309523Y-119773809D01*
X124309523Y-120011904D01*
X124261904Y-120107142D01*
X124214285Y-120154761D01*
X124119047Y-120202380D01*
X123833333Y-120202380D01*
X123738095Y-120154761D01*
X123690476Y-120107142D01*
X125214285Y-119202380D02*
X124738095Y-119202380D01*
X124690476Y-119678571D01*
X124738095Y-119630952D01*
X124833333Y-119583333D01*
X125071428Y-119583333D01*
X125166666Y-119630952D01*
X125214285Y-119678571D01*
X125261904Y-119773809D01*
X125261904Y-120011904D01*
X125214285Y-120107142D01*
X125166666Y-120154761D01*
X125071428Y-120202380D01*
X124833333Y-120202380D01*
X124738095Y-120154761D01*
X124690476Y-120107142D01*
G04 #@! TO.C,U6*
X143337380Y-112286904D02*
X144146904Y-112286904D01*
X144242142Y-112239285D01*
X144289761Y-112191666D01*
X144337380Y-112096428D01*
X144337380Y-111905952D01*
X144289761Y-111810714D01*
X144242142Y-111763095D01*
X144146904Y-111715476D01*
X143337380Y-111715476D01*
X143337380Y-110810714D02*
X143337380Y-111001190D01*
X143385000Y-111096428D01*
X143432619Y-111144047D01*
X143575476Y-111239285D01*
X143765952Y-111286904D01*
X144146904Y-111286904D01*
X144242142Y-111239285D01*
X144289761Y-111191666D01*
X144337380Y-111096428D01*
X144337380Y-110905952D01*
X144289761Y-110810714D01*
X144242142Y-110763095D01*
X144146904Y-110715476D01*
X143908809Y-110715476D01*
X143813571Y-110763095D01*
X143765952Y-110810714D01*
X143718333Y-110905952D01*
X143718333Y-111096428D01*
X143765952Y-111191666D01*
X143813571Y-111239285D01*
X143908809Y-111286904D01*
G04 #@! TO.C,C11*
X112485714Y-76035714D02*
X112447619Y-76073809D01*
X112333333Y-76111904D01*
X112257142Y-76111904D01*
X112142857Y-76073809D01*
X112066666Y-75997619D01*
X112028571Y-75921428D01*
X111990476Y-75769047D01*
X111990476Y-75654761D01*
X112028571Y-75502380D01*
X112066666Y-75426190D01*
X112142857Y-75350000D01*
X112257142Y-75311904D01*
X112333333Y-75311904D01*
X112447619Y-75350000D01*
X112485714Y-75388095D01*
X113247619Y-76111904D02*
X112790476Y-76111904D01*
X113019047Y-76111904D02*
X113019047Y-75311904D01*
X112942857Y-75426190D01*
X112866666Y-75502380D01*
X112790476Y-75540476D01*
X114009523Y-76111904D02*
X113552380Y-76111904D01*
X113780952Y-76111904D02*
X113780952Y-75311904D01*
X113704761Y-75426190D01*
X113628571Y-75502380D01*
X113552380Y-75540476D01*
G04 #@! TO.C,R12*
X106100714Y-122111904D02*
X105834047Y-121730952D01*
X105643571Y-122111904D02*
X105643571Y-121311904D01*
X105948333Y-121311904D01*
X106024523Y-121350000D01*
X106062619Y-121388095D01*
X106100714Y-121464285D01*
X106100714Y-121578571D01*
X106062619Y-121654761D01*
X106024523Y-121692857D01*
X105948333Y-121730952D01*
X105643571Y-121730952D01*
X106862619Y-122111904D02*
X106405476Y-122111904D01*
X106634047Y-122111904D02*
X106634047Y-121311904D01*
X106557857Y-121426190D01*
X106481666Y-121502380D01*
X106405476Y-121540476D01*
X107167380Y-121388095D02*
X107205476Y-121350000D01*
X107281666Y-121311904D01*
X107472142Y-121311904D01*
X107548333Y-121350000D01*
X107586428Y-121388095D01*
X107624523Y-121464285D01*
X107624523Y-121540476D01*
X107586428Y-121654761D01*
X107129285Y-122111904D01*
X107624523Y-122111904D01*
G04 #@! TO.C,C22*
X176545714Y-104339285D02*
X176583809Y-104377380D01*
X176621904Y-104491666D01*
X176621904Y-104567857D01*
X176583809Y-104682142D01*
X176507619Y-104758333D01*
X176431428Y-104796428D01*
X176279047Y-104834523D01*
X176164761Y-104834523D01*
X176012380Y-104796428D01*
X175936190Y-104758333D01*
X175860000Y-104682142D01*
X175821904Y-104567857D01*
X175821904Y-104491666D01*
X175860000Y-104377380D01*
X175898095Y-104339285D01*
X175898095Y-104034523D02*
X175860000Y-103996428D01*
X175821904Y-103920238D01*
X175821904Y-103729761D01*
X175860000Y-103653571D01*
X175898095Y-103615476D01*
X175974285Y-103577380D01*
X176050476Y-103577380D01*
X176164761Y-103615476D01*
X176621904Y-104072619D01*
X176621904Y-103577380D01*
X175898095Y-103272619D02*
X175860000Y-103234523D01*
X175821904Y-103158333D01*
X175821904Y-102967857D01*
X175860000Y-102891666D01*
X175898095Y-102853571D01*
X175974285Y-102815476D01*
X176050476Y-102815476D01*
X176164761Y-102853571D01*
X176621904Y-103310714D01*
X176621904Y-102815476D01*
G04 #@! TO.C,C7*
X147416666Y-81585714D02*
X147378571Y-81623809D01*
X147264285Y-81661904D01*
X147188095Y-81661904D01*
X147073809Y-81623809D01*
X146997619Y-81547619D01*
X146959523Y-81471428D01*
X146921428Y-81319047D01*
X146921428Y-81204761D01*
X146959523Y-81052380D01*
X146997619Y-80976190D01*
X147073809Y-80900000D01*
X147188095Y-80861904D01*
X147264285Y-80861904D01*
X147378571Y-80900000D01*
X147416666Y-80938095D01*
X147683333Y-80861904D02*
X148216666Y-80861904D01*
X147873809Y-81661904D01*
G04 #@! TO.C,U4*
X128319380Y-79896904D02*
X129128904Y-79896904D01*
X129224142Y-79849285D01*
X129271761Y-79801666D01*
X129319380Y-79706428D01*
X129319380Y-79515952D01*
X129271761Y-79420714D01*
X129224142Y-79373095D01*
X129128904Y-79325476D01*
X128319380Y-79325476D01*
X128652714Y-78420714D02*
X129319380Y-78420714D01*
X128271761Y-78658809D02*
X128986047Y-78896904D01*
X128986047Y-78277857D01*
G04 #@! TO.C,C30*
X146782142Y-122557142D02*
X146734523Y-122604761D01*
X146591666Y-122652380D01*
X146496428Y-122652380D01*
X146353571Y-122604761D01*
X146258333Y-122509523D01*
X146210714Y-122414285D01*
X146163095Y-122223809D01*
X146163095Y-122080952D01*
X146210714Y-121890476D01*
X146258333Y-121795238D01*
X146353571Y-121700000D01*
X146496428Y-121652380D01*
X146591666Y-121652380D01*
X146734523Y-121700000D01*
X146782142Y-121747619D01*
X147115476Y-121652380D02*
X147734523Y-121652380D01*
X147401190Y-122033333D01*
X147544047Y-122033333D01*
X147639285Y-122080952D01*
X147686904Y-122128571D01*
X147734523Y-122223809D01*
X147734523Y-122461904D01*
X147686904Y-122557142D01*
X147639285Y-122604761D01*
X147544047Y-122652380D01*
X147258333Y-122652380D01*
X147163095Y-122604761D01*
X147115476Y-122557142D01*
X148353571Y-121652380D02*
X148448809Y-121652380D01*
X148544047Y-121700000D01*
X148591666Y-121747619D01*
X148639285Y-121842857D01*
X148686904Y-122033333D01*
X148686904Y-122271428D01*
X148639285Y-122461904D01*
X148591666Y-122557142D01*
X148544047Y-122604761D01*
X148448809Y-122652380D01*
X148353571Y-122652380D01*
X148258333Y-122604761D01*
X148210714Y-122557142D01*
X148163095Y-122461904D01*
X148115476Y-122271428D01*
X148115476Y-122033333D01*
X148163095Y-121842857D01*
X148210714Y-121747619D01*
X148258333Y-121700000D01*
X148353571Y-121652380D01*
G04 #@! TO.C,R13*
X135935714Y-116736904D02*
X135669047Y-116355952D01*
X135478571Y-116736904D02*
X135478571Y-115936904D01*
X135783333Y-115936904D01*
X135859523Y-115975000D01*
X135897619Y-116013095D01*
X135935714Y-116089285D01*
X135935714Y-116203571D01*
X135897619Y-116279761D01*
X135859523Y-116317857D01*
X135783333Y-116355952D01*
X135478571Y-116355952D01*
X136697619Y-116736904D02*
X136240476Y-116736904D01*
X136469047Y-116736904D02*
X136469047Y-115936904D01*
X136392857Y-116051190D01*
X136316666Y-116127380D01*
X136240476Y-116165476D01*
X136964285Y-115936904D02*
X137459523Y-115936904D01*
X137192857Y-116241666D01*
X137307142Y-116241666D01*
X137383333Y-116279761D01*
X137421428Y-116317857D01*
X137459523Y-116394047D01*
X137459523Y-116584523D01*
X137421428Y-116660714D01*
X137383333Y-116698809D01*
X137307142Y-116736904D01*
X137078571Y-116736904D01*
X137002380Y-116698809D01*
X136964285Y-116660714D01*
G04 #@! TO.C,R2*
X146952380Y-91166666D02*
X146476190Y-91500000D01*
X146952380Y-91738095D02*
X145952380Y-91738095D01*
X145952380Y-91357142D01*
X146000000Y-91261904D01*
X146047619Y-91214285D01*
X146142857Y-91166666D01*
X146285714Y-91166666D01*
X146380952Y-91214285D01*
X146428571Y-91261904D01*
X146476190Y-91357142D01*
X146476190Y-91738095D01*
X146047619Y-90785714D02*
X146000000Y-90738095D01*
X145952380Y-90642857D01*
X145952380Y-90404761D01*
X146000000Y-90309523D01*
X146047619Y-90261904D01*
X146142857Y-90214285D01*
X146238095Y-90214285D01*
X146380952Y-90261904D01*
X146952380Y-90833333D01*
X146952380Y-90214285D01*
G04 #@! TO.C,J3*
X164666666Y-83192380D02*
X164666666Y-83906666D01*
X164619047Y-84049523D01*
X164523809Y-84144761D01*
X164380952Y-84192380D01*
X164285714Y-84192380D01*
X165047619Y-83192380D02*
X165666666Y-83192380D01*
X165333333Y-83573333D01*
X165476190Y-83573333D01*
X165571428Y-83620952D01*
X165619047Y-83668571D01*
X165666666Y-83763809D01*
X165666666Y-84001904D01*
X165619047Y-84097142D01*
X165571428Y-84144761D01*
X165476190Y-84192380D01*
X165190476Y-84192380D01*
X165095238Y-84144761D01*
X165047619Y-84097142D01*
G04 #@! TO.C,C16*
X94025714Y-94064285D02*
X94063809Y-94102380D01*
X94101904Y-94216666D01*
X94101904Y-94292857D01*
X94063809Y-94407142D01*
X93987619Y-94483333D01*
X93911428Y-94521428D01*
X93759047Y-94559523D01*
X93644761Y-94559523D01*
X93492380Y-94521428D01*
X93416190Y-94483333D01*
X93340000Y-94407142D01*
X93301904Y-94292857D01*
X93301904Y-94216666D01*
X93340000Y-94102380D01*
X93378095Y-94064285D01*
X94101904Y-93302380D02*
X94101904Y-93759523D01*
X94101904Y-93530952D02*
X93301904Y-93530952D01*
X93416190Y-93607142D01*
X93492380Y-93683333D01*
X93530476Y-93759523D01*
X93301904Y-92616666D02*
X93301904Y-92769047D01*
X93340000Y-92845238D01*
X93378095Y-92883333D01*
X93492380Y-92959523D01*
X93644761Y-92997619D01*
X93949523Y-92997619D01*
X94025714Y-92959523D01*
X94063809Y-92921428D01*
X94101904Y-92845238D01*
X94101904Y-92692857D01*
X94063809Y-92616666D01*
X94025714Y-92578571D01*
X93949523Y-92540476D01*
X93759047Y-92540476D01*
X93682857Y-92578571D01*
X93644761Y-92616666D01*
X93606666Y-92692857D01*
X93606666Y-92845238D01*
X93644761Y-92921428D01*
X93682857Y-92959523D01*
X93759047Y-92997619D01*
G04 #@! TO.C,M1*
X143390476Y-72602380D02*
X143390476Y-71602380D01*
X143723809Y-72316666D01*
X144057142Y-71602380D01*
X144057142Y-72602380D01*
X145057142Y-72602380D02*
X144485714Y-72602380D01*
X144771428Y-72602380D02*
X144771428Y-71602380D01*
X144676190Y-71745238D01*
X144580952Y-71840476D01*
X144485714Y-71888095D01*
G04 #@! TO.C,R7*
X126816904Y-99608333D02*
X126435952Y-99875000D01*
X126816904Y-100065476D02*
X126016904Y-100065476D01*
X126016904Y-99760714D01*
X126055000Y-99684523D01*
X126093095Y-99646428D01*
X126169285Y-99608333D01*
X126283571Y-99608333D01*
X126359761Y-99646428D01*
X126397857Y-99684523D01*
X126435952Y-99760714D01*
X126435952Y-100065476D01*
X126016904Y-99341666D02*
X126016904Y-98808333D01*
X126816904Y-99151190D01*
G04 #@! TO.C,C13*
X111410714Y-81585714D02*
X111372619Y-81623809D01*
X111258333Y-81661904D01*
X111182142Y-81661904D01*
X111067857Y-81623809D01*
X110991666Y-81547619D01*
X110953571Y-81471428D01*
X110915476Y-81319047D01*
X110915476Y-81204761D01*
X110953571Y-81052380D01*
X110991666Y-80976190D01*
X111067857Y-80900000D01*
X111182142Y-80861904D01*
X111258333Y-80861904D01*
X111372619Y-80900000D01*
X111410714Y-80938095D01*
X112172619Y-81661904D02*
X111715476Y-81661904D01*
X111944047Y-81661904D02*
X111944047Y-80861904D01*
X111867857Y-80976190D01*
X111791666Y-81052380D01*
X111715476Y-81090476D01*
X112439285Y-80861904D02*
X112934523Y-80861904D01*
X112667857Y-81166666D01*
X112782142Y-81166666D01*
X112858333Y-81204761D01*
X112896428Y-81242857D01*
X112934523Y-81319047D01*
X112934523Y-81509523D01*
X112896428Y-81585714D01*
X112858333Y-81623809D01*
X112782142Y-81661904D01*
X112553571Y-81661904D01*
X112477380Y-81623809D01*
X112439285Y-81585714D01*
G04 #@! TO.C,U7*
X116652380Y-119911904D02*
X117461904Y-119911904D01*
X117557142Y-119864285D01*
X117604761Y-119816666D01*
X117652380Y-119721428D01*
X117652380Y-119530952D01*
X117604761Y-119435714D01*
X117557142Y-119388095D01*
X117461904Y-119340476D01*
X116652380Y-119340476D01*
X116652380Y-118959523D02*
X116652380Y-118292857D01*
X117652380Y-118721428D01*
G04 #@! TO.C,C4*
X166541666Y-76035714D02*
X166503571Y-76073809D01*
X166389285Y-76111904D01*
X166313095Y-76111904D01*
X166198809Y-76073809D01*
X166122619Y-75997619D01*
X166084523Y-75921428D01*
X166046428Y-75769047D01*
X166046428Y-75654761D01*
X166084523Y-75502380D01*
X166122619Y-75426190D01*
X166198809Y-75350000D01*
X166313095Y-75311904D01*
X166389285Y-75311904D01*
X166503571Y-75350000D01*
X166541666Y-75388095D01*
X167227380Y-75578571D02*
X167227380Y-76111904D01*
X167036904Y-75273809D02*
X166846428Y-75845238D01*
X167341666Y-75845238D01*
G04 #@! TO.C,C5*
X148516666Y-76035714D02*
X148478571Y-76073809D01*
X148364285Y-76111904D01*
X148288095Y-76111904D01*
X148173809Y-76073809D01*
X148097619Y-75997619D01*
X148059523Y-75921428D01*
X148021428Y-75769047D01*
X148021428Y-75654761D01*
X148059523Y-75502380D01*
X148097619Y-75426190D01*
X148173809Y-75350000D01*
X148288095Y-75311904D01*
X148364285Y-75311904D01*
X148478571Y-75350000D01*
X148516666Y-75388095D01*
X149240476Y-75311904D02*
X148859523Y-75311904D01*
X148821428Y-75692857D01*
X148859523Y-75654761D01*
X148935714Y-75616666D01*
X149126190Y-75616666D01*
X149202380Y-75654761D01*
X149240476Y-75692857D01*
X149278571Y-75769047D01*
X149278571Y-75959523D01*
X149240476Y-76035714D01*
X149202380Y-76073809D01*
X149126190Y-76111904D01*
X148935714Y-76111904D01*
X148859523Y-76073809D01*
X148821428Y-76035714D01*
G04 #@! TO.C,C31*
X134337142Y-111317857D02*
X134384761Y-111365476D01*
X134432380Y-111508333D01*
X134432380Y-111603571D01*
X134384761Y-111746428D01*
X134289523Y-111841666D01*
X134194285Y-111889285D01*
X134003809Y-111936904D01*
X133860952Y-111936904D01*
X133670476Y-111889285D01*
X133575238Y-111841666D01*
X133480000Y-111746428D01*
X133432380Y-111603571D01*
X133432380Y-111508333D01*
X133480000Y-111365476D01*
X133527619Y-111317857D01*
X133432380Y-110984523D02*
X133432380Y-110365476D01*
X133813333Y-110698809D01*
X133813333Y-110555952D01*
X133860952Y-110460714D01*
X133908571Y-110413095D01*
X134003809Y-110365476D01*
X134241904Y-110365476D01*
X134337142Y-110413095D01*
X134384761Y-110460714D01*
X134432380Y-110555952D01*
X134432380Y-110841666D01*
X134384761Y-110936904D01*
X134337142Y-110984523D01*
X134432380Y-109413095D02*
X134432380Y-109984523D01*
X134432380Y-109698809D02*
X133432380Y-109698809D01*
X133575238Y-109794047D01*
X133670476Y-109889285D01*
X133718095Y-109984523D01*
G04 #@! TO.C,C1*
X134057142Y-96216666D02*
X134104761Y-96264285D01*
X134152380Y-96407142D01*
X134152380Y-96502380D01*
X134104761Y-96645238D01*
X134009523Y-96740476D01*
X133914285Y-96788095D01*
X133723809Y-96835714D01*
X133580952Y-96835714D01*
X133390476Y-96788095D01*
X133295238Y-96740476D01*
X133200000Y-96645238D01*
X133152380Y-96502380D01*
X133152380Y-96407142D01*
X133200000Y-96264285D01*
X133247619Y-96216666D01*
X134152380Y-95264285D02*
X134152380Y-95835714D01*
X134152380Y-95550000D02*
X133152380Y-95550000D01*
X133295238Y-95645238D01*
X133390476Y-95740476D01*
X133438095Y-95835714D01*
G04 #@! TO.C,C12*
X129410714Y-81585714D02*
X129372619Y-81623809D01*
X129258333Y-81661904D01*
X129182142Y-81661904D01*
X129067857Y-81623809D01*
X128991666Y-81547619D01*
X128953571Y-81471428D01*
X128915476Y-81319047D01*
X128915476Y-81204761D01*
X128953571Y-81052380D01*
X128991666Y-80976190D01*
X129067857Y-80900000D01*
X129182142Y-80861904D01*
X129258333Y-80861904D01*
X129372619Y-80900000D01*
X129410714Y-80938095D01*
X130172619Y-81661904D02*
X129715476Y-81661904D01*
X129944047Y-81661904D02*
X129944047Y-80861904D01*
X129867857Y-80976190D01*
X129791666Y-81052380D01*
X129715476Y-81090476D01*
X130477380Y-80938095D02*
X130515476Y-80900000D01*
X130591666Y-80861904D01*
X130782142Y-80861904D01*
X130858333Y-80900000D01*
X130896428Y-80938095D01*
X130934523Y-81014285D01*
X130934523Y-81090476D01*
X130896428Y-81204761D01*
X130439285Y-81661904D01*
X130934523Y-81661904D01*
G04 #@! TO.C,M0*
X161440476Y-72627380D02*
X161440476Y-71627380D01*
X161773809Y-72341666D01*
X162107142Y-71627380D01*
X162107142Y-72627380D01*
X162773809Y-71627380D02*
X162869047Y-71627380D01*
X162964285Y-71675000D01*
X163011904Y-71722619D01*
X163059523Y-71817857D01*
X163107142Y-72008333D01*
X163107142Y-72246428D01*
X163059523Y-72436904D01*
X163011904Y-72532142D01*
X162964285Y-72579761D01*
X162869047Y-72627380D01*
X162773809Y-72627380D01*
X162678571Y-72579761D01*
X162630952Y-72532142D01*
X162583333Y-72436904D01*
X162535714Y-72246428D01*
X162535714Y-72008333D01*
X162583333Y-71817857D01*
X162630952Y-71722619D01*
X162678571Y-71675000D01*
X162773809Y-71627380D01*
G04 #@! TO.C,R9*
X133376666Y-113261904D02*
X133110000Y-112880952D01*
X132919523Y-113261904D02*
X132919523Y-112461904D01*
X133224285Y-112461904D01*
X133300476Y-112500000D01*
X133338571Y-112538095D01*
X133376666Y-112614285D01*
X133376666Y-112728571D01*
X133338571Y-112804761D01*
X133300476Y-112842857D01*
X133224285Y-112880952D01*
X132919523Y-112880952D01*
X133757619Y-113261904D02*
X133910000Y-113261904D01*
X133986190Y-113223809D01*
X134024285Y-113185714D01*
X134100476Y-113071428D01*
X134138571Y-112919047D01*
X134138571Y-112614285D01*
X134100476Y-112538095D01*
X134062380Y-112500000D01*
X133986190Y-112461904D01*
X133833809Y-112461904D01*
X133757619Y-112500000D01*
X133719523Y-112538095D01*
X133681428Y-112614285D01*
X133681428Y-112804761D01*
X133719523Y-112880952D01*
X133757619Y-112919047D01*
X133833809Y-112957142D01*
X133986190Y-112957142D01*
X134062380Y-112919047D01*
X134100476Y-112880952D01*
X134138571Y-112804761D01*
G04 #@! TO.C,R10*
X106100714Y-120886904D02*
X105834047Y-120505952D01*
X105643571Y-120886904D02*
X105643571Y-120086904D01*
X105948333Y-120086904D01*
X106024523Y-120125000D01*
X106062619Y-120163095D01*
X106100714Y-120239285D01*
X106100714Y-120353571D01*
X106062619Y-120429761D01*
X106024523Y-120467857D01*
X105948333Y-120505952D01*
X105643571Y-120505952D01*
X106862619Y-120886904D02*
X106405476Y-120886904D01*
X106634047Y-120886904D02*
X106634047Y-120086904D01*
X106557857Y-120201190D01*
X106481666Y-120277380D01*
X106405476Y-120315476D01*
X107357857Y-120086904D02*
X107434047Y-120086904D01*
X107510238Y-120125000D01*
X107548333Y-120163095D01*
X107586428Y-120239285D01*
X107624523Y-120391666D01*
X107624523Y-120582142D01*
X107586428Y-120734523D01*
X107548333Y-120810714D01*
X107510238Y-120848809D01*
X107434047Y-120886904D01*
X107357857Y-120886904D01*
X107281666Y-120848809D01*
X107243571Y-120810714D01*
X107205476Y-120734523D01*
X107167380Y-120582142D01*
X107167380Y-120391666D01*
X107205476Y-120239285D01*
X107243571Y-120163095D01*
X107281666Y-120125000D01*
X107357857Y-120086904D01*
G04 #@! TO.C,C15*
X94025714Y-85114285D02*
X94063809Y-85152380D01*
X94101904Y-85266666D01*
X94101904Y-85342857D01*
X94063809Y-85457142D01*
X93987619Y-85533333D01*
X93911428Y-85571428D01*
X93759047Y-85609523D01*
X93644761Y-85609523D01*
X93492380Y-85571428D01*
X93416190Y-85533333D01*
X93340000Y-85457142D01*
X93301904Y-85342857D01*
X93301904Y-85266666D01*
X93340000Y-85152380D01*
X93378095Y-85114285D01*
X94101904Y-84352380D02*
X94101904Y-84809523D01*
X94101904Y-84580952D02*
X93301904Y-84580952D01*
X93416190Y-84657142D01*
X93492380Y-84733333D01*
X93530476Y-84809523D01*
X93301904Y-83628571D02*
X93301904Y-84009523D01*
X93682857Y-84047619D01*
X93644761Y-84009523D01*
X93606666Y-83933333D01*
X93606666Y-83742857D01*
X93644761Y-83666666D01*
X93682857Y-83628571D01*
X93759047Y-83590476D01*
X93949523Y-83590476D01*
X94025714Y-83628571D01*
X94063809Y-83666666D01*
X94101904Y-83742857D01*
X94101904Y-83933333D01*
X94063809Y-84009523D01*
X94025714Y-84047619D01*
G04 #@! TO.C,C20*
X148835714Y-71275714D02*
X148797619Y-71313809D01*
X148683333Y-71351904D01*
X148607142Y-71351904D01*
X148492857Y-71313809D01*
X148416666Y-71237619D01*
X148378571Y-71161428D01*
X148340476Y-71009047D01*
X148340476Y-70894761D01*
X148378571Y-70742380D01*
X148416666Y-70666190D01*
X148492857Y-70590000D01*
X148607142Y-70551904D01*
X148683333Y-70551904D01*
X148797619Y-70590000D01*
X148835714Y-70628095D01*
X149140476Y-70628095D02*
X149178571Y-70590000D01*
X149254761Y-70551904D01*
X149445238Y-70551904D01*
X149521428Y-70590000D01*
X149559523Y-70628095D01*
X149597619Y-70704285D01*
X149597619Y-70780476D01*
X149559523Y-70894761D01*
X149102380Y-71351904D01*
X149597619Y-71351904D01*
X150092857Y-70551904D02*
X150169047Y-70551904D01*
X150245238Y-70590000D01*
X150283333Y-70628095D01*
X150321428Y-70704285D01*
X150359523Y-70856666D01*
X150359523Y-71047142D01*
X150321428Y-71199523D01*
X150283333Y-71275714D01*
X150245238Y-71313809D01*
X150169047Y-71351904D01*
X150092857Y-71351904D01*
X150016666Y-71313809D01*
X149978571Y-71275714D01*
X149940476Y-71199523D01*
X149902380Y-71047142D01*
X149902380Y-70856666D01*
X149940476Y-70704285D01*
X149978571Y-70628095D01*
X150016666Y-70590000D01*
X150092857Y-70551904D01*
G04 #@! TO.C,C28*
X112835714Y-71275714D02*
X112797619Y-71313809D01*
X112683333Y-71351904D01*
X112607142Y-71351904D01*
X112492857Y-71313809D01*
X112416666Y-71237619D01*
X112378571Y-71161428D01*
X112340476Y-71009047D01*
X112340476Y-70894761D01*
X112378571Y-70742380D01*
X112416666Y-70666190D01*
X112492857Y-70590000D01*
X112607142Y-70551904D01*
X112683333Y-70551904D01*
X112797619Y-70590000D01*
X112835714Y-70628095D01*
X113140476Y-70628095D02*
X113178571Y-70590000D01*
X113254761Y-70551904D01*
X113445238Y-70551904D01*
X113521428Y-70590000D01*
X113559523Y-70628095D01*
X113597619Y-70704285D01*
X113597619Y-70780476D01*
X113559523Y-70894761D01*
X113102380Y-71351904D01*
X113597619Y-71351904D01*
X114054761Y-70894761D02*
X113978571Y-70856666D01*
X113940476Y-70818571D01*
X113902380Y-70742380D01*
X113902380Y-70704285D01*
X113940476Y-70628095D01*
X113978571Y-70590000D01*
X114054761Y-70551904D01*
X114207142Y-70551904D01*
X114283333Y-70590000D01*
X114321428Y-70628095D01*
X114359523Y-70704285D01*
X114359523Y-70742380D01*
X114321428Y-70818571D01*
X114283333Y-70856666D01*
X114207142Y-70894761D01*
X114054761Y-70894761D01*
X113978571Y-70932857D01*
X113940476Y-70970952D01*
X113902380Y-71047142D01*
X113902380Y-71199523D01*
X113940476Y-71275714D01*
X113978571Y-71313809D01*
X114054761Y-71351904D01*
X114207142Y-71351904D01*
X114283333Y-71313809D01*
X114321428Y-71275714D01*
X114359523Y-71199523D01*
X114359523Y-71047142D01*
X114321428Y-70970952D01*
X114283333Y-70932857D01*
X114207142Y-70894761D01*
G04 #@! TO.C,R18*
X137352380Y-84292857D02*
X136876190Y-84626190D01*
X137352380Y-84864285D02*
X136352380Y-84864285D01*
X136352380Y-84483333D01*
X136400000Y-84388095D01*
X136447619Y-84340476D01*
X136542857Y-84292857D01*
X136685714Y-84292857D01*
X136780952Y-84340476D01*
X136828571Y-84388095D01*
X136876190Y-84483333D01*
X136876190Y-84864285D01*
X137352380Y-83340476D02*
X137352380Y-83911904D01*
X137352380Y-83626190D02*
X136352380Y-83626190D01*
X136495238Y-83721428D01*
X136590476Y-83816666D01*
X136638095Y-83911904D01*
X136780952Y-82769047D02*
X136733333Y-82864285D01*
X136685714Y-82911904D01*
X136590476Y-82959523D01*
X136542857Y-82959523D01*
X136447619Y-82911904D01*
X136400000Y-82864285D01*
X136352380Y-82769047D01*
X136352380Y-82578571D01*
X136400000Y-82483333D01*
X136447619Y-82435714D01*
X136542857Y-82388095D01*
X136590476Y-82388095D01*
X136685714Y-82435714D01*
X136733333Y-82483333D01*
X136780952Y-82578571D01*
X136780952Y-82769047D01*
X136828571Y-82864285D01*
X136876190Y-82911904D01*
X136971428Y-82959523D01*
X137161904Y-82959523D01*
X137257142Y-82911904D01*
X137304761Y-82864285D01*
X137352380Y-82769047D01*
X137352380Y-82578571D01*
X137304761Y-82483333D01*
X137257142Y-82435714D01*
X137161904Y-82388095D01*
X136971428Y-82388095D01*
X136876190Y-82435714D01*
X136828571Y-82483333D01*
X136780952Y-82578571D01*
G04 #@! TO.C,R17*
X139852380Y-84292857D02*
X139376190Y-84626190D01*
X139852380Y-84864285D02*
X138852380Y-84864285D01*
X138852380Y-84483333D01*
X138900000Y-84388095D01*
X138947619Y-84340476D01*
X139042857Y-84292857D01*
X139185714Y-84292857D01*
X139280952Y-84340476D01*
X139328571Y-84388095D01*
X139376190Y-84483333D01*
X139376190Y-84864285D01*
X139852380Y-83340476D02*
X139852380Y-83911904D01*
X139852380Y-83626190D02*
X138852380Y-83626190D01*
X138995238Y-83721428D01*
X139090476Y-83816666D01*
X139138095Y-83911904D01*
X138852380Y-83007142D02*
X138852380Y-82340476D01*
X139852380Y-82769047D01*
G04 #@! TO.C,C34*
X112857142Y-114157142D02*
X112809523Y-114204761D01*
X112666666Y-114252380D01*
X112571428Y-114252380D01*
X112428571Y-114204761D01*
X112333333Y-114109523D01*
X112285714Y-114014285D01*
X112238095Y-113823809D01*
X112238095Y-113680952D01*
X112285714Y-113490476D01*
X112333333Y-113395238D01*
X112428571Y-113300000D01*
X112571428Y-113252380D01*
X112666666Y-113252380D01*
X112809523Y-113300000D01*
X112857142Y-113347619D01*
X113190476Y-113252380D02*
X113809523Y-113252380D01*
X113476190Y-113633333D01*
X113619047Y-113633333D01*
X113714285Y-113680952D01*
X113761904Y-113728571D01*
X113809523Y-113823809D01*
X113809523Y-114061904D01*
X113761904Y-114157142D01*
X113714285Y-114204761D01*
X113619047Y-114252380D01*
X113333333Y-114252380D01*
X113238095Y-114204761D01*
X113190476Y-114157142D01*
X114666666Y-113585714D02*
X114666666Y-114252380D01*
X114428571Y-113204761D02*
X114190476Y-113919047D01*
X114809523Y-113919047D01*
G04 #@! TO.C,C9*
X113133333Y-74407142D02*
X113085714Y-74454761D01*
X112942857Y-74502380D01*
X112847619Y-74502380D01*
X112704761Y-74454761D01*
X112609523Y-74359523D01*
X112561904Y-74264285D01*
X112514285Y-74073809D01*
X112514285Y-73930952D01*
X112561904Y-73740476D01*
X112609523Y-73645238D01*
X112704761Y-73550000D01*
X112847619Y-73502380D01*
X112942857Y-73502380D01*
X113085714Y-73550000D01*
X113133333Y-73597619D01*
X113609523Y-74502380D02*
X113800000Y-74502380D01*
X113895238Y-74454761D01*
X113942857Y-74407142D01*
X114038095Y-74264285D01*
X114085714Y-74073809D01*
X114085714Y-73692857D01*
X114038095Y-73597619D01*
X113990476Y-73550000D01*
X113895238Y-73502380D01*
X113704761Y-73502380D01*
X113609523Y-73550000D01*
X113561904Y-73597619D01*
X113514285Y-73692857D01*
X113514285Y-73930952D01*
X113561904Y-74026190D01*
X113609523Y-74073809D01*
X113704761Y-74121428D01*
X113895238Y-74121428D01*
X113990476Y-74073809D01*
X114038095Y-74026190D01*
X114085714Y-73930952D01*
G04 #@! TO.C,U10*
X115802380Y-106138095D02*
X116611904Y-106138095D01*
X116707142Y-106090476D01*
X116754761Y-106042857D01*
X116802380Y-105947619D01*
X116802380Y-105757142D01*
X116754761Y-105661904D01*
X116707142Y-105614285D01*
X116611904Y-105566666D01*
X115802380Y-105566666D01*
X116802380Y-104566666D02*
X116802380Y-105138095D01*
X116802380Y-104852380D02*
X115802380Y-104852380D01*
X115945238Y-104947619D01*
X116040476Y-105042857D01*
X116088095Y-105138095D01*
X115802380Y-103947619D02*
X115802380Y-103852380D01*
X115850000Y-103757142D01*
X115897619Y-103709523D01*
X115992857Y-103661904D01*
X116183333Y-103614285D01*
X116421428Y-103614285D01*
X116611904Y-103661904D01*
X116707142Y-103709523D01*
X116754761Y-103757142D01*
X116802380Y-103852380D01*
X116802380Y-103947619D01*
X116754761Y-104042857D01*
X116707142Y-104090476D01*
X116611904Y-104138095D01*
X116421428Y-104185714D01*
X116183333Y-104185714D01*
X115992857Y-104138095D01*
X115897619Y-104090476D01*
X115850000Y-104042857D01*
X115802380Y-103947619D01*
G04 #@! TO.C,J1*
X104666666Y-83192380D02*
X104666666Y-83906666D01*
X104619047Y-84049523D01*
X104523809Y-84144761D01*
X104380952Y-84192380D01*
X104285714Y-84192380D01*
X105666666Y-84192380D02*
X105095238Y-84192380D01*
X105380952Y-84192380D02*
X105380952Y-83192380D01*
X105285714Y-83335238D01*
X105190476Y-83430476D01*
X105095238Y-83478095D01*
G04 #@! TO.C,C26*
X131315714Y-71275714D02*
X131277619Y-71313809D01*
X131163333Y-71351904D01*
X131087142Y-71351904D01*
X130972857Y-71313809D01*
X130896666Y-71237619D01*
X130858571Y-71161428D01*
X130820476Y-71009047D01*
X130820476Y-70894761D01*
X130858571Y-70742380D01*
X130896666Y-70666190D01*
X130972857Y-70590000D01*
X131087142Y-70551904D01*
X131163333Y-70551904D01*
X131277619Y-70590000D01*
X131315714Y-70628095D01*
X131620476Y-70628095D02*
X131658571Y-70590000D01*
X131734761Y-70551904D01*
X131925238Y-70551904D01*
X132001428Y-70590000D01*
X132039523Y-70628095D01*
X132077619Y-70704285D01*
X132077619Y-70780476D01*
X132039523Y-70894761D01*
X131582380Y-71351904D01*
X132077619Y-71351904D01*
X132763333Y-70551904D02*
X132610952Y-70551904D01*
X132534761Y-70590000D01*
X132496666Y-70628095D01*
X132420476Y-70742380D01*
X132382380Y-70894761D01*
X132382380Y-71199523D01*
X132420476Y-71275714D01*
X132458571Y-71313809D01*
X132534761Y-71351904D01*
X132687142Y-71351904D01*
X132763333Y-71313809D01*
X132801428Y-71275714D01*
X132839523Y-71199523D01*
X132839523Y-71009047D01*
X132801428Y-70932857D01*
X132763333Y-70894761D01*
X132687142Y-70856666D01*
X132534761Y-70856666D01*
X132458571Y-70894761D01*
X132420476Y-70932857D01*
X132382380Y-71009047D01*
G04 #@! TO.C,C18*
X166860714Y-71250714D02*
X166822619Y-71288809D01*
X166708333Y-71326904D01*
X166632142Y-71326904D01*
X166517857Y-71288809D01*
X166441666Y-71212619D01*
X166403571Y-71136428D01*
X166365476Y-70984047D01*
X166365476Y-70869761D01*
X166403571Y-70717380D01*
X166441666Y-70641190D01*
X166517857Y-70565000D01*
X166632142Y-70526904D01*
X166708333Y-70526904D01*
X166822619Y-70565000D01*
X166860714Y-70603095D01*
X167622619Y-71326904D02*
X167165476Y-71326904D01*
X167394047Y-71326904D02*
X167394047Y-70526904D01*
X167317857Y-70641190D01*
X167241666Y-70717380D01*
X167165476Y-70755476D01*
X168079761Y-70869761D02*
X168003571Y-70831666D01*
X167965476Y-70793571D01*
X167927380Y-70717380D01*
X167927380Y-70679285D01*
X167965476Y-70603095D01*
X168003571Y-70565000D01*
X168079761Y-70526904D01*
X168232142Y-70526904D01*
X168308333Y-70565000D01*
X168346428Y-70603095D01*
X168384523Y-70679285D01*
X168384523Y-70717380D01*
X168346428Y-70793571D01*
X168308333Y-70831666D01*
X168232142Y-70869761D01*
X168079761Y-70869761D01*
X168003571Y-70907857D01*
X167965476Y-70945952D01*
X167927380Y-71022142D01*
X167927380Y-71174523D01*
X167965476Y-71250714D01*
X168003571Y-71288809D01*
X168079761Y-71326904D01*
X168232142Y-71326904D01*
X168308333Y-71288809D01*
X168346428Y-71250714D01*
X168384523Y-71174523D01*
X168384523Y-71022142D01*
X168346428Y-70945952D01*
X168308333Y-70907857D01*
X168232142Y-70869761D01*
G04 #@! TO.C,R14*
X138635714Y-116736904D02*
X138369047Y-116355952D01*
X138178571Y-116736904D02*
X138178571Y-115936904D01*
X138483333Y-115936904D01*
X138559523Y-115975000D01*
X138597619Y-116013095D01*
X138635714Y-116089285D01*
X138635714Y-116203571D01*
X138597619Y-116279761D01*
X138559523Y-116317857D01*
X138483333Y-116355952D01*
X138178571Y-116355952D01*
X139397619Y-116736904D02*
X138940476Y-116736904D01*
X139169047Y-116736904D02*
X139169047Y-115936904D01*
X139092857Y-116051190D01*
X139016666Y-116127380D01*
X138940476Y-116165476D01*
X140083333Y-116203571D02*
X140083333Y-116736904D01*
X139892857Y-115898809D02*
X139702380Y-116470238D01*
X140197619Y-116470238D01*
G04 #@! TO.C,R5*
X154452380Y-91166666D02*
X153976190Y-91500000D01*
X154452380Y-91738095D02*
X153452380Y-91738095D01*
X153452380Y-91357142D01*
X153500000Y-91261904D01*
X153547619Y-91214285D01*
X153642857Y-91166666D01*
X153785714Y-91166666D01*
X153880952Y-91214285D01*
X153928571Y-91261904D01*
X153976190Y-91357142D01*
X153976190Y-91738095D01*
X153452380Y-90261904D02*
X153452380Y-90738095D01*
X153928571Y-90785714D01*
X153880952Y-90738095D01*
X153833333Y-90642857D01*
X153833333Y-90404761D01*
X153880952Y-90309523D01*
X153928571Y-90261904D01*
X154023809Y-90214285D01*
X154261904Y-90214285D01*
X154357142Y-90261904D01*
X154404761Y-90309523D01*
X154452380Y-90404761D01*
X154452380Y-90642857D01*
X154404761Y-90738095D01*
X154357142Y-90785714D01*
G04 #@! TO.C,U9*
X115802380Y-101761904D02*
X116611904Y-101761904D01*
X116707142Y-101714285D01*
X116754761Y-101666666D01*
X116802380Y-101571428D01*
X116802380Y-101380952D01*
X116754761Y-101285714D01*
X116707142Y-101238095D01*
X116611904Y-101190476D01*
X115802380Y-101190476D01*
X116802380Y-100666666D02*
X116802380Y-100476190D01*
X116754761Y-100380952D01*
X116707142Y-100333333D01*
X116564285Y-100238095D01*
X116373809Y-100190476D01*
X115992857Y-100190476D01*
X115897619Y-100238095D01*
X115850000Y-100285714D01*
X115802380Y-100380952D01*
X115802380Y-100571428D01*
X115850000Y-100666666D01*
X115897619Y-100714285D01*
X115992857Y-100761904D01*
X116230952Y-100761904D01*
X116326190Y-100714285D01*
X116373809Y-100666666D01*
X116421428Y-100571428D01*
X116421428Y-100380952D01*
X116373809Y-100285714D01*
X116326190Y-100238095D01*
X116230952Y-100190476D01*
G04 #@! TO.C,D1*
X144736904Y-128782380D02*
X144736904Y-127782380D01*
X144975000Y-127782380D01*
X145117857Y-127830000D01*
X145213095Y-127925238D01*
X145260714Y-128020476D01*
X145308333Y-128210952D01*
X145308333Y-128353809D01*
X145260714Y-128544285D01*
X145213095Y-128639523D01*
X145117857Y-128734761D01*
X144975000Y-128782380D01*
X144736904Y-128782380D01*
X146260714Y-128782380D02*
X145689285Y-128782380D01*
X145975000Y-128782380D02*
X145975000Y-127782380D01*
X145879761Y-127925238D01*
X145784523Y-128020476D01*
X145689285Y-128068095D01*
G04 #@! TO.C,C23*
X176545714Y-95339285D02*
X176583809Y-95377380D01*
X176621904Y-95491666D01*
X176621904Y-95567857D01*
X176583809Y-95682142D01*
X176507619Y-95758333D01*
X176431428Y-95796428D01*
X176279047Y-95834523D01*
X176164761Y-95834523D01*
X176012380Y-95796428D01*
X175936190Y-95758333D01*
X175860000Y-95682142D01*
X175821904Y-95567857D01*
X175821904Y-95491666D01*
X175860000Y-95377380D01*
X175898095Y-95339285D01*
X175898095Y-95034523D02*
X175860000Y-94996428D01*
X175821904Y-94920238D01*
X175821904Y-94729761D01*
X175860000Y-94653571D01*
X175898095Y-94615476D01*
X175974285Y-94577380D01*
X176050476Y-94577380D01*
X176164761Y-94615476D01*
X176621904Y-95072619D01*
X176621904Y-94577380D01*
X175821904Y-94310714D02*
X175821904Y-93815476D01*
X176126666Y-94082142D01*
X176126666Y-93967857D01*
X176164761Y-93891666D01*
X176202857Y-93853571D01*
X176279047Y-93815476D01*
X176469523Y-93815476D01*
X176545714Y-93853571D01*
X176583809Y-93891666D01*
X176621904Y-93967857D01*
X176621904Y-94196428D01*
X176583809Y-94272619D01*
X176545714Y-94310714D01*
G04 #@! TO.C,R11*
X132595714Y-114511904D02*
X132329047Y-114130952D01*
X132138571Y-114511904D02*
X132138571Y-113711904D01*
X132443333Y-113711904D01*
X132519523Y-113750000D01*
X132557619Y-113788095D01*
X132595714Y-113864285D01*
X132595714Y-113978571D01*
X132557619Y-114054761D01*
X132519523Y-114092857D01*
X132443333Y-114130952D01*
X132138571Y-114130952D01*
X133357619Y-114511904D02*
X132900476Y-114511904D01*
X133129047Y-114511904D02*
X133129047Y-113711904D01*
X133052857Y-113826190D01*
X132976666Y-113902380D01*
X132900476Y-113940476D01*
X134119523Y-114511904D02*
X133662380Y-114511904D01*
X133890952Y-114511904D02*
X133890952Y-113711904D01*
X133814761Y-113826190D01*
X133738571Y-113902380D01*
X133662380Y-113940476D01*
D13*
G04 #@! TO.C,U3*
X144700000Y-76800000D02*
X146200000Y-76800000D01*
X146200000Y-76800000D02*
X146200000Y-78000000D01*
X145820000Y-77250000D02*
X145820000Y-79620000D01*
X142580000Y-79000000D02*
X142580000Y-78000000D01*
G04 #@! TO.C,C25*
X175460000Y-76767164D02*
X175460000Y-76982836D01*
X174740000Y-76767164D02*
X174740000Y-76982836D01*
G04 #@! TO.C,R6*
X156880000Y-88953641D02*
X156880000Y-88646359D01*
X156120000Y-88953641D02*
X156120000Y-88646359D01*
G04 #@! TO.C,R15*
X109671359Y-123355000D02*
X109978641Y-123355000D01*
X109671359Y-122595000D02*
X109978641Y-122595000D01*
G04 #@! TO.C,C32*
X140285580Y-106965000D02*
X140004420Y-106965000D01*
X140285580Y-107985000D02*
X140004420Y-107985000D01*
G04 #@! TO.C,C14*
X95260000Y-75707836D02*
X95260000Y-75492164D01*
X94540000Y-75707836D02*
X94540000Y-75492164D01*
D14*
G04 #@! TO.C,U8*
X127431100Y-116720397D02*
X127431100Y-115743703D01*
X125068900Y-115743703D02*
X125068900Y-117582050D01*
D15*
X125600000Y-118057050D02*
G75*
G03*
X125600000Y-118057050I-100000J0D01*
G01*
D13*
G04 #@! TO.C,U5*
X110200000Y-76800000D02*
X110200000Y-78000000D01*
X108700000Y-76800000D02*
X110200000Y-76800000D01*
X106580000Y-79000000D02*
X106580000Y-78000000D01*
X109820000Y-77250000D02*
X109820000Y-79620000D01*
G04 #@! TO.C,C21*
X140192164Y-72510000D02*
X140407836Y-72510000D01*
X140192164Y-71790000D02*
X140407836Y-71790000D01*
G04 #@! TO.C,C19*
X158192164Y-71790000D02*
X158407836Y-71790000D01*
X158192164Y-72510000D02*
X158407836Y-72510000D01*
G04 #@! TO.C,C8*
X128659420Y-73540000D02*
X128940580Y-73540000D01*
X128659420Y-74560000D02*
X128940580Y-74560000D01*
G04 #@! TO.C,U2*
X162750000Y-76800000D02*
X164250000Y-76800000D01*
X163870000Y-77250000D02*
X163870000Y-79620000D01*
X160630000Y-79000000D02*
X160630000Y-78000000D01*
X164250000Y-76800000D02*
X164250000Y-78000000D01*
G04 #@! TO.C,R8*
X145633641Y-123770000D02*
X145326359Y-123770000D01*
X145633641Y-124530000D02*
X145326359Y-124530000D01*
G04 #@! TO.C,R16*
X112371359Y-122595000D02*
X112678641Y-122595000D01*
X112371359Y-123355000D02*
X112678641Y-123355000D01*
G04 #@! TO.C,C29*
X104292164Y-71790000D02*
X104507836Y-71790000D01*
X104292164Y-72510000D02*
X104507836Y-72510000D01*
G04 #@! TO.C,R3*
X149380000Y-88953641D02*
X149380000Y-88646359D01*
X148620000Y-88953641D02*
X148620000Y-88646359D01*
G04 #@! TO.C,C3*
X146659420Y-74560000D02*
X146940580Y-74560000D01*
X146659420Y-73540000D02*
X146940580Y-73540000D01*
G04 #@! TO.C,M3*
X111185000Y-70010000D02*
X109385000Y-70010000D01*
X109915000Y-65740000D02*
X106485000Y-65740000D01*
X111185000Y-68560000D02*
X111185000Y-70010000D01*
X105215000Y-68560000D02*
X105215000Y-70010000D01*
X109385000Y-70010000D02*
X109385000Y-71000000D01*
X105215000Y-70010000D02*
X107015000Y-70010000D01*
G04 #@! TO.C,C24*
X174740000Y-85717163D02*
X174740000Y-85932835D01*
X175460000Y-85717163D02*
X175460000Y-85932835D01*
G04 #@! TO.C,M2*
X123215000Y-68560000D02*
X123215000Y-70010000D01*
X129185000Y-68560000D02*
X129185000Y-70010000D01*
X123215000Y-70010000D02*
X125015000Y-70010000D01*
X127915000Y-65740000D02*
X124485000Y-65740000D01*
X129185000Y-70010000D02*
X127385000Y-70010000D01*
X127385000Y-70010000D02*
X127385000Y-71000000D01*
G04 #@! TO.C,R4*
X151880000Y-88953641D02*
X151880000Y-88646359D01*
X151120000Y-88953641D02*
X151120000Y-88646359D01*
G04 #@! TO.C,C6*
X163642164Y-81660000D02*
X163857836Y-81660000D01*
X163642164Y-80940000D02*
X163857836Y-80940000D01*
G04 #@! TO.C,C10*
X128692164Y-75390000D02*
X128907836Y-75390000D01*
X128692164Y-76110000D02*
X128907836Y-76110000D01*
G04 #@! TO.C,C2*
X164684420Y-74560000D02*
X164965580Y-74560000D01*
X164684420Y-73540000D02*
X164965580Y-73540000D01*
G04 #@! TO.C,C33*
X109335000Y-118440580D02*
X109335000Y-118159420D01*
X108315000Y-118440580D02*
X108315000Y-118159420D01*
G04 #@! TO.C,C17*
X94540000Y-102682836D02*
X94540000Y-102467164D01*
X95260000Y-102682836D02*
X95260000Y-102467164D01*
G04 #@! TO.C,R1*
X144380000Y-88953641D02*
X144380000Y-88646359D01*
X143620000Y-88953641D02*
X143620000Y-88646359D01*
G04 #@! TO.C,U1*
X123215000Y-91214999D02*
X123965000Y-91214999D01*
X123215000Y-91964999D02*
X123215000Y-91214999D01*
X123215000Y-97434999D02*
X123965000Y-97434999D01*
X129435000Y-91964999D02*
X129435000Y-91214999D01*
X129435000Y-96684999D02*
X129435000Y-97434999D01*
X123215000Y-96684999D02*
X123215000Y-97434999D01*
X129435000Y-97434999D02*
X128685000Y-97434999D01*
G04 #@! TO.C,C27*
X122242164Y-71790000D02*
X122457836Y-71790000D01*
X122242164Y-72510000D02*
X122457836Y-72510000D01*
G04 #@! TO.C,C35*
X126617164Y-119390000D02*
X126832836Y-119390000D01*
X126617164Y-120110000D02*
X126832836Y-120110000D01*
G04 #@! TO.C,U6*
X137585000Y-109925000D02*
X138285000Y-109925000D01*
X137585000Y-110025000D02*
X137585000Y-109925000D01*
X137585000Y-113125000D02*
X137585000Y-113025000D01*
X137585000Y-113125000D02*
X138285000Y-113125000D01*
X142785000Y-109925000D02*
X142785000Y-113125000D01*
X142785000Y-113125000D02*
X142485000Y-113125000D01*
X142485000Y-109925000D02*
X142785000Y-109925000D01*
D16*
X138740000Y-113625000D02*
G75*
G03*
X138740000Y-113625000I-105000J0D01*
G01*
D13*
G04 #@! TO.C,C11*
X110692164Y-76110000D02*
X110907836Y-76110000D01*
X110692164Y-75390000D02*
X110907836Y-75390000D01*
G04 #@! TO.C,R12*
X108968641Y-121370000D02*
X108661359Y-121370000D01*
X108968641Y-122130000D02*
X108661359Y-122130000D01*
G04 #@! TO.C,C22*
X174740000Y-103717164D02*
X174740000Y-103932836D01*
X175460000Y-103717164D02*
X175460000Y-103932836D01*
G04 #@! TO.C,C7*
X145592164Y-80940000D02*
X145807836Y-80940000D01*
X145592164Y-81660000D02*
X145807836Y-81660000D01*
G04 #@! TO.C,U4*
X127820000Y-77250000D02*
X127820000Y-79620000D01*
X128200000Y-76800000D02*
X128200000Y-78000000D01*
X124580000Y-79000000D02*
X124580000Y-78000000D01*
X126700000Y-76800000D02*
X128200000Y-76800000D01*
G04 #@! TO.C,C30*
X158635000Y-119940000D02*
X150575000Y-119940000D01*
X158635000Y-124460000D02*
X158635000Y-119940000D01*
X150575000Y-124460000D02*
X158635000Y-124460000D01*
G04 #@! TO.C,R13*
X136296359Y-115755000D02*
X136603641Y-115755000D01*
X136296359Y-114995000D02*
X136603641Y-114995000D01*
G04 #@! TO.C,R2*
X146120000Y-88953640D02*
X146120000Y-88646358D01*
X146880000Y-88953640D02*
X146880000Y-88646358D01*
G04 #@! TO.C,J3*
X163235000Y-110195000D02*
X163235000Y-110260000D01*
X166765000Y-110195000D02*
X166765000Y-110260000D01*
X163235000Y-110260000D02*
X166765000Y-110260000D01*
X161910000Y-84805000D02*
X163235000Y-84805000D01*
X163235000Y-84740000D02*
X166765000Y-84740000D01*
X163235000Y-84740000D02*
X163235000Y-84805000D01*
X166765000Y-84740000D02*
X166765000Y-84805000D01*
G04 #@! TO.C,C16*
X94540000Y-93657836D02*
X94540000Y-93442164D01*
X95260000Y-93657836D02*
X95260000Y-93442164D01*
G04 #@! TO.C,M1*
X147185000Y-69960000D02*
X145385000Y-69960000D01*
X145385000Y-69960000D02*
X145385000Y-70950000D01*
X145915000Y-65690000D02*
X142485000Y-65690000D01*
X141215000Y-68510000D02*
X141215000Y-69960000D01*
X147185000Y-68510000D02*
X147185000Y-69960000D01*
X141215000Y-69960000D02*
X143015000Y-69960000D01*
G04 #@! TO.C,R7*
X128005000Y-99628641D02*
X128005000Y-99321359D01*
X127245000Y-99628641D02*
X127245000Y-99321359D01*
G04 #@! TO.C,C13*
X109592164Y-80940000D02*
X109807836Y-80940000D01*
X109592164Y-81660000D02*
X109807836Y-81660000D01*
G04 #@! TO.C,U7*
X110950000Y-117650000D02*
X110950000Y-117550000D01*
X110950000Y-120750000D02*
X110950000Y-120650000D01*
X115850000Y-117550000D02*
X116150000Y-117550000D01*
X110950000Y-120750000D02*
X111650000Y-120750000D01*
X110950000Y-117550000D02*
X111650000Y-117550000D01*
X116150000Y-120750000D02*
X115850000Y-120750000D01*
X116150000Y-117550000D02*
X116150000Y-120750000D01*
D16*
X112105000Y-121250000D02*
G75*
G03*
X112105000Y-121250000I-105000J0D01*
G01*
D13*
G04 #@! TO.C,C4*
X164717164Y-75390000D02*
X164932836Y-75390000D01*
X164717164Y-76110000D02*
X164932836Y-76110000D01*
G04 #@! TO.C,C5*
X146692164Y-75390000D02*
X146907836Y-75390000D01*
X146692164Y-76110000D02*
X146907836Y-76110000D01*
G04 #@! TO.C,C31*
X134900000Y-110815580D02*
X134900000Y-110534420D01*
X135920000Y-110815580D02*
X135920000Y-110534420D01*
G04 #@! TO.C,C1*
X134210000Y-93690580D02*
X134210000Y-93409420D01*
X133190000Y-93690580D02*
X133190000Y-93409420D01*
G04 #@! TO.C,C12*
X127592164Y-80940000D02*
X127807836Y-80940000D01*
X127592164Y-81660000D02*
X127807836Y-81660000D01*
G04 #@! TO.C,M0*
X163965000Y-65715000D02*
X160535000Y-65715000D01*
X165235000Y-69985000D02*
X163435000Y-69985000D01*
X159265000Y-69985000D02*
X161065000Y-69985000D01*
X163435000Y-69985000D02*
X163435000Y-70975000D01*
X165235000Y-68535000D02*
X165235000Y-69985000D01*
X159265000Y-68535000D02*
X159265000Y-69985000D01*
G04 #@! TO.C,R9*
X135256359Y-113280000D02*
X135563641Y-113280000D01*
X135256359Y-112520000D02*
X135563641Y-112520000D01*
G04 #@! TO.C,R10*
X108661359Y-120905000D02*
X108968641Y-120905000D01*
X108661359Y-120145000D02*
X108968641Y-120145000D01*
G04 #@! TO.C,C15*
X95260000Y-84707836D02*
X95260000Y-84492164D01*
X94540000Y-84707836D02*
X94540000Y-84492164D01*
G04 #@! TO.C,C20*
X149242164Y-71790000D02*
X149457836Y-71790000D01*
X149242164Y-72510000D02*
X149457836Y-72510000D01*
G04 #@! TO.C,C28*
X113242164Y-71790000D02*
X113457836Y-71790000D01*
X113242164Y-72510000D02*
X113457836Y-72510000D01*
G04 #@! TO.C,R18*
X137280000Y-86021359D02*
X137280000Y-86328641D01*
X136520000Y-86021359D02*
X136520000Y-86328641D01*
G04 #@! TO.C,R17*
X139020000Y-86021359D02*
X139020000Y-86328641D01*
X139780000Y-86021359D02*
X139780000Y-86328641D01*
G04 #@! TO.C,C34*
X113640580Y-114690000D02*
X113359420Y-114690000D01*
X113640580Y-115710000D02*
X113359420Y-115710000D01*
G04 #@! TO.C,C9*
X110659420Y-74560000D02*
X110940580Y-74560000D01*
X110659420Y-73540000D02*
X110940580Y-73540000D01*
G04 #@! TO.C,U10*
X115510000Y-105600000D02*
X115510000Y-103700000D01*
X113190000Y-104200000D02*
X113190000Y-105600000D01*
G04 #@! TO.C,J1*
X103235000Y-110260000D02*
X106765000Y-110260000D01*
X101910000Y-84805000D02*
X103235000Y-84805000D01*
X103235000Y-110195000D02*
X103235000Y-110260000D01*
X103235000Y-84740000D02*
X103235000Y-84805000D01*
X103235000Y-84740000D02*
X106765000Y-84740000D01*
X106765000Y-110195000D02*
X106765000Y-110260000D01*
X106765000Y-84740000D02*
X106765000Y-84805000D01*
G04 #@! TO.C,C26*
X131722164Y-72510000D02*
X131937836Y-72510000D01*
X131722164Y-71790000D02*
X131937836Y-71790000D01*
G04 #@! TO.C,C18*
X167267164Y-72485000D02*
X167482836Y-72485000D01*
X167267164Y-71765000D02*
X167482836Y-71765000D01*
G04 #@! TO.C,R14*
X138996359Y-114995000D02*
X139303641Y-114995000D01*
X138996359Y-115755000D02*
X139303641Y-115755000D01*
G04 #@! TO.C,R5*
X153620000Y-88953641D02*
X153620000Y-88646359D01*
X154380000Y-88953641D02*
X154380000Y-88646359D01*
G04 #@! TO.C,U9*
X113190000Y-100300000D02*
X113190000Y-101700000D01*
X115510000Y-101700000D02*
X115510000Y-99800000D01*
G04 #@! TO.C,D1*
X144675000Y-127635000D02*
X147135000Y-127635000D01*
X147135000Y-126165000D02*
X144675000Y-126165000D01*
X147135000Y-127635000D02*
X147135000Y-126165000D01*
G04 #@! TO.C,C23*
X174740000Y-94717164D02*
X174740000Y-94932836D01*
X175460000Y-94717164D02*
X175460000Y-94932836D01*
G04 #@! TO.C,R11*
X135573641Y-114530000D02*
X135266359Y-114530000D01*
X135573641Y-113770000D02*
X135266359Y-113770000D01*
G04 #@! TD*
M02*
